<?xml version="1.0" encoding="utf-8"?>
<!-- Generator: Adobe Illustrator 27.5.0, SVG Export Plug-In . SVG Version: 6.00 Build 0)  -->
<svg version="1.1" xmlns="http://www.w3.org/2000/svg" xmlns:xlink="http://www.w3.org/1999/xlink" x="0px" y="0px"
	 viewBox="0 0 314.409 400" style="enable-background:new 0 0 314.409 400;" xml:space="preserve">
<g id="Layer_1">
</g>
<g id="Layer_2">
	<g>
		<g>
			<g>
				<path style="fill:#DF6436;" d="M113.633,215.719c0,0-2.28-5.324,0.227-8.284c2.507-2.959,59.509-8.798,85.399-0.257
					c0,0,5.987,4.743-0.698,12.947c-6.685,8.204,0,51.656,0,51.656h-82.346C116.216,271.781,125.484,241.547,113.633,215.719z"/>
				<path style="opacity:0.6;fill:#DF6436;" d="M113.633,215.719c0,0-2.28-5.324,0.227-8.284c2.507-2.959,59.509-8.798,85.399-0.257
					c0,0,5.987,4.743-0.698,12.947c-6.685,8.204,0,51.656,0,51.656h-82.346C116.216,271.781,125.484,241.547,113.633,215.719z"/>
			</g>
			<g>
				<path style="fill:#FED09E;" d="M124.549,187.266c0,0,1.274,33.798,0,48.236c-0.112,1.273,0.951,3.267,1.376,4.415
					c1.288,3.478,2.953,6.83,5.003,9.922c6.139,9.26,15.258,14.591,26.365,15.139c0.27,0.013,0.54,0.027,0.809,0.04
					c-0.599,0-1.197,0-1.796,0c11.439,0.016,21.179-5.994,27.342-15.433c1.992-3.05,3.613-6.345,4.871-9.762
					c0.414-1.124,1.451-3.074,1.342-4.32c-1.274-14.439,0-48.237,0-48.237H124.549z"/>
				<path style="opacity:0.4;fill:#FED09E;" d="M124.549,187.266c0,0,1.274,33.798,0,48.236c-0.112,1.273,0.951,3.267,1.376,4.415
					c1.288,3.478,2.953,6.83,5.003,9.922c6.139,9.26,15.258,14.591,26.365,15.139c0.27,0.013,0.54,0.027,0.809,0.04
					c-0.599,0-1.197,0-1.796,0c11.439,0.016,21.179-5.994,27.342-15.433c1.992-3.05,3.613-6.345,4.871-9.762
					c0.414-1.124,1.451-3.074,1.342-4.32c-1.274-14.439,0-48.237,0-48.237H124.549z"/>
				<path style="opacity:0.6;fill:#FED09E;" d="M124.549,187.266c0,0,0.16,2.183,0.309,5.642c2.627,3.432,5.648,6.527,8.82,9.477
					c6.917,6.432,14.956,13.183,24.379,13.257c9.423-0.074,17.462-6.825,24.379-13.257c2.472-2.298,4.853-4.683,7.028-7.247
					c0.167-4.725,0.397-7.872,0.397-7.872H124.549z"/>
			</g>
			<polygon style="fill:#E6E7E8;" points="162.172,224.522 157.205,258.94 152.237,224.522 121.299,211.713 122.285,227.478 
				125.427,268.579 192.125,268.579 192.125,227.478 193.11,211.713 			"/>
			<g>
				<path style="fill:#DF6436;" d="M153.39,390c44.582,0,87.916-16.644,120.066-47.752c10.863-10.511,20.302-22.508,27.808-35.636
					c2.747-4.805,5.315-9.998,5.284-15.533c-0.057-10.307-8.879-18.308-17.629-23.756c-27.25-16.967-59.802-22.681-91.448-28.06
					c2.956-7.412,4.922-15.219,5.831-23.147c0.397-3.462-0.078-7.977-3.428-8.938c1.409,3.364-2.017,6.689-5.145,8.564
					c-6.83,4.094-14.249,7.203-21.956,9.203c-2.159,0.56-4.455,1.094-6.062,2.642c-1.576,1.518-2.206,3.743-2.772,5.857
					c-2.24,8.364-4.48,16.728-6.72,25.091c-2.22-8.354-4.441-16.707-6.661-25.061c-0.568-2.137-1.203-4.391-2.808-5.913
					c-1.561-1.479-3.764-2.007-5.843-2.556c-7.64-2.018-15.007-5.068-21.837-9.043c-3.185-1.853-6.692-5.01-5.594-8.527
					c-2.72,0.218-3.455,3.849-3.292,6.573c0.521,8.705,2.53,17.319,5.914,25.356c-33.098,5.461-67.411,11.399-94.986,30.501
					c-6.739,4.668-13.445,10.933-14.184,19.098c-0.524,5.787,2.093,11.365,4.911,16.447c20.785,37.488,57.062,65.766,98.077,77.868
					c16.336,4.82,33.217,6.721,50.22,6.721"/>
				<path style="opacity:0.3;fill:#DF6436;" d="M22.112,269.866c-2.598,1.8-5.19,3.838-7.438,6.13
					c4.081,4.826,10.807,5.397,16.589,6.643c2.79,0.601,5.653,1.378,8.03,3.02c1.158,0.8,2.166,1.793,2.964,2.954
					c0.98,1.427,1.558,3.04,2.014,4.698c1.21,4.405,1.7,8.997,1.856,13.552c0.166,4.816-0.06,9.644-0.538,14.437
					c-0.224,2.251-0.507,4.495-0.844,6.732c-0.375,2.493-0.743,4.999-1.342,7.449c-0.579,2.369-1.284,4.703-2.079,7.006
					c8.161,7.933,17.137,15.038,26.731,21.177c-0.725-1.448-1.409-2.914-2.055-4.387c-2.365-5.394-4.286-10.98-5.913-16.638
					c-3.736-12.998-5.557-26.7-3.256-40.137c1.157-6.758,3.343-13.272,7.042-19.073c1.796-2.817,3.859-5.466,6.105-7.939
					c2.263-2.492,4.716-5.015,7.481-6.952c5.554-3.891,12.053-5.976,18.142-8.835c2.834-1.33,5.602-2.864,8.151-4.686
					c2.451-1.752,4.758-3.883,6.15-6.596c1.297-2.527,1.916-5.35,1.943-8.186C80.395,245.49,48.231,251.773,22.112,269.866z"/>
				<path style="opacity:0.3;fill:#DF6436;" d="M292.678,269.866c2.598,1.8,5.19,3.838,7.438,6.13
					c-4.081,4.826-10.807,5.397-16.589,6.643c-2.79,0.601-5.653,1.378-8.03,3.02c-1.158,0.8-2.166,1.793-2.964,2.954
					c-0.98,1.427-1.558,3.04-2.014,4.698c-1.21,4.405-1.7,8.997-1.856,13.552c-0.166,4.816,0.06,9.644,0.538,14.437
					c0.224,2.251,0.507,4.495,0.844,6.732c0.375,2.493,0.743,4.999,1.342,7.449c0.579,2.369,1.284,4.703,2.079,7.006
					c-8.161,7.933-17.137,15.038-26.731,21.177c0.725-1.448,1.409-2.914,2.055-4.387c2.365-5.394,4.286-10.98,5.913-16.638
					c3.736-12.998,5.557-26.7,3.256-40.137c-1.157-6.758-3.343-13.272-7.042-19.073c-1.796-2.817-3.859-5.466-6.105-7.939
					c-2.263-2.492-4.716-5.015-7.481-6.952c-5.554-3.891-12.053-5.976-18.142-8.835c-2.834-1.33-5.602-2.864-8.151-4.686
					c-2.451-1.752-4.758-3.883-6.15-6.596c-1.297-2.527-1.916-5.35-1.943-8.186C234.395,245.49,266.559,251.773,292.678,269.866z"/>
			</g>
			<g>
				<g>
					<path style="fill:#E6E7E8;" d="M111.286,235.697c0,0-51.282-0.082-99.685,24.857l0.89,13.14c0,0,9.041,11.065,29.511,5.956
						c20.469-5.109,40.645-22.044,69.444-31.609C111.445,248.04,114.426,242.084,111.286,235.697z"/>
					<path style="opacity:0.5;fill:#E6E7E8;" d="M111.286,235.697c0,0-40.848-0.063-84.04,17.651
						c0.986,0.528,2.013,0.962,2.994,1.31c4.947,1.758,10.2,2.601,15.427,2.926c5.342,0.333,10.708,0.132,16.033-0.359
						c5.564-0.514,11.096-1.323,16.567-2.462c3.067-0.638,6.119-1.344,9.178-2.017c1.5-0.33,3.001-0.651,4.506-0.954
						c0.982-0.198,1.96-0.416,2.967-0.429c0.489-0.006,1.316-0.025,1.618,0.46c0.358,0.576-0.409,1.19-0.796,1.492
						c-1.146,0.893-2.501,1.546-3.772,2.239c-1.349,0.736-2.705,1.461-4.028,2.244c-0.546,0.323-1.088,0.654-1.631,0.982
						c7.699-3.914,15.981-7.701,25.137-10.742C111.445,248.04,114.426,242.084,111.286,235.697z"/>
					<path style="fill:#E6E7E8;" d="M40.994,268.91c24.065-4.214,45.98-18.077,58.806-21.53c8.698-2.342,11.61-6.92,11.567-11.507
						c-0.028-0.059-0.052-0.117-0.081-0.176c0,0-51.282-0.082-99.685,24.857C11.601,260.554,16.93,273.124,40.994,268.91z"/>
					<path style="opacity:0.4;fill:#E6E7E8;" d="M40.994,268.91c24.065-4.214,45.98-18.077,58.806-21.53
						c8.698-2.342,11.61-6.92,11.567-11.507c-0.028-0.059-0.052-0.117-0.081-0.176c0,0-51.282-0.082-99.685,24.857
						C11.601,260.554,16.93,273.124,40.994,268.91z"/>
				</g>
				<g>
					<path style="fill:#E6E7E8;" d="M203.124,235.697c0,0,51.282-0.082,99.685,24.857l-0.89,13.14c0,0-9.041,11.065-29.511,5.956
						c-20.469-5.109-40.645-22.044-69.444-31.609C202.965,248.04,199.983,242.084,203.124,235.697z"/>
					<path style="opacity:0.5;fill:#E6E7E8;" d="M203.124,235.697c0,0,40.848-0.063,84.04,17.651
						c-0.986,0.528-2.013,0.962-2.994,1.31c-4.947,1.758-10.2,2.601-15.427,2.926c-5.341,0.333-10.708,0.132-16.033-0.359
						c-5.564-0.514-11.096-1.323-16.567-2.462c-3.067-0.638-6.119-1.344-9.178-2.017c-1.5-0.33-3.001-0.651-4.506-0.954
						c-0.982-0.198-1.96-0.416-2.967-0.429c-0.489-0.006-1.316-0.025-1.617,0.46c-0.358,0.576,0.409,1.19,0.796,1.492
						c1.146,0.893,2.501,1.546,3.772,2.239c1.349,0.736,2.705,1.461,4.028,2.244c0.546,0.323,1.088,0.654,1.631,0.982
						c-7.699-3.914-15.981-7.701-25.137-10.742C202.965,248.04,199.983,242.084,203.124,235.697z"/>
					<path style="fill:#E6E7E8;" d="M273.415,268.91c-24.065-4.214-45.98-18.077-58.806-21.53
						c-8.698-2.342-11.61-6.92-11.567-11.507c0.028-0.059,0.052-0.117,0.081-0.176c0,0,51.282-0.082,99.685,24.857
						C302.809,260.554,297.48,273.124,273.415,268.91z"/>
					<path style="opacity:0.4;fill:#E6E7E8;" d="M273.415,268.91c-24.065-4.214-45.98-18.077-58.806-21.53
						c-8.698-2.342-11.61-6.92-11.567-11.507c0.028-0.059,0.052-0.117,0.081-0.176c0,0,51.282-0.082,99.685,24.857
						C302.809,260.554,297.48,273.124,273.415,268.91z"/>
				</g>
			</g>
			<g>
				<path style="opacity:0.83;fill:#8B5E3C;" d="M161.077,390c-1.344,0-2.687-0.017-4.029-0.041
					c-1.238,0.026-2.477,0.041-3.716,0.041H161.077z"/>
				<g>
					<rect x="129.54" y="301.77" style="fill:#FCAF17;" width="52.007" height="2.953"/>
					<g>
						<rect x="129.54" y="301.77" style="fill:#FCAF17;" width="6.389" height="2.953"/>
						<g>
							<path style="fill:#FCAF17;" d="M134.348,301.292c-0.231-0.231-1.141-0.323-1.486-0.419c-0.579-0.162-1.158-0.322-1.737-0.483
								c-1.674-0.465-3.401-0.951-5.081-1.474c-1.576-0.49-3.337-1.426-5.009-1.426c-3.179,0-5.757,2.577-5.757,5.757
								c0,3.179,2.577,5.757,5.757,5.757c0.952,0,1.8-0.363,2.69-0.653c2.191-0.715,4.434-1.191,6.663-1.765
								c1.318-0.341,2.637-0.682,3.96-1.024V301.292z"/>
							<path style="fill:#FCAF17;" d="M121.035,307.09c-2.119,0-3.843-1.724-3.843-3.843c0-2.119,1.724-3.843,3.843-3.843
								c2.119,0,3.843,1.724,3.843,3.843C124.878,305.366,123.155,307.09,121.035,307.09z M121.035,300.009
								c-1.785,0-3.238,1.452-3.238,3.238c0,1.785,1.452,3.238,3.238,3.238c1.785,0,3.238-1.452,3.238-3.238
								C124.273,301.461,122.821,300.009,121.035,300.009z"/>
						</g>
					</g>
					<g>
						<rect x="178.48" y="301.77" style="fill:#FCAF17;" width="6.389" height="2.953"/>
						<g>
							<path style="fill:#FCAF17;" d="M180.061,301.292c0.231-0.231,1.141-0.323,1.486-0.419c0.579-0.162,1.158-0.322,1.737-0.483
								c1.674-0.465,3.401-0.951,5.08-1.474c1.576-0.49,3.337-1.426,5.009-1.426c3.179,0,5.757,2.577,5.757,5.757
								c0,3.179-2.577,5.757-5.757,5.757c-0.952,0-1.8-0.363-2.69-0.653c-2.191-0.715-4.434-1.191-6.663-1.765
								c-1.318-0.341-2.637-0.682-3.96-1.024V301.292z"/>
							<path style="fill:#FCAF17;" d="M193.374,307.09c2.119,0,3.843-1.724,3.843-3.843c0-2.119-1.724-3.843-3.843-3.843
								c-2.119,0-3.843,1.724-3.843,3.843C189.531,305.366,191.255,307.09,193.374,307.09z M193.374,300.009
								c1.785,0,3.238,1.452,3.238,3.238c0,1.785-1.452,3.238-3.238,3.238c-1.785,0-3.238-1.452-3.238-3.238
								C190.136,301.461,191.588,300.009,193.374,300.009z"/>
						</g>
					</g>
				</g>
				<g>
					<rect x="129.54" y="352.604" style="fill:#FCAF17;" width="52.007" height="2.953"/>
					<g>
						<rect x="129.54" y="352.604" style="fill:#FCAF17;" width="6.389" height="2.953"/>
						<g>
							<path style="fill:#FCAF17;" d="M134.348,352.125c-0.231-0.231-1.141-0.323-1.486-0.419c-0.579-0.162-1.158-0.322-1.737-0.483
								c-1.674-0.465-3.401-0.951-5.081-1.474c-1.576-0.49-3.337-1.426-5.009-1.426c-3.179,0-5.757,2.577-5.757,5.757
								c0,3.179,2.577,5.757,5.757,5.757c0.952,0,1.8-0.363,2.69-0.653c2.191-0.715,4.434-1.191,6.663-1.764
								c1.318-0.341,2.637-0.682,3.96-1.024V352.125z"/>
							<path style="fill:#FCAF17;" d="M121.035,357.924c-2.119,0-3.843-1.724-3.843-3.843c0-2.119,1.724-3.843,3.843-3.843
								c2.119,0,3.843,1.724,3.843,3.843C124.878,356.2,123.155,357.924,121.035,357.924z M121.035,350.843
								c-1.785,0-3.238,1.453-3.238,3.238c0,1.785,1.452,3.238,3.238,3.238c1.785,0,3.238-1.453,3.238-3.238
								C124.273,352.296,122.821,350.843,121.035,350.843z"/>
						</g>
					</g>
					<g>
						<rect x="178.48" y="352.604" style="fill:#FCAF17;" width="6.389" height="2.953"/>
						<g>
							<path style="fill:#FCAF17;" d="M180.061,352.125c0.231-0.231,1.141-0.323,1.486-0.419c0.579-0.162,1.158-0.322,1.737-0.483
								c1.674-0.465,3.401-0.951,5.08-1.474c1.576-0.49,3.337-1.426,5.009-1.426c3.179,0,5.757,2.577,5.757,5.757
								c0,3.179-2.577,5.757-5.757,5.757c-0.952,0-1.8-0.363-2.69-0.653c-2.191-0.715-4.434-1.191-6.663-1.764
								c-1.318-0.341-2.637-0.682-3.96-1.024V352.125z"/>
							<path style="fill:#FCAF17;" d="M193.374,357.924c2.119,0,3.843-1.724,3.843-3.843c0-2.119-1.724-3.843-3.843-3.843
								c-2.119,0-3.843,1.724-3.843,3.843C189.531,356.2,191.255,357.924,193.374,357.924z M193.374,350.843
								c1.785,0,3.238,1.453,3.238,3.238c0,1.785-1.452,3.238-3.238,3.238c-1.785,0-3.238-1.453-3.238-3.238
								C190.136,352.296,191.588,350.843,193.374,350.843z"/>
						</g>
					</g>
				</g>
				<g>
					<g>
						<g>
							<polygon style="fill:#FCAF17;" points="165.29,354.588 157.205,365.745 149.119,354.588 157.205,341.64 							"/>
							<polygon style="fill:#86ADDA;" points="161.771,354.199 157.205,360.501 152.638,354.199 157.205,346.885 							"/>
						</g>
						<polygon style="opacity:0.2;fill:#FFFFFF;" points="157.383,341.926 157.205,341.64 149.119,354.588 157.205,365.745 
							157.383,365.499 						"/>
					</g>
					<g>
						<g>
							<polygon style="fill:#FCAF17;" points="171.831,303.952 157.205,324.135 142.578,303.952 157.205,280.529 							"/>
							<polygon style="fill:#86ADDA;" points="165.466,303.247 157.205,314.647 148.943,303.247 157.205,290.017 							"/>
						</g>
						<polygon style="opacity:0.2;fill:#FFFFFF;" points="157.527,281.046 157.205,280.529 142.578,303.952 157.205,324.135 
							157.527,323.69 						"/>
					</g>
				</g>
			</g>
		</g>
		<g>
			<g>
				<g>
					<path style="fill:#FED09E;" d="M84.263,140.979c1.252,4.51,3.504,8.701,6.323,12.421c2.602,3.433,5.735,6.585,9.283,9.043
						c2.591,1.795,6.26,3.865,9.481,2.546c1.774-0.727,2.826-2.43,3.488-4.147c0.826-2.144,1.187-4.437,1.163-6.729
						c-0.048-4.58-1.46-9.043-3.057-13.292c-1.547-4.119-3.529-8.342-6.947-11.245c-0.024-0.021-0.053-0.032-0.081-0.046
						c-0.638-0.789-1.35-1.519-2.144-2.168c-2.891-2.362-6.596-3.237-10.256-2.561c-3.198,0.591-5.943,2.507-7.23,5.543
						C82.854,133.725,83.308,137.538,84.263,140.979z"/>
					<path style="opacity:0.35;fill:#FED09E;" d="M110.944,140.82c-1.547-4.119-3.529-8.342-6.947-11.245
						c-0.024-0.021-0.053-0.032-0.081-0.046c-0.637-0.789-1.35-1.519-2.144-2.168c-1.464-1.196-3.137-2.009-4.907-2.435
						c0.436,3.472,0.98,6.931,1.647,10.367c1.486,7.652,3.572,15.182,6.23,22.509c0.925,2.55,1.922,5.073,2.975,7.572
						c0.552-0.049,1.099-0.167,1.634-0.386c1.774-0.727,2.826-2.43,3.488-4.147c0.826-2.144,1.187-4.437,1.163-6.729
						C113.953,149.533,112.541,145.069,110.944,140.82z"/>
					<path style="fill:#726658;" d="M86.106,136.196c1.908-4.021,7.638-1.304,10.222,0.441c4.243,2.863,7.187,7.397,8.933,12.134
						c1.045,2.835,1.683,5.809,1.992,8.812c0.024,0.23-0.347,0.164-0.377-0.018c-0.28-1.693-0.634-3.376-1.085-5.029
						c-0.499,0.423-1.404,0.513-1.958,0.472c-0.98-0.073-1.942-0.454-2.801-0.914c-1.649-0.883-3.188-2.09-4.497-3.425
						c-0.115-0.117,0.093-0.169,0.18-0.086c1.239,1.19,2.692,2.224,4.223,3.002c0.79,0.402,1.636,0.78,2.525,0.884
						c0.37,0.043,0.751,0.04,1.111-0.062c0.401-0.114,0.638-0.393,0.994-0.572c0.007-0.004,0.016-0.004,0.023-0.007
						c-0.831-2.852-1.968-5.604-3.55-8.148c-2.275-3.658-5.616-7.024-9.782-8.415c-2.014-0.672-4.393-0.837-5.716,1.142
						C86.415,136.598,86.002,136.415,86.106,136.196z"/>
				</g>
				<g>
					<path style="fill:#FED09E;" d="M230.146,140.979c-1.252,4.51-3.504,8.701-6.323,12.421c-2.602,3.433-5.735,6.585-9.283,9.043
						c-2.591,1.795-6.26,3.865-9.482,2.546c-1.774-0.727-2.826-2.43-3.488-4.147c-0.826-2.144-1.187-4.437-1.163-6.729
						c0.048-4.58,1.46-9.043,3.057-13.292c1.547-4.119,3.529-8.342,6.947-11.245c0.024-0.021,0.053-0.032,0.081-0.046
						c0.637-0.789,1.35-1.519,2.144-2.168c2.891-2.362,6.596-3.237,10.256-2.561c3.198,0.591,5.943,2.507,7.23,5.543
						C231.556,133.725,231.102,137.538,230.146,140.979z"/>
					<path style="opacity:0.35;fill:#FED09E;" d="M203.465,140.82c1.547-4.119,3.529-8.342,6.947-11.245
						c0.024-0.021,0.053-0.032,0.081-0.046c0.638-0.789,1.35-1.519,2.144-2.168c1.464-1.196,3.137-2.009,4.907-2.435
						c-0.436,3.472-0.98,6.931-1.647,10.367c-1.486,7.652-3.572,15.182-6.23,22.509c-0.925,2.55-1.922,5.073-2.975,7.572
						c-0.552-0.049-1.099-0.167-1.634-0.386c-1.775-0.727-2.826-2.43-3.488-4.147c-0.826-2.144-1.187-4.437-1.163-6.729
						C200.456,149.533,201.868,145.069,203.465,140.82z"/>
					<path style="fill:#726658;" d="M228.303,136.196c-1.908-4.021-7.638-1.304-10.222,0.441c-4.243,2.863-7.187,7.397-8.933,12.134
						c-1.045,2.835-1.683,5.809-1.992,8.812c-0.024,0.23,0.347,0.164,0.377-0.018c0.28-1.693,0.634-3.376,1.085-5.029
						c0.499,0.423,1.404,0.513,1.958,0.472c0.98-0.073,1.942-0.454,2.801-0.914c1.649-0.883,3.188-2.09,4.497-3.425
						c0.115-0.117-0.093-0.169-0.18-0.086c-1.239,1.19-2.692,2.224-4.223,3.002c-0.79,0.402-1.636,0.78-2.525,0.884
						c-0.37,0.043-0.751,0.04-1.111-0.062c-0.4-0.114-0.638-0.393-0.994-0.572c-0.007-0.004-0.016-0.004-0.023-0.007
						c0.831-2.852,1.968-5.604,3.55-8.148c2.275-3.658,5.616-7.024,9.782-8.415c2.014-0.672,4.393-0.837,5.716,1.142
						C227.994,136.598,228.407,136.415,228.303,136.196z"/>
				</g>
			</g>
			<path style="fill:#FED09E;" d="M208.487,110.47l-5.821,58.662c-0.52,5.244-2.971,10.108-6.876,13.647
				c0,0-21.949,19.891-21.95,19.892c-2.089,1.893-4.555,3.363-7.215,4.299c-1.306,0.46-2.628,0.794-3.996,0.892
				c-1.372,0.098-2.691,0.512-4.051,0.686c-2.633,0.337-5.188-0.231-7.772-0.661c-4.018-0.67-7.758-2.48-10.776-5.215l-21.95-19.892
				c-3.905-3.539-6.356-8.403-6.876-13.647l-5.821-58.662c0,0-12.465-72.527,54.995-72.527
				C222.961,37.944,208.487,110.47,208.487,110.47z"/>
			<g>
				<path style="fill:#543D43;" d="M108.949,141.908c-2.317-18.167,5.243-39.137,5.243-39.137
					c-2.195-6.096-0.975-15.606-0.975-15.606c4.633,8.9,17.313,5.974,21.824,4.755c4.511-1.219,7.681,3.901,4.755,7.925
					c-2.926,4.023-9.266,2.56-9.266,2.56c13.777,6.096,20.605-7.193,16.46-15.118c-4.145-7.925-15.484-6.584-15.484-6.584
					c9.022-2.56,8.413-10.729,8.413-10.729s10.12,9.51,23.531,5.852c13.412-3.658,12.924-19.386,12.924-19.386
					c3.78,20.361-5.954,21.681-5.954,21.681c20.775,3.24,28.208-20.584,28.208-20.584s2.149,7.819-3.349,13.164
					c0,0,14.662,12.982,9.164,32.99c0,0,3.055,21.229,0.916,36.197c0,0,11.76-20.313,18.327-33.448
					c6.567-13.135,23.062-55.899-8.095-57.426c0,0-7.368-32.261-30.376-21.034c0,0-8.316-19.543-27.86-17.88
					c-19.543,1.663-39.779,31.741-55.442,8.316c0,0-3.881,15.108,1.94,22.038c0,0-16.771-13.306-27.305,8.594
					c0,0,5.128-4.99,14.554,0.416c0,0-20.375-0.277-19.266,19.82C72.943,89.382,100.632,106.703,108.949,141.908"/>
				<path style="opacity:0.4;fill:#543D43;" d="M215.589,49.014c0,0-7.368-32.261-30.376-21.034c0,0-8.316-19.543-27.859-17.88
					c-19.543,1.663-39.78,31.741-55.442,8.316c0,0-0.049,0.193-0.125,0.529c2.189,5.992,8.193,15.004,24.388,13.332
					c23.912-2.468,41.462-14.847,58.932,2.16c0,0,18.358-10.336,29.157,15.581c0,0,24.352,4.965,15.181,42.493
					C235.47,74.844,239.122,50.168,215.589,49.014z"/>
				<g style="opacity:0.4;">
					<path style="fill:#543D43;" d="M197.032,72.521c3.716,4.228,11.697,15.561,7.408,31.17c0,0,3.055,21.229,0.916,36.197
						c0,0,11.76-20.313,18.327-33.448c1.963-3.925,4.811-10.497,7.01-17.823C221.512,95.861,202.829,78.364,197.032,72.521z"/>
					<path style="fill:#543D43;" d="M160.027,70.102c-11.399,2.443-22.165-5.338-22.165-5.338c0.389,1.555,1.299,3.918,2.059,5.774
						c0.01-0.357-0.005-0.565-0.005-0.565s10.12,9.51,23.531,5.852c13.411-3.658,12.924-19.386,12.924-19.386
						c0.003,0.017,0.006,0.032,0.009,0.049c-0.408-2.461-1.064-3.575-1.064-3.575S171.426,67.66,160.027,70.102z"/>
					<path style="fill:#543D43;" d="M108.949,141.908c-2.317-18.167,5.243-39.137,5.243-39.137
						c-2.195-6.096-0.975-15.606-0.975-15.606c4.633,8.9,17.313,5.974,21.824,4.755c4.511-1.219,7.681,3.902,4.755,7.925
						c-2.926,4.023-9.266,2.56-9.266,2.56c13.777,6.096,20.605-7.193,16.46-15.118c-1.708-3.265-4.636-4.955-7.49-5.816
						c3.491,1.532,6.237,5.853-8.24,6.273c-15.73,0.457-21.132-12.85-21.132-12.85s-4.434,15.887-16.072,19.952
						c-10.546,3.683-20.485-21.91-22.258-26.746c0.005,0.388,0.016,0.781,0.038,1.185
						C72.943,89.382,100.632,106.703,108.949,141.908z"/>
				</g>
			</g>
			<g>
				<g>
					<g>
						<path style="fill:#594A42;" d="M113.787,118.19c0,0,4.073-6.646,11.362-6.11c7.289,0.536,16.829,4.288,22.296,4.073
							c0,0-1.822-9.11-1.822-9.111c0.059,0.297-4.508,0.604-4.776,0.601c-4.5-0.05-8.539-2.434-13.087-2.287
							c-3.523,0.114-7.455,0.926-10.249,3.207c-1.061,0.866-1.927,1.98-2.33,3.302c0,0,1.288-2.509,3.914-2.926
							C119.095,108.939,114.507,110.314,113.787,118.19z"/>
						<path style="fill:#FFFFFF;" d="M147.403,130.242c0,0-12.846-16.848-28.852-4.886c0,0,4.159,9.011,13.676,8.211
							C141.744,132.767,147.403,130.242,147.403,130.242z"/>
						<g>
							<path style="fill:#8A4A2E;" d="M126.59,126.422c0,3.466,2.81,6.276,6.276,6.276c3.466,0,6.276-2.81,6.276-6.276
								c0-3.466-2.81-6.276-6.276-6.276C129.401,120.146,126.59,122.956,126.59,126.422z"/>
							<circle style="fill:#231F20;" cx="132.867" cy="126.422" r="3.599"/>
							<circle style="fill:#FFFFFF;" cx="136.113" cy="125.142" r="2.264"/>
						</g>
						<path style="fill:#594A42;" d="M146.281,129.129c0,0-9.341-17.537-30.931-4.494c0,0,6.875,11.077,16.877,8.932
							c0,0-7.592,0.381-12.907-7.869C119.32,125.698,132.565,114.79,146.281,129.129z"/>
						<path style="fill:#726658;" d="M136.591,118.584c-1.319-0.278-2.618-0.557-3.964-0.683c-1.285-0.12-2.582-0.147-3.871-0.076
							c-2.622,0.145-5.242,0.686-7.707,1.59c-1.346,0.493-2.774,1.06-3.931,1.92c-0.167,0.124-0.005,0.249,0.148,0.186
							c1.534-0.635,2.98-1.405,4.568-1.92c1.522-0.494,3.086-0.844,4.674-1.039c1.583-0.194,3.187-0.249,4.779-0.151
							c1.621,0.1,3.315,0.306,4.87,0.792C136.562,119.33,137.132,118.698,136.591,118.584z"/>
					</g>
					<g>
						<path style="fill:#594A42;" d="M200.622,118.19c0,0-4.073-6.646-11.362-6.11c-7.289,0.536-16.829,4.288-22.296,4.073
							c0,0,1.822-9.11,1.822-9.111c-0.059,0.297,4.508,0.604,4.776,0.601c4.5-0.05,8.539-2.434,13.087-2.287
							c3.523,0.114,7.455,0.926,10.249,3.207c1.061,0.866,1.927,1.98,2.33,3.302c0,0-1.288-2.509-3.914-2.926
							C195.314,108.939,199.902,110.314,200.622,118.19z"/>
						<path style="fill:#FFFFFF;" d="M167.006,130.242c0,0,12.846-16.848,28.852-4.886c0,0-4.159,9.011-13.676,8.211
							C172.666,132.767,167.006,130.242,167.006,130.242z"/>
						<g>
							<path style="fill:#8A4A2E;" d="M187.819,126.422c0,3.466-2.81,6.276-6.276,6.276c-3.466,0-6.276-2.81-6.276-6.276
								c0-3.466,2.81-6.276,6.276-6.276C185.009,120.146,187.819,122.956,187.819,126.422z"/>
							<circle style="fill:#231F20;" cx="181.542" cy="126.422" r="3.599"/>
							<circle style="fill:#FFFFFF;" cx="178.296" cy="125.142" r="2.264"/>
						</g>
						<path style="fill:#594A42;" d="M168.128,129.129c0,0,9.341-17.537,30.932-4.494c0,0-6.875,11.077-16.877,8.932
							c0,0,7.592,0.381,12.907-7.869C195.089,125.698,181.845,114.79,168.128,129.129z"/>
						<path style="fill:#726658;" d="M178.2,118.584c1.319-0.278,2.618-0.557,3.964-0.683c1.285-0.12,2.582-0.147,3.871-0.076
							c2.622,0.145,5.242,0.686,7.708,1.59c1.346,0.493,2.774,1.06,3.931,1.92c0.167,0.124,0.005,0.249-0.148,0.186
							c-1.534-0.635-2.98-1.405-4.568-1.92c-1.522-0.494-3.086-0.844-4.674-1.039c-1.583-0.194-3.187-0.249-4.779-0.151
							c-1.621,0.1-3.315,0.306-4.87,0.792C178.228,119.33,177.659,118.698,178.2,118.584z"/>
					</g>
				</g>
				<g>
					<path style="fill:#D8908D;" d="M157.325,182.18c0,0,2.444,0.437,7.801-0.503c5.357-0.94,13.534-10.244,13.534-10.244
						s-9.492-3.007-13.064-3.853c-3.571-0.846-8.365,1.692-8.365,1.692h-0.058c0,0-4.793-2.538-8.365-1.692
						c-3.571,0.846-13.064,3.853-13.064,3.853s8.176,9.304,13.534,10.244c5.357,0.94,7.801,0.503,7.801,0.503"/>
					<path style="fill:#726658;" d="M135.829,171.244c10.005,3.216,32.655,3.07,42.751-0.002c0.11-0.047,0.245,0.009,0.281,0.127
						c0.034,0.105-0.021,0.217-0.123,0.257c-6.9,2.476-14.293,2.801-21.541,2.931c-5.445-0.019-10.924-0.317-16.277-1.395
						c-1.792-0.393-3.561-0.803-5.26-1.538c-0.104-0.047-0.151-0.169-0.105-0.273C135.603,171.244,135.725,171.2,135.829,171.244
						L135.829,171.244z"/>
				</g>
				<g>
					<g>
						<g>
							<path style="opacity:0.3;fill:#FED09E;" d="M169.75,156.647l-5.223,3.304c-4.062,4.062-10.647,4.062-14.709,0l-5.02-3.304
								c-1.818-1.818-2.135-4.652-0.763-6.826l13.239-20.991l13.239,20.991C171.885,151.996,171.568,154.829,169.75,156.647z"/>
							<path style="opacity:0.5;fill:#FED09E;" d="M170.513,149.821l-2.463-3.905c-2.172,3.692-6.183,6.171-10.776,6.171
								s-8.604-2.479-10.776-6.171l-2.463,3.905c-1.371,2.174-1.054,5.008,0.763,6.826l5.02,3.304
								c4.062,4.062,10.647,4.062,14.709,0l5.223-3.304C171.568,154.829,171.885,151.996,170.513,149.821z"/>
						</g>
						<g>
							<path style="fill:#726658;" d="M147.431,154.789c2.471-1.508,5.519-0.402,6.352,2.396c0.237,0.797,0.332,1.615,0.3,2.437
								c-0.005,0.146-0.127,0.261-0.273,0.256c-0.107-0.003-0.197-0.07-0.236-0.163c-0.156-0.371-0.275-0.744-0.391-1.11
								c-0.352-0.927-0.871-2.044-1.601-2.672c-1.061-0.912-2.584-0.935-3.935-0.665
								C147.354,155.358,147.167,154.944,147.431,154.789L147.431,154.789z"/>
							<path style="fill:#726658;" d="M167.117,154.789c-2.471-1.508-5.519-0.402-6.352,2.396c-0.237,0.797-0.332,1.615-0.3,2.437
								c0.005,0.146,0.127,0.261,0.273,0.256c0.107-0.003,0.198-0.07,0.236-0.163c0.156-0.371,0.275-0.744,0.391-1.11
								c0.352-0.927,0.871-2.044,1.601-2.672c1.06-0.912,2.584-0.935,3.935-0.665C167.195,155.358,167.381,154.944,167.117,154.789
								L167.117,154.789z"/>
						</g>
					</g>
					<g>
						<path style="fill:#726658;" d="M144.988,148.442c-0.33,0.667-0.752,1.326-1.061,1.991c-0.917,2.043-0.467,4.405,0.921,6.165
							c0.052,0.061-0.037,0.153-0.1,0.1c-2.258-1.75-2.336-5.294-0.553-7.412c0.223-0.307,0.441-0.617,0.673-0.919
							C144.918,148.301,145.028,148.367,144.988,148.442L144.988,148.442z"/>
						<path style="fill:#726658;" d="M169.529,148.367c0.457,0.624,0.922,1.204,1.302,1.89c1.146,2.07,0.718,4.964-1.181,6.441
							c-0.063,0.05-0.152-0.035-0.1-0.1c1.388-1.76,1.838-4.122,0.92-6.165c-0.309-0.665-0.73-1.323-1.061-1.991
							C169.371,148.37,169.48,148.298,169.529,148.367L169.529,148.367z"/>
					</g>
				</g>
			</g>
		</g>
	</g>
</g>
</svg>
