<?xml version="1.0" standalone="no"?>
<!DOCTYPE svg PUBLIC "-//W3C//DTD SVG 20010904//EN"
 "http://www.w3.org/TR/2001/REC-SVG-20010904/DTD/svg10.dtd">
<svg version="1.0" xmlns="http://www.w3.org/2000/svg"
 width="236.000000pt" height="472.000000pt" viewBox="0 0 236.000000 472.000000"
 preserveAspectRatio="xMidYMid meet">

<g transform="translate(0.000000,472.000000) scale(0.100000,-0.100000)"
fill="#000000" stroke="none">
<path d="M0 4006 c0 -705 0 -714 20 -719 26 -7 26 -27 0 -27 -20 0 -21 -5 -19
-191 1 -136 4 -192 13 -195 17 -7 18 -44 0 -44 -11 0 -14 -25 -14 -145 0 -126
2 -145 17 -155 17 -11 17 -11 1 -6 -17 5 -18 -7 -18 -154 0 -100 4 -160 10
-160 6 0 10 -7 10 -16 0 -8 -4 -12 -10 -9 -5 3 -10 -1 -10 -9 0 -8 5 -18 12
-22 6 -4 9 -3 6 2 -3 5 0 15 8 21 15 15 28 1 29 -31 0 -11 7 -21 15 -24 12 -4
13 -2 3 9 -7 7 -13 16 -13 20 0 10 93 -2 107 -13 16 -13 43 -3 43 16 0 7 11
21 25 30 14 9 25 12 25 6 0 -5 5 -10 10 -10 6 0 10 9 10 21 0 11 -5 17 -10 14
-6 -3 -10 -1 -10 6 0 8 13 10 40 6 27 -3 38 -2 34 5 -5 7 2 9 19 6 24 -5 25
-3 20 23 -3 19 -1 29 6 29 7 0 9 -5 5 -12 -4 -7 2 -5 13 5 11 9 22 15 25 12 2
-3 26 -1 52 4 43 8 48 7 55 -11 4 -12 0 -41 -11 -72 -21 -62 -23 -90 -5 -80 9
6 9 4 -1 -8 -10 -13 -9 -25 5 -69 10 -30 21 -52 24 -49 4 3 16 -3 27 -13 22
-20 42 -16 42 9 0 8 -4 12 -10 9 -5 -3 -17 10 -27 30 -10 21 -20 31 -24 24 -4
-7 -10 7 -14 29 -8 47 -2 62 25 62 10 0 20 7 22 16 2 11 13 1 35 -30 37 -52
96 -86 150 -86 l38 0 -41 19 c-61 28 -161 134 -174 184 -6 23 -26 80 -45 127
-45 114 -55 154 -56 225 -1 54 -2 57 -9 22 -7 -35 -20 -62 -20 -40 0 6 -20 16
-45 23 -25 7 -45 17 -45 21 0 5 -5 9 -12 9 -26 0 -88 36 -86 50 2 8 -1 21 -5
27 -10 15 9 44 47 74 30 23 22 39 -20 39 -11 0 -31 11 -44 25 -13 14 -30 23
-37 21 -19 -8 -73 5 -73 16 0 6 18 8 40 6 22 -2 40 0 40 4 0 7 -19 12 -47 11
-6 0 -9 6 -6 13 3 8 15 14 27 15 11 0 15 3 9 6 -7 2 -13 12 -13 21 0 10 -4 23
-9 31 -8 12 -12 12 -25 -2 -9 -8 -16 -24 -16 -34 -1 -17 -1 -17 -11 0 -17 29
-60 68 -69 62 -19 -11 -46 26 -42 55 4 26 7 28 24 19 11 -6 28 -9 38 -6 10 3
27 -1 37 -8 20 -14 71 -30 121 -39 27 -5 32 -2 32 14 0 10 9 22 21 25 13 4 18
12 15 22 -3 8 -6 19 -6 23 0 5 -20 21 -45 36 -39 23 -43 28 -30 38 11 7 16 27
17 56 0 25 5 48 10 51 5 3 30 -1 55 -9 35 -12 48 -13 51 -4 2 7 8 12 14 12 5
0 7 -9 3 -19 -4 -14 0 -21 15 -26 11 -3 20 -11 20 -16 0 -6 -5 -7 -12 -3 -8 5
-9 2 -3 -12 4 -10 10 -29 12 -41 7 -31 15 -28 33 10 17 37 44 42 48 10 2 -12
9 -24 17 -27 20 -7 86 5 79 15 -3 5 2 9 11 9 9 0 14 -4 10 -9 -7 -13 12 -24
26 -15 8 5 8 9 -1 14 -7 4 -9 13 -5 20 5 8 10 8 14 2 3 -6 6 18 6 51 1 82 7
96 39 90 15 -3 23 -10 19 -17 -3 -6 0 -6 8 2 7 6 22 12 33 12 18 0 18 -2 6
-10 -11 -8 -8 -9 11 -5 24 6 27 3 31 -25 3 -17 1 -33 -4 -36 -5 -3 -6 -10 -3
-15 4 -5 2 -9 -2 -9 -5 0 -9 -9 -9 -20 0 -25 2 -25 54 5 23 13 42 20 42 16 0
-4 -24 -18 -52 -32 -29 -13 -72 -39 -95 -56 -48 -37 -65 -43 -39 -14 13 14 14
21 5 27 -7 4 -10 3 -6 -3 4 -6 0 -16 -8 -23 -8 -7 -13 -15 -10 -19 2 -4 -8
-20 -22 -37 -38 -43 -123 -174 -129 -200 -3 -12 -3 -33 1 -45 7 -22 9 -21 26
14 15 28 27 38 53 43 21 3 33 11 30 18 -3 7 7 22 20 35 14 13 36 47 50 76 31
61 114 149 171 178 22 11 34 22 28 24 -7 3 -13 8 -13 13 0 12 77 40 110 40 30
0 30 0 14 24 -8 14 -15 29 -15 33 0 4 -4 24 -9 43 -5 19 -10 53 -12 75 -2 36
-1 40 20 37 16 -2 22 2 22 17 0 27 18 36 38 18 9 -8 36 -18 60 -22 47 -8 70
-33 74 -78 1 -14 4 -24 7 -22 7 8 30 -29 31 -48 0 -10 8 -21 17 -24 15 -6 14
-7 -3 -13 -13 -5 2 -11 47 -19 142 -24 278 -91 377 -185 47 -44 92 -71 76 -45
-3 5 -9 7 -13 5 -4 -3 -27 14 -50 38 -27 27 -39 46 -32 50 6 4 11 16 11 28 0
14 5 18 16 14 12 -5 14 -1 8 17 -6 20 -4 19 15 -5 13 -16 29 -28 37 -28 17 0
19 -16 2 -24 -7 -3 1 -4 17 -1 l30 5 -23 -16 c-21 -16 -21 -17 -5 -30 10 -7
29 -14 42 -14 l23 0 -23 -19 c-16 -12 -28 -16 -35 -10 -8 6 -10 2 -7 -15 3
-15 10 -23 18 -20 7 3 15 -2 18 -10 4 -9 13 -16 22 -16 8 0 15 -4 15 -10 0 -5
7 -7 15 -4 8 4 15 1 15 -6 0 -10 3 -10 15 0 13 11 15 8 16 -21 1 -21 3 -27 6
-14 7 29 23 43 23 19 0 -10 3 -29 6 -42 5 -18 3 -21 -10 -16 -9 3 -16 2 -16
-4 0 -14 26 -33 33 -25 4 3 7 1 7 -5 0 -19 69 -49 78 -35 4 6 16 11 27 10 16
-2 21 7 28 43 14 79 14 114 0 128 -20 20 -16 32 11 32 17 0 27 -9 36 -30 7
-16 16 -30 21 -30 4 0 11 -10 14 -21 5 -15 9 -18 15 -9 6 9 9 9 15 0 4 -7 1
-16 -6 -22 -11 -7 -9 -8 6 -6 31 4 64 -20 80 -57 7 -19 19 -35 26 -35 6 0 19
-8 28 -18 50 -54 51 -53 51 62 0 99 -1 106 -20 106 -11 0 -20 5 -20 11 0 6 9
8 20 4 20 -6 20 -2 20 829 l0 836 -1180 0 -1180 0 0 -714z m458 -489 c6 -7 9
-23 5 -35 -6 -23 13 -55 28 -46 5 3 6 -2 3 -11 -5 -12 -10 -13 -17 -6 -6 6
-22 11 -36 11 l-26 0 26 -23 27 -22 -38 0 c-21 0 -37 3 -34 6 2 4 -2 9 -9 12
-12 4 -13 19 -9 85 2 15 8 22 22 22 11 0 20 5 20 10 0 14 26 12 38 -3z m1788
-133 c-3 -7 2 -15 10 -18 8 -3 14 -12 14 -21 0 -8 6 -15 13 -15 22 0 38 -22
26 -36 -7 -8 -7 -14 1 -19 15 -9 12 -35 -5 -35 -8 0 -15 -4 -15 -10 0 -5 -9
-10 -19 -10 -11 0 -22 -6 -24 -12 -3 -7 -6 -3 -6 10 -1 14 -5 20 -12 17 -6 -4
-13 2 -16 14 -3 12 -9 21 -14 21 -5 0 -8 3 -7 8 0 4 -2 15 -7 25 -4 10 -2 23
5 32 9 10 9 15 1 15 -6 0 -11 15 -10 33 0 28 1 29 9 10 6 -15 15 -20 29 -16
21 5 29 23 11 23 -5 0 -10 5 -10 11 0 8 5 7 15 -1 9 -7 14 -19 11 -26z m-476
-155 c0 -6 -4 -7 -10 -4 -5 3 -10 11 -10 16 0 6 5 7 10 4 6 -3 10 -11 10 -16z
m-1240 -19 c0 -5 -4 -10 -10 -10 -5 0 -10 5 -10 10 0 6 5 10 10 10 6 0 10 -4
10 -10z m1797 -16 c-3 -3 -12 -4 -19 -1 -8 3 -5 6 6 6 11 1 17 -2 13 -5z m-12
-75 c-10 -15 -25 -10 -19 6 4 8 10 12 15 9 5 -3 7 -10 4 -15z m30 -99 c3 -5
-1 -10 -9 -10 -9 0 -16 5 -16 10 0 6 4 10 9 10 6 0 13 -4 16 -10z m-60 -30 c3
-5 -3 -10 -15 -10 -12 0 -18 5 -15 10 3 6 10 10 15 10 5 0 12 -4 15 -10z
m-2225 -80 c0 -5 -2 -10 -4 -10 -3 0 -8 5 -11 10 -3 6 -1 10 4 10 6 0 11 -4
11 -10z m105 -141 c11 -16 1 -19 -13 -3 -7 8 -8 14 -3 14 5 0 13 -5 16 -11z
m279 -234 c3 -8 12 -15 21 -15 8 0 15 -9 15 -20 0 -18 -3 -19 -22 -9 -26 13
-38 28 -38 47 0 17 17 15 24 -3z m114 -332 c-14 -18 -19 -12 -11 16 4 16 8 19
14 10 4 -7 3 -19 -3 -26z m-358 -33 c0 -5 -5 -10 -11 -10 -5 0 -7 5 -4 10 3 6
8 10 11 10 2 0 4 -4 4 -10z"/>
<path d="M1060 3313 c-32 -11 -100 -43 -100 -48 0 -6 51 16 65 27 5 4 20 8 35
8 l25 0 -25 -20 c-14 -10 -25 -24 -25 -30 0 -6 -7 -15 -15 -20 -11 -7 -8 -10
15 -10 54 0 10 -22 -59 -29 -64 -7 -65 -7 -48 13 39 44 -53 -19 -109 -75 -51
-52 -73 -84 -98 -152 -7 -17 -18 -27 -30 -27 -31 0 -35 -19 -6 -26 14 -3 28
-4 31 -1 8 8 88 -19 92 -31 2 -7 -3 -10 -11 -6 -20 7 -28 -41 -20 -119 5 -48
8 -56 14 -37 6 21 7 18 8 -15 1 -22 10 -56 20 -75 11 -19 24 -45 30 -57 6 -13
15 -23 20 -23 6 0 8 -6 5 -14 -3 -8 -2 -22 3 -31 6 -11 13 7 23 62 7 43 19 89
27 103 7 14 13 41 13 61 0 55 17 62 78 34 29 -14 50 -20 47 -15 -3 6 10 1 29
-11 20 -12 33 -26 29 -32 -3 -5 -2 -7 4 -4 6 4 42 -10 82 -29 56 -28 74 -34
85 -25 11 9 16 9 21 1 5 -7 30 -10 69 -8 57 3 61 2 64 -20 2 -14 -1 -22 -10
-20 -8 2 -12 -5 -11 -17 3 -27 -16 -95 -25 -92 -4 1 -7 -3 -7 -8 0 -5 3 -9 8
-8 12 5 8 -35 -5 -41 -9 -3 -8 -8 5 -16 18 -11 18 -12 0 -32 -18 -21 -18 -21
5 -15 21 5 23 3 17 -26 -4 -21 -3 -27 3 -18 14 19 24 -2 16 -33 -6 -24 -62
-83 -129 -135 l-30 -23 30 17 c55 33 126 97 146 134 14 25 18 29 13 11 -3 -14
-24 -48 -45 -76 -123 -161 -336 -299 -516 -334 -83 -16 -178 -9 -201 14 -16
18 -16 18 8 11 14 -4 52 -8 85 -10 33 -2 52 -2 43 1 -10 3 -27 25 -39 48 -21
43 -21 43 -75 42 -53 0 -73 -16 -38 -30 15 -6 15 -8 -1 -26 -10 -11 -21 -17
-26 -15 -4 3 -10 1 -13 -4 -3 -5 1 -12 10 -15 9 -3 12 -11 8 -18 -4 -7 -4 -10
1 -6 5 5 23 -4 42 -18 42 -32 63 -35 258 -41 153 -5 259 6 425 42 l25 6 -25
-12 c-91 -40 -424 -68 -552 -46 -31 5 -48 5 -48 -2 0 -10 30 -22 67 -27 32 -3
63 -14 62 -22 -3 -21 3 -31 24 -35 12 -3 0 -2 -28 0 -27 3 -68 6 -91 8 -69 4
-137 52 -129 89 5 20 -9 55 -18 46 -4 -4 19 -208 48 -438 6 -51 6 -54 -14 -47
-13 4 -21 2 -21 -5 0 -7 -27 -9 -80 -8 -56 2 -80 7 -80 16 0 6 -6 12 -12 12
-8 0 -9 3 -3 8 6 4 11 64 12 137 1 77 8 158 17 198 21 89 20 101 -4 48 -11
-23 -17 -48 -13 -54 4 -6 1 -7 -7 -2 -9 6 -10 2 -5 -15 5 -15 4 -20 -4 -16 -6
4 -11 1 -11 -7 0 -8 -8 -18 -18 -22 -15 -6 -14 -8 6 -16 25 -9 29 -40 8 -58
-11 -9 -12 -6 -9 16 4 22 2 25 -6 13 -10 -13 -13 -12 -26 4 -13 17 -15 18 -15
3 0 -13 -10 -17 -42 -18 -24 -1 -61 -3 -83 -5 -22 -2 -48 -4 -57 -5 -12 0 -15
-7 -13 -27 4 -26 4 -26 -12 4 -14 29 -14 35 0 63 10 20 12 33 5 37 -5 4 7 21
27 39 38 32 38 32 14 38 -14 4 -35 3 -48 0 -16 -4 -22 -3 -17 5 3 6 2 13 -4
17 -26 16 -4 25 61 25 56 0 69 -3 62 -12 -5 -7 -16 -40 -23 -73 -7 -33 -18
-66 -23 -73 -7 -9 -6 -11 7 -6 9 3 17 12 17 20 4 38 18 72 34 78 8 3 12 12 9
20 -5 13 11 31 30 31 5 0 11 10 13 23 2 18 -1 22 -14 18 -53 -14 -83 -17 -83
-6 0 6 -18 19 -40 29 -22 10 -37 21 -33 24 3 4 -1 7 -10 7 -8 0 -23 3 -33 7
-11 4 -15 3 -11 -4 9 -15 -13 -22 -46 -16 -15 3 -47 -1 -73 -8 -41 -12 -43
-15 -22 -21 17 -6 14 -7 -9 -3 l-33 5 0 -104 c0 -74 4 -106 13 -109 9 -4 9 -6
0 -6 -7 -1 -13 -8 -13 -16 0 -8 6 -15 13 -15 8 0 7 -4 -3 -10 -11 -7 1 -9 40
-5 34 3 50 2 42 -3 -11 -7 -9 -11 8 -15 28 -7 68 11 75 34 3 9 11 22 18 27 9
8 11 -2 8 -41 -4 -46 -5 -49 -12 -22 l-7 30 -1 -34 c-1 -27 -4 -32 -18 -27
-16 7 -33 -8 -33 -30 0 -6 11 -23 25 -38 21 -23 22 -28 9 -33 -16 -6 -72 21
-86 41 -5 7 -8 4 -8 -6 0 -11 -7 -18 -17 -18 -15 0 -16 2 -3 10 13 9 13 11 0
20 -12 8 -13 10 -1 10 8 0 23 7 33 17 17 15 18 15 18 -3 0 -16 2 -17 10 -4 12
19 13 33 1 25 -5 -3 -12 -1 -16 5 -3 5 -16 10 -28 11 -20 1 -20 2 3 8 l25 7
-30 6 c-16 4 -31 2 -33 -2 -2 -5 -10 -6 -18 -3 -12 4 -14 -15 -14 -115 l0
-121 42 -10 43 -10 -42 2 c-35 2 -43 -1 -43 -15 0 -12 8 -18 21 -18 12 0 17
-4 14 -11 -4 -6 -13 -8 -21 -5 -8 3 -14 1 -14 -5 0 -6 8 -9 18 -8 29 3 42 -1
42 -11 0 -5 -13 -7 -30 -3 l-30 6 0 -100 0 -100 48 -25 c26 -13 47 -31 47 -39
0 -21 -53 -24 -76 -3 -18 16 -19 16 -19 -15 0 -29 30 -85 55 -103 6 -4 -1 -8
-14 -8 -15 0 -21 5 -18 13 3 7 -1 21 -9 31 -11 16 -13 -51 -14 -438 l0 -456
1180 0 1180 0 0 134 c0 98 -3 136 -12 139 -10 4 -10 8 1 15 31 22 2 39 -105
60 -59 12 -109 24 -112 27 -13 13 16 19 108 25 55 3 102 8 105 11 5 5 -11 14
-65 37 -24 10 -24 11 -3 11 12 1 25 6 28 11 3 6 17 10 31 10 24 0 24 1 24 90
l0 90 -41 0 c-26 0 -38 4 -33 11 3 6 22 9 41 7 l34 -4 -2 142 c-1 110 -5 144
-15 148 -8 3 -14 11 -14 17 0 8 4 8 15 -1 13 -11 15 -6 15 34 l0 46 -37 1 -38
2 38 10 c20 6 37 15 37 20 0 10 -105 0 -154 -15 -46 -14 -213 -22 -201 -10 6
6 19 12 30 15 11 3 -14 6 -55 7 -93 2 -68 18 35 21 39 1 55 4 38 6 -64 8 -32
20 39 15 59 -4 70 -3 66 9 -4 10 1 15 13 16 10 1 19 -2 19 -8 0 -19 27 -8 38
15 8 19 22 25 69 32 53 8 58 11 61 36 2 19 -2 28 -15 31 -17 4 -17 5 0 6 10 1
17 9 17 22 0 12 -5 19 -12 16 -7 -2 -12 -9 -11 -15 2 -10 -76 -26 -85 -17 -3
3 5 5 17 5 12 0 19 4 16 10 -9 14 -63 12 -180 -5 -55 -8 -134 -16 -175 -16
-41 -1 -82 -5 -90 -9 -9 -5 -40 -2 -70 6 -30 8 -120 19 -199 24 -91 6 -154 15
-174 25 -16 8 -40 15 -53 15 -13 0 -25 4 -28 9 -3 4 -38 6 -78 4 -85 -5 -75
12 12 20 90 9 192 30 180 37 -14 9 33 100 216 423 75 132 85 152 70 133 -9
-11 -16 -16 -16 -11 0 4 -8 1 -17 -7 -10 -9 -33 -23 -50 -32 -18 -9 -33 -21
-33 -27 0 -6 21 1 48 17 43 25 45 25 27 4 -11 -12 -45 -35 -77 -51 -48 -24
-57 -26 -62 -13 -11 30 -6 40 28 52 18 7 61 30 95 52 34 22 65 40 69 40 8 0
62 83 62 94 0 4 -15 -12 -33 -35 -42 -55 -102 -96 -138 -95 -16 1 -29 2 -29 3
0 1 16 10 35 19 55 26 131 99 149 144 19 48 28 45 80 -20 21 -27 43 -47 50
-46 6 2 8 1 4 -1 -5 -3 -1 -14 7 -26 8 -12 15 -32 15 -44 0 -32 -59 -147 -129
-252 -70 -105 -170 -319 -154 -329 13 -8 145 -8 338 0 97 5 123 4 85 -2 -30
-5 -107 -11 -170 -14 -282 -12 -384 -18 -404 -26 -18 -7 -16 -8 12 -8 18 1 36
-2 40 -7 4 -4 -31 -4 -78 0 -80 6 -83 5 -57 -9 21 -11 93 -20 250 -31 264 -18
260 -18 252 -5 -3 6 -37 10 -76 10 -39 0 -69 4 -69 10 0 6 -40 11 -97 12 l-98
1 70 9 c39 4 135 12 215 17 80 5 201 16 269 25 68 9 128 15 135 12 6 -2 0 -5
-14 -5 -39 -2 -70 -12 -64 -22 3 -5 12 -5 22 0 9 4 34 11 55 14 21 3 52 12 68
19 l29 13 0 132 c0 120 -2 135 -20 153 -11 11 -24 20 -30 20 -5 0 -10 5 -10
11 0 12 -25 39 -37 39 -4 0 -14 9 -21 20 -8 13 -8 20 -1 20 5 0 7 5 4 10 -4 6
-12 9 -18 8 -19 -4 -57 21 -57 37 0 11 -13 15 -50 15 -37 0 -55 5 -70 20 -25
25 -27 25 -34 -5 -4 -14 -14 -25 -23 -25 -15 0 -14 2 3 16 18 15 18 15 -10 9
-27 -6 -28 -5 -15 11 9 11 9 15 1 10 -15 -9 -36 40 -26 63 12 31 16 149 5 155
-7 5 -8 1 -4 -11 4 -12 -2 -9 -20 10 -14 15 -34 27 -44 27 -28 0 -41 39 -25
72 16 34 11 44 -26 51 -24 5 -29 10 -27 31 4 31 -8 33 -34 7 -32 -32 -52 -80
-49 -114 4 -38 -24 -66 -147 -146 -94 -62 -204 -102 -364 -130 -127 -23 -235
-28 -191 -9 14 6 49 22 79 34 119 53 288 188 366 294 20 27 51 57 69 68 l34
20 -5 -36 c-4 -30 0 -42 21 -64 42 -46 79 -34 92 30 4 21 1 40 -10 56 -10 15
-12 27 -6 31 17 10 11 27 -7 21 -10 -3 -35 -8 -55 -11 -33 -6 -37 -5 -35 13 0
11 6 20 12 19 5 -1 9 6 9 15 -1 10 2 16 6 13 4 -3 10 2 14 10 3 8 11 15 17 15
17 0 38 31 39 56 0 26 -37 38 -74 24 -28 -10 -61 -71 -65 -116 -2 -28 -28 2
-35 41 -15 76 29 157 94 176 l38 12 -2 57 -3 58 42 16 c47 18 93 62 100 94 8
44 -14 90 -53 108 -33 17 -37 22 -38 59 0 23 -6 50 -13 61 -10 15 -11 15 -7 2
4 -12 0 -18 -10 -18 -11 0 -14 6 -10 16 3 8 2 12 -3 9 -5 -3 -12 -1 -16 5 -3
5 -14 10 -25 10 -11 0 -20 10 -24 25 -9 35 -23 31 -24 -6 -1 -48 -15 -55 -56
-29 -31 19 -36 27 -36 60 0 21 -4 42 -10 45 -6 4 -10 -5 -10 -19 0 -14 -4 -26
-10 -26 -5 0 -10 5 -10 11 0 5 -16 17 -36 25 -29 12 -34 17 -24 29 7 8 20 15
29 15 12 0 13 2 4 8 -7 5 -32 6 -55 4 -24 -2 -58 -3 -76 -3 -19 1 -48 -5 -65
-13 -50 -22 -69 -27 -62 -16 3 6 15 10 25 10 10 0 23 7 27 15 6 9 27 17 54 19
25 2 54 8 65 14 18 11 17 12 -6 13 -14 1 -43 1 -65 0 -27 -1 -36 1 -27 7 11 7
10 10 -3 16 -19 7 -103 7 -125 -1z m-165 -143 c-8 -13 8 -13 21 0 7 7 19 7 35
2 23 -9 23 -10 -11 -17 -19 -4 -43 -16 -53 -26 -20 -21 -37 -25 -37 -8 0 5 -4
7 -10 4 -18 -11 -11 1 12 21 12 10 18 13 13 5 -5 -9 -3 -12 6 -9 8 3 15 10 15
16 2 19 4 22 10 22 3 0 2 -4 -1 -10z m-65 -90 c-10 -10 -29 -24 -42 -30 l-23
-11 23 20 c12 10 22 24 22 29 0 12 21 21 32 15 4 -2 -1 -12 -12 -23z m822
-137 c-6 -10 -34 -40 -63 -68 l-53 -50 57 62 c31 34 57 67 57 74 0 7 3 10 6 7
3 -4 1 -15 -4 -25z m-172 -157 c0 -2 -8 -10 -17 -17 -16 -13 -17 -12 -4 4 13
16 21 21 21 13z m10 -420 c0 -3 -4 -8 -10 -11 -5 -3 -10 -1 -10 4 0 6 5 11 10
11 6 0 10 -2 10 -4z m140 -24 c0 -13 -12 -22 -22 -16 -10 6 -1 24 13 24 5 0 9
-4 9 -8z m0 -406 c0 -2 -7 -7 -16 -10 -8 -3 -12 -2 -9 4 6 10 25 14 25 6z
m-1413 -60 c0 -8 -6 -12 -14 -9 -7 3 -13 9 -13 14 0 5 6 9 13 9 8 0 14 -6 14
-14z m-108 -10 c9 -11 6 -12 -15 -8 -19 3 -22 7 -12 13 16 11 14 11 27 -5z
m1933 -15 c-7 -4 -10 -16 -7 -27 6 -18 6 -18 -5 -1 -9 14 -9 22 1 33 6 8 14
12 18 9 3 -3 0 -10 -7 -14z m-1855 3 c-3 -3 -12 -4 -19 -1 -8 3 -5 6 6 6 11 1
17 -2 13 -5z m13 -62 c9 -9 10 -12 2 -7 -7 4 -29 7 -47 7 -19 0 -42 6 -52 14
-16 12 -12 13 32 8 28 -4 57 -13 65 -22z m-51 -108 c10 -9 -35 -3 -49 6 -11 8
-7 9 15 4 17 -4 32 -8 34 -10z m1702 -14 c18 0 28 -4 24 -10 -3 -5 -15 -10
-25 -10 -10 0 -20 -3 -23 -7 -2 -5 -2 -2 -1 4 3 14 -22 13 -44 -1 -12 -7 -12
-4 -2 14 7 13 17 19 27 16 8 -3 28 -6 44 -6z m96 -13 c3 -4 1 -7 -5 -7 -7 0
-12 -8 -13 -17 0 -17 -1 -17 -8 0 -4 10 -11 18 -16 17 -5 -1 -11 3 -13 9 -3
10 44 9 55 -2z m39 -18 c3 -6 1 -16 -5 -22 -6 -6 -11 -19 -11 -29 0 -10 -4
-18 -9 -18 -5 0 -9 14 -9 30 1 23 5 30 16 25 12 -4 13 -3 2 10 -8 9 -8 15 -2
15 6 0 14 -5 18 -11z m-1067 -157 c49 -89 66 -128 38 -87 -25 37 -110 200 -99
190 6 -5 34 -52 61 -103z m889 71 c-10 -2 -26 -2 -35 0 -10 3 -2 5 17 5 19 0
27 -2 18 -5z m85 -10 c-7 -2 -21 -2 -30 0 -10 3 -4 5 12 5 17 0 24 -2 18 -5z
m62 -3 c3 -5 -1 -10 -9 -10 -9 0 -16 5 -16 10 0 6 4 10 9 10 6 0 13 -4 16 -10z
m-1455 -6 c0 -14 -14 -33 -21 -28 -5 3 -9 1 -9 -5 0 -6 -17 -10 -37 -10 -21 1
-60 -2 -87 -5 -43 -6 -48 -5 -42 9 3 9 6 20 6 24 0 4 30 8 67 9 37 2 69 5 72
7 4 4 51 3 51 -1z m267 -11 c2 -6 -3 -13 -12 -17 -9 -3 -13 -2 -10 4 3 6 1 10
-5 10 -6 0 -8 5 -5 11 8 12 27 7 32 -8z m-467 0 c0 -5 -5 -15 -10 -23 -8 -12
-10 -11 -10 8 0 12 5 22 10 22 6 0 10 -3 10 -7z m1148 -23 c-7 -10 -16 -17
-20 -14 -4 3 -5 -2 -2 -10 4 -11 0 -16 -11 -16 -9 0 -13 -4 -10 -10 3 -5 1
-10 -4 -10 -6 0 -11 3 -11 6 0 9 22 48 38 66 19 23 35 13 20 -12z m472 9 c10
-5 -2 -9 -35 -10 l-50 -1 44 -11 c31 -9 45 -18 47 -31 4 -30 -6 -39 -24 -23
-21 19 -162 34 -162 18 0 -6 -4 -11 -10 -11 -5 0 -10 14 -10 30 0 29 1 30 53
31 49 1 50 1 20 10 -18 5 -33 12 -33 14 0 8 143 -7 160 -16z m38 -19 c-7 -10
-14 -17 -17 -15 -4 4 18 35 25 35 2 0 -1 -9 -8 -20z m-1195 -5 c-3 -9 -8 -14
-10 -11 -3 3 -2 9 2 15 9 16 15 13 8 -4z m-733 -25 c0 -5 -5 -10 -11 -10 -5 0
-7 5 -4 10 3 6 8 10 11 10 2 0 4 -4 4 -10z m780 1 c0 -5 -5 -22 -10 -37 -8
-20 -14 -24 -22 -16 -9 9 -9 18 0 37 11 24 32 35 32 16z m326 -46 c17 -13 14
-14 -41 -14 -55 0 -58 1 -41 14 11 8 29 15 41 15 12 0 30 -7 41 -15z m170 -17
c4 -7 3 -8 -4 -4 -7 4 -12 2 -12 -3 0 -6 -10 -11 -22 -11 -23 0 -23 1 2 14 14
8 26 14 27 15 1 1 5 -4 9 -11z m87 5 c-7 -2 -19 -2 -25 0 -7 3 -2 5 12 5 14 0
19 -2 13 -5z m-475 -10 c-16 -2 -40 -2 -55 0 -16 2 -3 4 27 4 30 0 43 -2 28
-4z m155 -10 c-7 -2 -21 -2 -30 0 -10 3 -4 5 12 5 17 0 24 -2 18 -5z m-336 -9
c-3 -3 -12 -4 -19 -1 -8 3 -5 6 6 6 11 1 17 -2 13 -5z m263 -4 c66 -2 76 -4
45 -9 -48 -8 -276 -1 -271 8 2 3 35 5 73 4 37 -1 106 -2 153 -3z m208 3 c-15
-2 -42 -2 -60 0 -18 2 -6 4 27 4 33 0 48 -2 33 -4z m-383 -48 l60 -14 -60 6
c-33 3 -78 9 -100 13 l-40 8 40 0 c22 1 67 -5 100 -13z m182 9 c-3 -3 -12 -4
-19 -1 -8 3 -5 6 6 6 11 1 17 -2 13 -5z m86 -11 c-7 -2 -19 -2 -25 0 -7 3 -2
5 12 5 14 0 19 -2 13 -5z m185 0 c-10 -2 -26 -2 -35 0 -10 3 -2 5 17 5 19 0
27 -2 18 -5z m-1051 -38 c74 -18 113 -33 113 -42 0 -7 7 -13 15 -13 8 0 15 -4
15 -10 0 -5 23 -10 50 -10 28 0 67 -7 87 -15 44 -19 56 -19 23 0 -24 13 -23
13 20 9 25 -2 39 -1 32 2 -6 3 -10 9 -7 14 8 13 182 -27 220 -52 9 -6 72 -11
103 -9 6 1 12 10 12 21 0 32 48 73 81 68 16 -3 29 -1 29 4 0 4 17 8 38 7 l37
0 -39 -15 c-21 -7 -42 -11 -48 -8 -13 8 -55 -22 -63 -46 -8 -25 18 -70 40 -70
8 0 15 -4 15 -10 0 -5 8 -10 18 -10 9 0 24 -5 32 -11 23 -16 -65 -5 -132 17
-21 6 -231 41 -298 50 l-35 4 30 -15 c17 -8 41 -15 55 -15 14 -1 19 -4 13 -7
-20 -8 -15 -29 10 -41 l22 -11 -25 0 c-19 -1 -22 -3 -10 -10 9 -7 -2 -9 -34
-6 -27 1 -59 11 -75 22 -14 11 -44 23 -65 26 -22 3 -42 11 -46 17 -4 6 -25 18
-46 25 l-39 14 65 2 65 1 -40 13 c-22 7 -58 11 -80 9 -34 -3 -36 -2 -10 4 30
8 30 8 -12 15 -24 4 -69 17 -100 29 -52 19 -55 22 -33 28 20 6 7 11 -57 25
-46 10 -83 23 -83 28 0 5 6 7 13 5 6 -3 63 -18 124 -33z m956 8 c-7 -2 -21 -2
-30 0 -10 3 -4 5 12 5 17 0 24 -2 18 -5z m942 -33 c4 -6 23 -8 43 -5 36 5 36
5 7 -5 -152 -52 -426 -55 -675 -9 -36 7 -33 7 15 2 80 -9 393 -10 425 -1 l25
6 -25 3 c-14 2 18 6 70 9 52 3 98 7 102 8 4 1 10 -3 13 -8z m-1910 -40 c34
-16 83 -34 109 -41 26 -6 45 -14 42 -16 -8 -8 -136 34 -206 67 -36 17 -52 28
-36 25 16 -4 57 -19 91 -35z m989 14 c3 -8 2 -12 -4 -9 -6 3 -10 10 -10 16 0
14 7 11 14 -7z m-645 -10 c13 -11 -8 -10 -34 2 l-30 13 30 -6 c17 -3 32 -7 34
-9z m1074 -21 c-7 -2 -21 -2 -30 0 -10 3 -4 5 12 5 17 0 24 -2 18 -5z m116
-29 c2 -2 -28 -4 -67 -4 -40 0 -72 4 -72 9 0 8 130 3 139 -5z m376 -3 c3 -6
-37 -11 -99 -13 -140 -4 -168 6 -36 13 58 3 110 6 117 7 6 1 14 -2 18 -7z
m-1857 -18 c-10 -2 -26 -2 -35 0 -10 3 -2 5 17 5 19 0 27 -2 18 -5z m1365 0
c-13 -2 -35 -2 -50 0 -16 2 -5 4 22 4 28 0 40 -2 28 -4z m-379 -18 c20 -15 41
-11 31 6 -8 13 -3 11 34 -7 17 -9 39 -13 48 -10 23 9 138 -5 122 -15 -17 -10
-346 4 -409 18 -23 5 -24 6 -5 13 35 15 158 11 179 -5z m-839 -46 l40 -19 -45
7 c-25 4 -64 7 -87 6 -34 0 -39 2 -30 13 17 19 75 16 122 -7z m330 -19 c3 -5
1 -10 -4 -10 -6 0 -11 5 -11 10 0 6 2 10 4 10 3 0 8 -4 11 -10z m628 -17 c-13
-2 -33 -2 -45 0 -13 2 -3 4 22 4 25 0 35 -2 23 -4z m817 -3 c18 -5 -45 -19
-91 -19 -49 -1 -128 -11 -196 -26 -13 -3 -23 -1 -23 5 0 5 15 10 33 10 18 0
42 7 53 15 22 15 186 26 224 15z m-1450 -20 c0 -5 -4 -10 -9 -10 -6 0 -13 5
-16 10 -3 6 1 10 9 10 9 0 16 -4 16 -10z m1095 -9 c36 -8 -95 -21 -219 -21
-112 0 -86 13 42 20 140 9 142 9 177 1z m-1072 -18 c11 -6 9 -33 -3 -33 -5 0
-10 4 -10 9 0 5 -13 12 -30 16 -16 4 -30 11 -30 17 0 9 53 3 73 -9z m257 -3
l95 -9 -114 4 c-63 3 -119 9 -123 13 -5 5 4 7 19 5 15 -2 71 -8 123 -13z
m-117 -26 c48 -7 133 -16 188 -20 55 -3 102 -11 106 -17 6 -10 -189 -2 -226 9
-13 5 -13 4 2 -6 9 -6 45 -16 80 -23 l62 -12 -45 -3 c-65 -4 -282 58 -286 82
-2 13 2 16 14 10 9 -4 57 -13 105 -20z m352 -54 c6 -10 -54 -22 -67 -14 -14 9
8 22 38 22 14 0 26 -4 29 -8z m-75 -33 c0 -4 -6 -2 -14 5 -8 7 -12 17 -9 22 5
8 23 -12 23 -27z m270 23 c-20 -13 -107 -13 -115 0 -4 6 19 10 62 10 48 0 63
-3 53 -10z m-1263 -16 c-3 -3 -12 -4 -19 -1 -8 3 -5 6 6 6 11 1 17 -2 13 -5z
m-67 -24 c-8 -5 -22 -9 -30 -9 -10 0 -8 3 5 9 27 12 43 12 25 0z m1714 -7
c-18 -13 -102 -33 -140 -33 -14 0 -23 -4 -19 -9 3 -5 -7 -19 -21 -30 -19 -15
-22 -21 -10 -21 9 0 16 -4 16 -10 0 -8 -41 -14 -87 -13 -16 1 -17 -13 -2 -23
8 -4 7 -9 -2 -15 -21 -13 -27 -11 -40 12 -7 13 -7 19 -1 15 6 -3 13 -2 16 3
12 19 -23 19 -43 0 -12 -11 -21 -15 -21 -10 0 6 21 25 48 42 38 27 43 28 27 9
l-20 -23 20 7 c11 5 28 11 37 13 10 3 15 9 12 14 -3 5 2 6 10 3 13 -5 46 16
46 29 0 2 -40 7 -89 10 -145 11 -157 28 -16 24 75 -3 133 0 155 8 18 6 58 11
87 11 43 -1 50 -3 37 -13z m-1212 -45 c4 -11 81 -22 214 -32 22 -2 49 -8 60
-14 18 -11 18 -11 -3 -12 -12 0 -23 6 -26 13 -3 9 -7 9 -19 -1 -30 -25 -307 6
-281 31 3 4 16 8 27 8 12 1 6 5 -14 9 l-35 7 37 2 c20 0 38 -4 40 -11z m288 2
c0 -5 -4 -10 -9 -10 -6 0 -13 5 -16 10 -3 6 1 10 9 10 9 0 16 -4 16 -10z
m1328 -25 c10 -10 -61 5 -72 15 -5 5 8 5 29 0 20 -4 40 -11 43 -15z m-395 -32
c-18 -2 -48 -2 -65 0 -18 2 -4 4 32 4 36 0 50 -2 33 -4z m-140 -10 c-7 -2 -19
-2 -25 0 -7 3 -2 5 12 5 14 0 19 -2 13 -5z m237 -22 c-28 -16 -60 -22 -60 -12
0 9 24 17 60 19 13 1 13 0 0 -7z m-896 -15 c26 -3 51 -7 54 -10 8 -9 -159 -7
-188 1 -24 7 -23 8 10 14 19 3 44 4 55 2 11 -2 42 -5 69 -7z m176 4 c0 -5 -11
-10 -25 -10 -14 0 -25 5 -25 10 0 6 11 10 25 10 14 0 25 -4 25 -10z m650 4 c0
-3 -12 -16 -27 -30 -17 -16 -21 -24 -11 -20 9 2 19 0 22 -7 5 -9 7 -9 12 1 3
6 10 10 15 6 5 -3 9 -1 9 5 0 6 7 8 16 4 12 -4 8 -9 -16 -19 -18 -8 -42 -14
-54 -14 -11 0 -28 -5 -36 -10 -13 -9 -13 -11 0 -19 8 -5 18 -7 23 -4 5 3 4 -4
-2 -16 -7 -12 -9 -26 -6 -31 3 -5 1 -11 -5 -15 -6 -4 -8 -10 -5 -15 3 -5 -8
-16 -25 -25 -17 -9 -28 -20 -25 -25 15 -25 -139 -90 -214 -90 -36 0 -62 27
-40 41 28 20 154 79 167 79 15 0 92 57 92 69 0 3 -44 3 -97 -1 -54 -5 -132 -5
-173 -1 -41 4 -82 8 -90 8 -38 3 -90 18 -90 27 0 6 13 8 33 4 82 -17 100 -18
93 -7 -5 7 3 11 24 11 21 0 29 -4 24 -12 -5 -8 30 -10 141 -5 82 4 150 9 153
11 13 14 -17 26 -66 27 -41 0 -51 3 -37 9 11 5 36 9 56 9 21 1 42 8 50 18 13
15 8 16 -58 10 -101 -8 -101 9 0 20 95 11 147 13 147 7z m-262 -52 c6 -1 12
-6 12 -12 0 -10 -59 -2 -73 10 -7 6 19 7 61 2z m365 1 c-7 -2 -21 -2 -30 0
-10 3 -4 5 12 5 17 0 24 -2 18 -5z m-985 -30 c-10 -2 -28 -2 -40 0 -13 2 -5 4
17 4 22 1 32 -1 23 -4z m1342 -23 c12 0 20 -5 18 -11 -4 -12 -78 -23 -78 -11
0 4 -3 18 -7 32 -7 25 -6 25 20 7 14 -9 36 -17 47 -17z m-82 4 c14 -4 17 -44
2 -44 -5 0 -10 5 -10 10 0 7 -6 7 -19 0 -30 -16 -64 -13 -57 5 4 12 -2 15 -28
15 -19 0 -43 3 -53 7 -16 6 -15 8 7 14 24 6 130 2 158 -7z m-1651 0 c-3 -3
-12 -4 -19 -1 -8 3 -5 6 6 6 11 1 17 -2 13 -5z m-47 -24 c18 -12 2 -12 -25 0
-13 6 -15 9 -5 9 8 0 22 -4 30 -9z m660 0 c0 -13 -40 -13 -60 0 -11 7 -5 10
23 10 20 0 37 -4 37 -10z m-592 -49 c3 -21 1 -22 -30 -16 -18 4 -39 12 -47 19
-12 9 -9 12 15 17 45 10 59 6 62 -20z m1402 -11 c-14 -4 -43 -8 -65 -8 l-40 1
45 7 c65 10 92 10 60 0z m-510 -74 c0 -3 -4 -8 -10 -11 -5 -3 -10 -1 -10 4 0
6 5 11 10 11 6 0 10 -2 10 -4z m595 -216 c-3 -5 -15 -10 -26 -10 -11 0 -17 5
-14 10 3 6 15 10 26 10 11 0 17 -4 14 -10z m-320 -17 c30 -6 30 -6 6 -14 -26
-10 -121 -2 -134 10 -10 10 84 13 128 4z m485 -23 c0 -5 -4 -10 -10 -10 -5 0
-10 5 -10 10 0 6 5 10 10 10 6 0 10 -4 10 -10z m-1945 -95 c11 -1 21 -4 23 -5
1 -1 8 -3 14 -4 15 -1 24 -36 10 -36 -6 0 -12 5 -14 11 -2 6 -25 11 -51 12
-26 1 -47 5 -47 10 0 4 8 7 18 7 15 0 15 2 2 11 -12 9 -11 10 5 4 11 -4 29 -8
40 -10z"/>
<path d="M408 1513 c12 -2 30 -2 40 0 9 3 -1 5 -23 4 -22 0 -30 -2 -17 -4z"/>
<path d="M328 1503 c6 -2 18 -2 25 0 6 3 1 5 -13 5 -14 0 -19 -2 -12 -5z"/>
<path d="M488 1133 c7 -3 16 -2 19 1 4 3 -2 6 -13 5 -11 0 -14 -3 -6 -6z"/>
<path d="M317 3263 c-13 -12 -7 -18 18 -19 21 -2 24 1 14 12 -13 15 -22 18
-32 7z"/>
<path d="M971 3249 c-13 -5 -22 -12 -19 -14 6 -6 58 12 58 20 0 7 -11 5 -39
-6z"/>
<path d="M646 3191 c-4 -5 -2 -12 3 -15 5 -4 12 -2 15 3 4 5 2 12 -3 15 -5 4
-12 2 -15 -3z"/>
<path d="M1753 3034 c20 -29 49 -77 63 -108 25 -56 42 -77 25 -33 -5 13 -9 32
-8 43 1 11 -3 18 -12 16 -9 -2 -11 3 -7 13 3 9 2 13 -4 10 -6 -3 -10 -2 -10 4
0 18 19 22 28 5 7 -12 9 -8 9 15 0 16 -3 30 -6 29 -3 0 -9 1 -13 2 -5 1 -11 3
-15 5 -23 6 -50 20 -68 34 -10 9 -2 -7 18 -35z m27 -4 c0 -5 -2 -10 -4 -10 -3
0 -8 5 -11 10 -3 6 -1 10 4 10 6 0 11 -4 11 -10z m22 -22 c-7 -7 -12 -8 -12
-2 0 14 12 26 19 19 2 -3 -1 -11 -7 -17z"/>
<path d="M2160 2910 c0 -5 5 -10 10 -10 6 0 10 5 10 10 0 6 -4 10 -10 10 -5 0
-10 -4 -10 -10z"/>
<path d="M2180 2880 c0 -6 7 -10 15 -10 8 0 15 2 15 4 0 2 -7 6 -15 10 -8 3
-15 1 -15 -4z"/>
<path d="M2190 2850 c0 -5 5 -10 10 -10 6 0 10 5 10 10 0 6 -4 10 -10 10 -5 0
-10 -4 -10 -10z"/>
<path d="M1155 2690 c10 -11 20 -20 23 -20 3 0 -3 9 -13 20 -10 11 -20 20 -23
20 -3 0 3 -9 13 -20z"/>
<path d="M1245 2600 c10 -11 20 -20 23 -20 3 0 -3 9 -13 20 -10 11 -20 20 -23
20 -3 0 3 -9 13 -20z"/>
<path d="M1610 2580 c0 -5 7 -10 15 -10 8 0 15 5 15 10 0 6 -7 10 -15 10 -8 0
-15 -4 -15 -10z"/>
<path d="M1547 2573 c-4 -3 -7 -11 -7 -17 0 -6 5 -5 12 2 6 6 9 14 7 17 -3 3
-9 2 -12 -2z"/>
<path d="M1401 2554 c0 -11 3 -14 6 -6 3 7 2 16 -1 19 -3 4 -6 -2 -5 -13z"/>
<path d="M1510 2475 c0 -8 5 -15 10 -15 6 0 10 7 10 15 0 8 -4 15 -10 15 -5 0
-10 -7 -10 -15z"/>
<path d="M2320 2484 c-8 -1 -32 -5 -53 -9 l-39 -6 24 -23 c20 -17 33 -21 67
-18 38 4 42 6 39 30 -3 26 -12 32 -38 26z"/>
<path d="M855 2460 c-11 -5 -15 -9 -10 -9 6 -1 3 -6 -5 -11 -12 -8 -10 -10 10
-11 14 -1 34 -1 45 0 18 1 18 0 -2 -9 -13 -5 -23 -15 -23 -22 0 -9 3 -9 10 2
7 12 9 10 7 -7 0 -12 -5 -19 -11 -16 -5 4 -7 -1 -3 -9 4 -11 -4 -21 -26 -32
l-32 -15 -7 32 c-3 19 -5 3 -5 -43 l2 -74 -38 -7 c-38 -6 -62 -19 -35 -19 8 0
20 -11 26 -25 6 -14 30 -45 52 -68 22 -24 37 -47 33 -50 -12 -13 63 -7 113 8
27 8 63 24 79 36 26 18 27 20 6 14 -17 -5 -21 -4 -16 5 5 8 3 11 -6 8 -13 -4
-49 26 -49 42 0 3 6 15 14 26 11 14 13 35 9 77 -5 47 -3 61 12 77 18 20 17 20
-13 20 -25 0 -29 3 -25 20 4 14 0 20 -11 20 -27 0 -18 17 14 29 17 5 30 12 30
15 0 9 -123 5 -145 -4z"/>
<path d="M2218 2423 c7 -3 16 -2 19 1 4 3 -2 6 -13 5 -11 0 -14 -3 -6 -6z"/>
<path d="M1610 2410 c0 -5 7 -10 16 -10 8 0 12 5 9 10 -3 6 -10 10 -16 10 -5
0 -9 -4 -9 -10z"/>
<path d="M2330 2331 c0 -5 -17 -6 -39 -4 -45 5 -110 -23 -135 -59 -21 -30 -20
-45 2 -26 18 15 56 13 47 -3 -4 -5 -1 -9 4 -9 11 0 15 13 12 40 -2 13 0 13 8
1 5 -8 7 -21 3 -29 -3 -10 -1 -13 6 -8 7 4 14 -3 18 -19 6 -24 14 -29 42 -26
6 1 12 -2 12 -7 0 -5 11 -7 25 -5 24 5 24 8 22 79 -1 48 -6 75 -14 79 -7 2
-13 1 -13 -4z"/>
<path d="M307 2203 c-4 -3 -7 -11 -7 -17 0 -6 5 -5 12 2 6 6 9 14 7 17 -3 3
-9 2 -12 -2z"/>
<path d="M234 2169 c-3 -5 6 -9 20 -9 31 0 34 6 6 13 -11 3 -23 1 -26 -4z"/>
<path d="M1248 2134 c-38 -20 -36 -28 2 -9 17 9 30 18 30 20 0 7 -1 6 -32 -11z"/>
<path d="M1792 2110 c0 -14 2 -19 5 -12 2 6 2 18 0 25 -3 6 -5 1 -5 -13z"/>
<path d="M632 2048 c-14 -14 2 -38 24 -38 17 0 17 10 0 32 -9 13 -16 14 -24 6z"/>
<path d="M1316 2042 c-3 -5 1 -9 9 -9 8 0 15 4 15 9 0 4 -4 8 -9 8 -6 0 -12
-4 -15 -8z"/>
<path d="M1248 2014 c-22 -13 -22 -13 -2 -14 11 0 28 6 38 13 15 11 16 14 3
14 -8 0 -26 -6 -39 -13z"/>
<path d="M550 1992 c0 -14 32 -40 65 -51 25 -9 27 -8 11 2 -10 6 -32 23 -47
35 -16 13 -29 20 -29 14z"/>
<path d="M665 1950 c3 -5 8 -10 11 -10 2 0 4 5 4 10 0 6 -5 10 -11 10 -5 0 -7
-4 -4 -10z"/>
<path d="M413 1913 c9 -2 23 -2 30 0 6 3 -1 5 -18 5 -16 0 -22 -2 -12 -5z"/>
<path d="M8 1888 c6 -6 18 -8 28 -6 14 3 12 5 -9 10 -19 3 -25 2 -19 -4z"/>
<path d="M358 1873 c6 -2 18 -2 25 0 6 3 1 5 -13 5 -14 0 -19 -2 -12 -5z"/>
<path d="M420 1866 c0 -17 16 -30 23 -19 3 5 -1 14 -9 21 -12 10 -14 10 -14
-2z"/>
<path d="M358 1853 c7 -3 16 -2 19 1 4 3 -2 6 -13 5 -11 0 -14 -3 -6 -6z"/>
<path d="M640 1410 c-8 -5 -10 -10 -5 -10 6 0 20 -3 33 -6 16 -5 22 -2 22 10
0 18 -27 21 -50 6z"/>
<path d="M1514 1409 c-3 -6 -2 -15 4 -21 6 -6 12 -6 17 3 6 8 4 10 -5 4 -10
-6 -12 -4 -7 8 7 19 2 23 -9 6z"/>
<path d="M2270 1355 c-36 -13 -61 -24 -57 -24 21 -2 147 32 147 40 0 13 -16
10 -90 -16z"/>
<path d="M1363 1363 c9 -2 23 -2 30 0 6 3 -1 5 -18 5 -16 0 -22 -2 -12 -5z"/>
<path d="M1942 1340 c-57 -4 -106 -11 -110 -14 -3 -4 51 -6 120 -4 132 3 159
-7 49 -18 -46 -5 -59 -10 -47 -16 19 -10 183 7 226 24 24 10 23 11 -20 24 -48
15 -60 15 -218 4z"/>
<path d="M2320 1334 c-31 -11 -32 -13 -10 -13 14 0 32 3 40 9 24 15 7 18 -30
4z"/>
<path d="M2291 1178 c-66 -12 -55 -26 17 -20 36 3 52 8 52 18 0 8 -3 13 -7 13
-5 -1 -32 -6 -62 -11z"/>
<path d="M2316 375 c-3 -8 -1 -15 5 -15 6 0 17 7 25 15 14 13 13 15 -4 15 -11
0 -22 -7 -26 -15z"/>
</g>
</svg>
