<?xml version="1.0" standalone="no"?>
<!DOCTYPE svg PUBLIC "-//W3C//DTD SVG 20010904//EN"
 "http://www.w3.org/TR/2001/REC-SVG-20010904/DTD/svg10.dtd">
<svg version="1.0" xmlns="http://www.w3.org/2000/svg"
 width="1920.000000pt" height="1919.000000pt" viewBox="0 0 1920.000000 1919.000000"
 preserveAspectRatio="xMidYMid meet">

<g transform="translate(0.000000,1919.000000) scale(0.100000,-0.100000)"
fill="#000000" stroke="none">
<path d="M9425 14509 c-156 -11 -1299 -177 -1405 -204 -283 -72 -537 -192
-767 -363 -122 -91 -333 -305 -430 -437 -45 -60 -107 -154 -139 -210 -40 -69
-84 -128 -144 -190 -106 -111 -167 -196 -231 -322 -97 -191 -134 -349 -134
-573 1 -129 8 -203 43 -445 24 -159 54 -333 67 -385 141 -562 537 -1007 1085
-1221 78 -30 90 -38 70 -43 -14 -3 -119 -24 -235 -46 -403 -79 -771 -162 -875
-196 -316 -105 -475 -279 -401 -439 53 -116 208 -174 458 -175 l132 0 21 -38
c62 -111 206 -93 240 30 6 20 18 39 28 42 106 33 974 182 993 171 5 -4 9 -153
9 -361 0 -275 -3 -355 -12 -358 -281 -82 -393 -140 -524 -271 -136 -134 -240
-359 -259 -559 -10 -104 -12 -107 -43 -100 -15 3 -88 28 -162 56 -129 48 -137
52 -176 101 -114 145 -315 247 -491 248 -99 1 -172 -23 -233 -78 -72 -64 -103
-135 -108 -248 -4 -81 -1 -100 26 -182 37 -109 95 -210 179 -308 116 -136 229
-213 398 -271 61 -20 112 -39 114 -41 6 -4 -29 -42 -61 -65 l-28 -19 -34 34
c-59 59 -135 69 -259 36 -124 -33 -182 -209 -115 -349 33 -68 43 -81 92 -114
30 -20 51 -26 91 -26 82 0 155 18 193 46 33 26 82 112 82 146 0 10 10 20 23
23 65 14 525 97 542 97 23 0 1115 -384 1115 -392 0 -3 -18 -20 -40 -38 l-39
-32 -41 21 c-35 19 -51 21 -108 15 -98 -9 -138 -23 -176 -61 -105 -105 -79
-327 49 -414 49 -33 51 -33 131 -28 45 3 98 13 118 21 69 29 111 94 122 192 6
47 10 54 33 58 14 3 126 24 248 47 l221 41 214 -70 c244 -81 335 -97 487 -89
345 19 670 248 711 502 23 138 -49 246 -200 303 -31 11 -77 23 -103 27 -26 4
-47 10 -47 14 0 4 12 18 26 32 15 13 52 58 83 99 221 296 247 646 75 992 -17
33 -24 65 -24 103 l0 55 50 0 c154 0 267 79 305 214 7 28 32 224 55 435 22
212 43 388 45 391 7 11 600 -97 661 -120 12 -5 24 -20 27 -37 14 -72 89 -121
157 -103 39 10 83 52 95 90 6 18 15 19 133 18 163 -2 251 14 343 60 96 49 139
107 139 189 0 169 -198 315 -547 402 -113 28 -572 125 -815 172 l-117 23 2 76
c1 60 -3 84 -20 117 l-21 41 71 48 c317 217 560 500 728 849 52 107 119 288
148 401 10 36 16 42 53 54 171 50 288 203 288 374 0 93 -139 1036 -162 1100
-40 110 -170 220 -285 242 -18 3 -33 10 -33 15 0 19 -82 197 -126 273 -244
422 -650 727 -1114 839 -179 43 -361 59 -535 46z m405 -114 c171 -33 303 -77
454 -153 337 -167 596 -428 761 -768 30 -62 55 -116 55 -121 0 -6 -26 -15 -57
-22 -122 -27 -223 -108 -277 -221 -29 -61 -31 -72 -31 -175 1 -60 8 -155 17
-210 15 -92 30 -190 43 -290 61 -452 81 -559 117 -627 55 -104 154 -174 276
-198 57 -12 62 -15 56 -34 -118 -394 -263 -651 -514 -910 -263 -272 -594 -463
-955 -552 -112 -27 -419 -76 -730 -115 -44 -5 -87 -12 -95 -14 -8 -3 -73 -11
-145 -20 -266 -31 -528 -13 -770 52 -33 9 -64 19 -68 23 -5 4 45 10 110 13
105 4 782 95 1099 147 760 124 1335 693 1465 1448 34 201 28 389 -26 766 -58
400 -93 527 -199 706 -214 361 -592 593 -1021 625 -147 11 -188 6 -1815 -230
-206 -30 -410 -64 -453 -75 -89 -23 -212 -71 -274 -105 -24 -13 -43 -20 -43
-15 0 13 107 159 181 245 257 302 602 523 984 630 145 40 170 44 840 139 292
41 544 77 560 80 62 10 372 -3 455 -19z m176 -963 c142 -101 289 -272 368
-429 73 -146 96 -238 148 -593 39 -260 43 -302 42 -480 0 -256 -21 -370 -109
-600 -86 -222 -199 -394 -375 -570 -170 -169 -342 -284 -552 -368 -143 -57
-270 -87 -514 -122 -115 -16 -256 -37 -314 -45 -389 -57 -539 -76 -641 -82
-267 -14 -579 54 -820 179 -83 42 -141 82 -74 50 90 -43 226 -91 325 -115 284
-68 442 -65 1070 26 250 37 482 71 515 78 312 57 617 218 849 447 293 290 455
632 497 1052 11 119 7 221 -16 395 -66 487 -81 567 -135 702 -87 217 -230 402
-422 544 -46 33 -85 63 -88 66 -19 19 189 -95 246 -135z m1280 -215 c64 -33
128 -104 148 -165 8 -26 47 -274 87 -552 l72 -505 -17 -63 c-38 -151 -149
-232 -316 -232 -66 0 -86 4 -138 31 -68 34 -121 90 -145 154 -14 37 -31 137
-57 330 -6 44 -17 123 -25 175 -14 96 -31 216 -40 280 -2 19 -12 87 -21 150
-9 63 -14 137 -10 163 14 122 108 225 233 257 67 16 172 6 229 -23z m-3856 -8
c-8 -5 -46 -28 -85 -51 -187 -110 -348 -291 -441 -495 -98 -214 -115 -415 -65
-763 17 -118 38 -251 47 -295 72 -369 303 -713 617 -920 31 -21 57 -40 57 -42
0 -17 -196 50 -305 105 -344 172 -597 479 -690 839 -25 96 -71 391 -85 548
-44 493 307 967 786 1059 43 8 88 17 99 19 11 3 34 5 50 5 23 1 26 -1 15 -9z
m2897 -3020 c7 -13 13 -50 13 -83 l0 -58 -27 5 c-16 3 -81 13 -145 23 -65 9
-118 21 -118 26 0 4 6 8 13 8 6 0 62 25 122 54 61 30 115 53 120 52 6 -1 16
-13 22 -27z m-2599 -160 c168 -77 307 -117 524 -149 294 -44 662 -16 1297 98
277 50 360 48 731 -14 137 -23 701 -134 708 -139 2 -2 -13 -35 -33 -75 -50
-99 -75 -204 -75 -312 0 -48 -3 -88 -7 -88 -5 0 -66 11 -138 25 -137 27 -404
72 -590 99 -60 9 -140 22 -177 28 l-67 11 -3 146 -3 146 -21 -40 c-43 -80 -56
-144 -63 -310 l-6 -160 -55 -33 c-60 -36 -156 -67 -237 -78 l-53 -7 0 132 c0
150 -9 179 -64 205 -30 14 -94 16 -560 16 -470 0 -529 -2 -560 -17 -55 -26
-66 -60 -66 -212 0 -72 -2 -131 -5 -131 -3 0 -33 9 -66 20 -81 28 -125 57
-185 123 l-51 55 -6 129 c-7 136 -30 237 -67 283 l-20 25 0 -117 c0 -134 11
-120 -115 -138 -127 -18 -484 -78 -597 -100 -57 -11 -104 -20 -105 -20 -2 0
-3 14 -3 30 0 45 -28 175 -52 237 -11 30 -42 87 -68 126 -27 40 -46 73 -42 74
18 6 582 117 697 138 72 12 131 23 133 24 1 0 33 -13 70 -30z m-967 -211 c78
-99 125 -218 132 -336 5 -74 7 -72 -106 -97 -84 -19 -97 -31 -97 -94 0 -56
-40 -67 -70 -18 -11 17 -20 26 -20 18 0 -8 -3 -12 -6 -9 -3 3 1 16 8 28 11 19
10 23 -8 38 -18 15 -32 16 -124 8 -261 -24 -460 44 -460 158 0 125 200 245
530 319 152 34 153 34 167 36 7 0 31 -22 54 -51z m4392 -28 c23 -5 84 -18 135
-30 266 -60 446 -150 508 -255 32 -55 28 -99 -14 -137 -73 -69 -174 -91 -392
-87 l-165 4 -12 -47 c-14 -59 -20 -68 -43 -68 -23 0 -40 28 -40 67 0 44 -19
60 -90 75 l-65 15 1 114 c0 131 20 207 80 302 39 62 37 61 97 47z m-1890 -405
c-22 -26 -43 -43 -51 -40 -8 3 -216 5 -463 5 l-449 0 0 33 c0 19 3 37 7 40 3
4 229 7 500 7 l494 0 -38 -45z m832 5 c83 -12 153 -25 157 -29 4 -3 -1 -87
-12 -186 -11 -99 -29 -268 -40 -375 -25 -231 -33 -273 -66 -322 -34 -53 -88
-78 -169 -78 l-65 0 0 503 c0 277 3 506 6 509 3 3 13 4 22 2 9 -2 85 -13 167
-24z m-730 -1157 c-2 -7 -20 -13 -40 -13 l-35 0 0 527 0 527 38 39 37 38 3
-553 c1 -304 0 -559 -3 -565z m-165 503 c0 -459 -2 -515 -16 -520 -9 -3 -206
-6 -438 -6 -315 0 -425 3 -434 12 -9 9 -12 138 -12 520 l0 508 450 0 450 0 0
-514z m-1252 452 c43 -37 143 -84 212 -99 l50 -11 0 -267 c0 -147 -3 -270 -6
-274 -12 -11 -124 38 -177 77 -30 23 -71 61 -91 84 l-36 44 0 239 c0 131 3
239 6 239 4 0 23 -14 42 -32z m1862 -262 l0 -255 -74 -49 c-74 -50 -217 -112
-256 -112 -20 0 -20 5 -20 285 0 220 3 286 13 289 6 2 53 11 102 20 50 10 119
30 155 46 36 15 68 28 73 29 4 1 7 -113 7 -253z m-2000 -293 c0 -54 53 -153
81 -153 5 0 9 25 9 56 l0 56 23 -16 c86 -63 147 -97 212 -117 l75 -24 0 -113
c0 -131 12 -166 65 -188 50 -20 1059 -21 1109 0 63 26 76 56 76 171 l0 103 48
12 c68 17 167 58 233 96 32 19 60 34 63 34 3 0 6 -88 6 -195 0 -185 1 -198 24
-243 121 -243 139 -493 52 -708 -31 -75 -87 -170 -130 -220 l-33 -38 -89 46
c-93 48 -189 81 -266 93 -71 11 -76 18 -40 59 59 67 67 92 67 201 0 96 -1 103
-38 175 -40 78 -114 181 -191 264 -26 27 -46 53 -46 58 0 8 -392 11 -945 8
-301 -1 -379 -11 -482 -61 -97 -47 -173 -150 -173 -236 0 -13 -3 -23 -6 -23
-4 0 -37 20 -74 45 -80 53 -188 100 -272 117 l-60 12 7 46 c3 25 17 81 31 124
86 272 256 441 537 537 61 22 115 39 120 39 4 0 7 -8 7 -17z m-1556 -528 c95
-25 193 -83 267 -157 37 -37 70 -76 74 -87 4 -14 30 -29 79 -47 l74 -28 -59
-38 c-88 -56 -172 -197 -156 -260 6 -21 24 -30 129 -66 68 -22 296 -99 507
-170 446 -151 428 -149 457 -49 11 39 18 97 18 159 1 54 2 98 2 98 1 0 80 -29
175 -64 96 -35 282 -103 414 -151 623 -225 576 -206 570 -235 -3 -14 0 -32 7
-41 7 -9 85 -60 173 -114 88 -54 187 -114 220 -135 33 -20 103 -63 155 -95 52
-32 107 -66 122 -76 15 -11 30 -19 33 -19 2 0 49 -27 102 -60 54 -33 108 -60
120 -60 28 0 67 47 91 112 42 112 37 213 -16 321 -32 65 -29 67 52 37 176 -66
171 -242 -11 -409 -55 -51 -104 -85 -172 -118 l-96 -48 -125 0 c-147 1 -220
18 -500 115 -96 34 -231 81 -300 105 -69 23 -197 69 -285 100 -404 143 -802
283 -1365 481 -195 69 -400 141 -455 161 -137 50 -211 98 -306 198 -211 224
-278 479 -162 614 40 47 68 52 167 26z m2869 -216 c116 -126 187 -259 187
-351 0 -94 -73 -179 -240 -275 -52 -31 -116 -76 -142 -101 l-46 -45 -624 227
c-343 125 -630 231 -637 235 -17 11 -17 144 0 201 26 88 123 150 264 170 33 5
312 7 620 6 l560 -3 58 -64z m-1903 -106 c135 -45 300 -168 300 -223 0 -16 7
-59 16 -97 17 -71 14 -197 -5 -216 -10 -10 -891 280 -891 294 0 24 74 108 120
136 155 94 331 46 429 -117 l21 -35 2 30 c5 93 -22 161 -79 196 -20 12 -33 29
-33 41 0 18 4 19 37 13 21 -4 58 -14 83 -22z m2188 -599 c37 -9 109 -36 161
-61 l93 -44 -23 -25 c-19 -20 -29 -23 -53 -18 -45 10 -124 6 -149 -7 -26 -13
-77 -60 -77 -70 0 -3 17 -3 38 1 137 25 276 -49 334 -175 28 -62 31 -171 6
-227 l-17 -37 -392 240 c-216 131 -398 244 -403 249 -16 16 78 104 164 156
l75 45 88 -6 c48 -2 117 -12 155 -21z m-2648 -174 c58 -21 98 -40 90 -43 -15
-6 -359 -67 -374 -67 -4 0 -6 4 -4 9 5 14 161 141 173 140 5 0 57 -17 115 -39z
m-521 -51 c113 -113 35 -351 -84 -257 -77 60 -88 236 -18 277 33 19 70 12 102
-20z m2134 -518 c125 -42 131 -48 72 -56 -28 -4 -103 -18 -167 -30 -100 -19
-120 -20 -129 -8 -7 7 -9 17 -5 21 28 27 123 101 132 101 5 1 49 -12 97 -28z
m-444 -96 c68 -58 82 -196 26 -255 -33 -34 -55 -37 -95 -13 -56 33 -91 136
-71 208 22 82 83 107 140 60z"/>
<path d="M8394 9188 c-33 -16 -44 -51 -44 -148 0 -86 1 -89 31 -114 l31 -26
295 0 295 0 29 29 c28 28 29 34 29 115 0 95 -11 129 -47 145 -32 15 -589 14
-619 -1z m442 -100 c-2 -7 -10 -30 -17 -50 -10 -32 -17 -38 -41 -38 -15 0 -28
1 -28 3 0 2 7 24 16 50 14 42 19 47 46 47 20 0 28 -4 24 -12z m74 9 c0 -2 -7
-24 -16 -50 -14 -41 -19 -47 -44 -47 l-28 0 16 50 c14 44 19 50 44 50 15 0 28
-1 28 -3z"/>
<path d="M8390 8755 l0 -45 80 0 80 0 0 45 0 45 -80 0 -80 0 0 -45z"/>
<path d="M8750 8755 l0 -45 95 0 95 0 0 45 0 45 -95 0 -95 0 0 -45z"/>
<path d="M8390 8525 l0 -45 80 0 80 0 0 45 0 45 -80 0 -80 0 0 -45z"/>
<path d="M8757 8564 c-4 -4 -7 -25 -7 -46 l0 -38 96 0 95 0 -3 43 -3 42 -85 3
c-47 1 -89 0 -93 -4z"/>
<path d="M8660 6910 c0 -24 34 -43 60 -35 40 13 15 55 -32 55 -21 0 -28 -5
-28 -20z"/>
<path d="M8829 6854 c-16 -20 6 -44 41 -44 21 0 29 6 32 23 3 13 0 24 -6 25
-6 0 -21 3 -33 5 -12 3 -27 -1 -34 -9z"/>
<path d="M8543 6804 c-10 -26 6 -44 37 -44 37 0 52 27 24 44 -27 16 -55 16
-61 0z"/>
<path d="M8700 6742 c0 -25 19 -42 47 -42 31 0 42 29 18 46 -28 20 -65 18 -65
-4z"/>
<path d="M6177 6912 c-44 -48 -5 -167 52 -160 55 6 66 104 16 154 -29 29 -46
30 -68 6z"/>
<path d="M7869 6293 c-8 -9 -14 -38 -14 -64 0 -77 59 -125 98 -81 39 43 4 162
-47 162 -13 0 -30 -7 -37 -17z"/>
</g>
</svg>
