<?xml version="1.0" standalone="no"?>
<!DOCTYPE svg PUBLIC "-//W3C//DTD SVG 20010904//EN"
 "http://www.w3.org/TR/2001/REC-SVG-20010904/DTD/svg10.dtd">
<svg version="1.0" xmlns="http://www.w3.org/2000/svg"
 width="338.000000pt" height="743.000000pt" viewBox="0 0 338.000000 743.000000"
 preserveAspectRatio="xMidYMid meet">

<g transform="translate(0.000000,743.000000) scale(0.100000,-0.100000)"
fill="#000000" stroke="none">
<path d="M0 3715 l0 -3715 1690 0 1690 0 0 3715 0 3715 -1690 0 -1690 0 0
-3715z m1720 3468 c25 3 52 8 62 12 10 4 16 1 15 -7 -1 -40 7 -63 49 -125 112
-166 105 -184 -97 -262 -58 -23 -127 -55 -153 -72 -54 -36 -109 -100 -131
-152 -18 -43 -19 -125 -4 -182 15 -55 77 -178 126 -252 l42 -63 -27 -5 c-15
-3 -49 -12 -76 -20 -28 -8 -51 -13 -52 -12 -1 1 -17 34 -36 72 -104 209 -140
388 -103 512 31 105 91 160 238 217 154 60 206 111 175 171 -7 13 -46 60 -85
104 -40 44 -73 82 -73 84 0 3 19 -2 43 -10 25 -9 60 -13 87 -10z m690 -273 c0
-5 -5 -10 -11 -10 -5 0 -7 5 -4 10 3 6 8 10 11 10 2 0 4 -4 4 -10z m260 -564
c0 -3 -4 -8 -10 -11 -5 -3 -10 -1 -10 4 0 6 5 11 10 11 6 0 10 -2 10 -4z m370
-146 c0 -5 -4 -10 -10 -10 -5 0 -10 5 -10 10 0 6 5 10 10 10 6 0 10 -4 10 -10z
m-680 -54 c0 -11 -19 -15 -25 -6 -3 5 1 10 9 10 9 0 16 -2 16 -4z m555 -6 c3
-5 1 -10 -4 -10 -6 0 -11 5 -11 10 0 6 2 10 4 10 3 0 8 -4 11 -10z m-645 -55
c0 -8 7 -15 16 -15 8 0 12 -5 9 -11 -5 -7 -14 -4 -26 7 -21 19 -25 34 -9 34 6
0 10 -7 10 -15z m-550 -35 c113 -21 225 -96 269 -179 12 -22 12 -22 -18 -7
-16 9 -34 16 -38 16 -4 -1 9 -10 29 -21 47 -24 61 -46 92 -137 23 -67 23 -71
6 -62 -33 17 -36 11 -4 -9 23 -14 34 -32 48 -79 29 -93 11 -230 -32 -247 -22
-8 -27 2 -14 30 23 51 1 22 -53 -69 -60 -100 -103 -150 -173 -198 -24 -16 -41
-32 -39 -35 5 -5 97 62 110 81 5 6 5 -4 2 -22 -5 -22 -2 -41 9 -57 9 -13 17
-41 18 -62 l1 -38 4 38 c3 27 9 37 19 35 11 -2 15 -22 18 -83 2 -57 9 -92 24
-121 24 -47 82 -102 124 -116 41 -15 35 -30 -9 -22 -53 9 -73 21 -111 63 l-34
36 28 -38 c27 -38 70 -67 99 -67 18 0 19 -8 2 -29 -9 -10 -11 -26 -6 -46 l7
-30 1 34 c1 31 22 60 45 61 5 0 5 -33 1 -77 -5 -43 -8 -91 -7 -106 1 -16 -12
-52 -28 -80 -20 -35 -30 -45 -30 -32 -1 12 -7 3 -15 -20 -8 -22 -15 -42 -15
-45 0 -13 53 60 76 103 14 27 28 46 31 43 12 -12 -43 -142 -75 -173 -38 -39
-55 -43 -44 -10 9 25 8 57 -7 217 -6 63 -11 128 -11 144 l0 28 -80 -4 c-44 -2
-80 0 -80 3 0 4 -3 22 -7 40 -6 32 -5 33 13 19 17 -13 -2 12 -43 58 -7 7 -13
24 -13 37 0 13 -3 26 -8 28 -4 3 -66 6 -137 7 -88 2 -166 10 -240 26 -153 31
-164 33 -168 20 -2 -6 -7 -8 -11 -5 -3 3 0 13 7 23 12 16 17 16 87 -3 41 -12
104 -23 140 -25 63 -5 64 -5 13 3 -89 15 -100 19 -157 72 -31 28 -56 46 -56
41 0 -6 19 -27 43 -48 41 -35 41 -36 12 -28 -16 4 -47 8 -67 8 -33 0 -38 3
-38 23 0 27 3 28 38 7 25 -15 26 -15 7 1 -49 41 -52 39 -59 -33 -4 -38 -4 -75
-1 -84 4 -9 -5 -38 -19 -65 l-25 -48 4 95 4 95 -10 -70 c-5 -38 -9 -92 -10
-120 l0 -50 -16 44 c-12 33 -13 49 -5 61 6 10 10 66 10 126 0 60 5 153 12 207
7 54 10 125 7 158 -4 47 -2 59 9 59 8 0 14 -6 14 -12 0 -10 2 -10 8 0 11 17
32 -28 33 -71 0 -18 4 -50 9 -72 7 -32 8 -26 4 30 -3 39 -7 80 -10 93 -8 39
15 24 40 -27 15 -29 28 -76 32 -117 5 -48 10 -62 15 -49 5 14 8 15 9 5 0 -8
15 -28 32 -45 l31 -30 -31 45 c-17 25 -34 61 -38 80 l-6 35 26 -41 c14 -23 40
-52 58 -66 42 -31 72 -47 35 -18 -25 20 -28 40 -6 40 6 0 8 -4 4 -9 -3 -5 0
-13 6 -17 8 -4 9 -3 5 4 -9 15 -7 15 44 -3 65 -23 72 -17 9 8 -119 47 -165 95
-238 247 -38 77 -41 91 -41 164 0 45 5 88 11 96 8 11 9 -5 6 -60 -3 -48 -2
-65 3 -47 12 40 15 98 6 124 -7 22 8 65 22 61 4 -1 26 10 49 24 57 37 151 68
242 78 l76 9 -85 -6 c-47 -3 -97 -6 -112 -7 -14 0 -24 -5 -21 -10 3 -4 -5 -5
-17 -1 -17 5 -21 4 -15 -6 6 -9 3 -11 -9 -6 -22 9 -59 -10 -50 -25 4 -7 3 -8
-4 -4 -6 4 -23 -1 -37 -10 -30 -20 -34 -2 -4 19 14 11 17 16 7 19 -9 3 -1 16
22 38 23 21 27 29 13 21 -13 -6 -23 -7 -23 -2 0 5 25 20 56 32 31 13 51 25 46
27 -6 2 -25 -4 -42 -13 -18 -9 -34 -14 -37 -12 -6 6 73 52 105 62 13 4 21 9
19 12 -3 2 -27 -5 -53 -16 -26 -12 -49 -20 -50 -18 -12 11 72 71 122 87 33 10
51 19 42 19 -9 1 -29 -4 -44 -9 -44 -17 -39 -3 8 21 88 45 158 56 248 39z
m592 -18 c-7 -2 -12 -13 -12 -25 0 -14 3 -18 8 -10 7 12 77 11 89 -1 3 -3 1
-6 -5 -6 -12 0 -17 -42 -6 -52 7 -8 44 3 44 13 0 5 -7 6 -15 3 -8 -4 -15 -2
-15 4 0 19 12 42 22 42 5 0 6 -6 2 -12 -4 -7 2 -4 14 6 12 11 22 25 22 33 0
22 14 15 32 -17 9 -17 13 -30 8 -30 -5 0 -13 8 -19 18 -9 16 -10 15 -10 -3 1
-11 -2 -29 -6 -40 -5 -16 -2 -21 14 -21 12 0 21 6 21 14 0 7 5 10 11 7 7 -5 4
-14 -8 -28 -16 -18 -16 -20 -1 -14 12 4 15 2 12 -8 -3 -7 -14 -15 -25 -18 -16
-4 -19 -2 -15 10 6 13 4 14 -9 3 -12 -10 -13 -15 -3 -21 6 -4 16 -5 20 -3 4 3
8 0 8 -5 0 -6 -5 -11 -12 -11 -7 0 -5 -5 5 -12 18 -14 41 -68 29 -68 -5 0 -14
6 -21 13 -10 10 -11 6 -5 -17 5 -20 3 -27 -4 -22 -6 3 -14 2 -17 -4 -4 -6 -3
-9 2 -8 4 2 18 -7 29 -18 19 -19 20 -24 7 -37 -10 -10 -12 -17 -4 -21 6 -4 14
0 17 8 9 24 26 19 19 -5 -4 -12 -3 -19 2 -16 5 3 17 -7 26 -23 17 -28 17 -31
-1 -67 -12 -25 -23 -37 -35 -35 -11 2 -17 -4 -17 -15 0 -10 -10 1 -21 25 -22
44 -50 59 -90 47 -12 -4 -19 -3 -16 2 3 5 -3 9 -14 9 -10 0 -19 -4 -19 -8 0
-4 7 -8 15 -8 12 0 13 -4 3 -25 -11 -25 -12 -25 -27 20 -21 58 -45 85 -76 85
-40 0 -54 -34 -60 -149 -2 -57 -6 -105 -7 -106 -2 -1 -16 -5 -33 -8 l-30 -6 3
74 c3 62 -2 89 -32 181 -34 103 -43 149 -16 84 12 -28 14 -29 26 -13 11 15 11
20 -3 31 -24 18 -2 15 25 -4 18 -12 22 -13 22 -1 0 7 -11 20 -25 27 -31 16
-31 18 -1 55 20 25 26 27 39 16 14 -11 22 -10 48 3 18 9 41 16 52 16 13 0 17
5 13 16 -3 9 -6 22 -6 30 0 10 -8 13 -27 9 -26 -6 -27 -5 -10 8 10 8 14 17 9
18 -5 2 -13 14 -16 27 -6 16 -3 22 9 22 13 0 14 4 5 20 -9 16 -8 20 5 20 8 0
15 -9 15 -20 0 -11 5 -20 11 -20 5 0 7 4 4 10 -9 15 14 52 28 43 8 -5 8 -8 -1
-11z m95 -14 c-3 -8 -6 -5 -6 6 -1 11 2 17 5 13 3 -3 4 -12 1 -19z m553 12 c0
-5 -2 -10 -4 -10 -3 0 -8 5 -11 10 -3 6 -1 10 4 10 6 0 11 -4 11 -10z m-276
-55 c-4 -8 -10 -12 -15 -9 -11 6 -2 24 11 24 5 0 7 -7 4 -15z m-454 -29 c0 -3
-4 -8 -10 -11 -5 -3 -10 -1 -10 4 0 6 5 11 10 11 6 0 10 -2 10 -4z m-25 -62
c-9 -9 -19 -13 -23 -10 -3 4 0 11 8 16 24 15 33 11 15 -6z m530 6 c3 -5 -1
-10 -10 -10 -9 0 -13 5 -10 10 3 6 8 10 10 10 2 0 7 -4 10 -10z m-165 -21 c0
-6 -4 -7 -10 -4 -5 3 -10 11 -10 16 0 6 5 7 10 4 6 -3 10 -11 10 -16z m-502
-55 c13 -9 12 -12 -4 -18 -10 -4 -15 -4 -12 0 4 4 1 16 -7 28 -8 11 -15 25
-15 31 0 5 6 1 12 -10 6 -11 18 -25 26 -31z m667 36 c-3 -5 -10 -10 -16 -10
-5 0 -9 5 -9 10 0 6 7 10 16 10 8 0 12 -4 9 -10z m-163 -29 c-11 -7 -10 -9 3
-15 9 -3 13 -10 10 -16 -10 -16 -22 -12 -28 9 -5 21 0 31 17 31 6 0 5 -4 -2
-9z m-22 -42 c0 -6 -4 -7 -10 -4 -5 3 -10 11 -10 16 0 6 5 7 10 4 6 -3 10 -11
10 -16z m280 17 c0 -3 -4 -8 -10 -11 -5 -3 -10 -1 -10 4 0 6 5 11 10 11 6 0
10 -2 10 -4z m-743 -22 c-3 -3 -12 -4 -19 -1 -8 3 -5 6 6 6 11 1 17 -2 13 -5z
m443 -30 c0 -16 -16 -19 -25 -4 -8 13 4 32 16 25 5 -4 9 -13 9 -21z m-1160 12
c0 -2 -7 -7 -16 -10 -8 -3 -12 -2 -9 4 6 10 25 14 25 6z m1267 -23 c-3 -3 -11
-2 -17 2 -9 6 -9 10 1 16 14 8 27 -7 16 -18z m-78 -52 c-1 -13 -2 -13 -6 2 -2
9 -9 17 -14 17 -5 0 -9 5 -9 11 0 8 5 8 15 -1 8 -7 14 -20 14 -29z m-269 -74
c10 -21 10 -21 -4 -3 -16 20 -36 14 -37 -12 0 -10 -3 -12 -5 -5 -7 16 15 55
26 48 6 -3 15 -16 20 -28z m6 -53 c-22 -16 -66 -19 -66 -5 0 6 5 13 12 17 7 4
8 3 4 -4 -11 -18 29 -15 44 3 7 9 16 13 19 9 3 -3 -3 -12 -13 -20z m167 -28
c9 -19 13 -37 9 -40 -3 -4 -11 8 -16 26 -14 42 -45 45 -59 5 -14 -42 -3 -61
34 -53 18 3 28 2 24 -4 -9 -15 -51 -12 -65 5 -23 27 14 110 44 99 7 -3 20 -20
29 -38z m127 14 c0 -5 -4 -10 -10 -10 -5 0 -10 5 -10 10 0 6 5 10 10 10 6 0
10 -4 10 -10z m-255 -20 c3 -11 4 -24 1 -29 -3 -5 1 -11 9 -15 22 -8 18 -44
-7 -60 -13 -8 -42 -18 -65 -22 l-43 -7 -2 47 c-1 25 -2 53 -2 62 -1 12 9 18
34 21 19 2 39 8 44 13 15 15 24 12 31 -10z m565 10 c0 -5 -4 -10 -10 -10 -5 0
-10 5 -10 10 0 6 5 10 10 10 6 0 10 -4 10 -10z m-45 -20 c3 -5 1 -10 -4 -10
-6 0 -11 5 -11 10 0 6 2 10 4 10 3 0 8 -4 11 -10z m-215 -20 c0 -5 -5 -10 -11
-10 -5 0 -7 5 -4 10 3 6 8 10 11 10 2 0 4 -4 4 -10z m-105 -18 c-3 -3 -11 0
-18 7 -9 10 -8 11 6 5 10 -3 15 -9 12 -12z m-35 -18 c0 -3 -11 -19 -25 -36
-30 -36 -31 -52 -5 -78 12 -12 20 -33 20 -54 0 -19 4 -37 8 -40 5 -3 6 8 4 25
-3 18 0 29 7 29 7 0 9 5 6 10 -4 6 10 10 33 10 36 0 41 4 57 36 15 32 15 37 1
60 -21 31 -41 30 -88 -2 -43 -30 -49 -51 -15 -58 12 -3 31 -7 42 -9 13 -3 9
-5 -11 -6 -42 -1 -72 22 -58 46 17 28 74 63 104 63 32 0 65 -34 74 -76 5 -23
2 -35 -15 -50 -45 -40 -65 -124 -37 -152 18 -18 69 -14 106 8 18 11 34 20 35
20 8 0 -11 -99 -25 -131 -20 -46 -96 -109 -132 -109 -15 0 -57 8 -94 17 l-67
18 40 7 c32 5 29 6 -16 3 -52 -3 -59 -1 -85 26 -15 16 -32 29 -38 29 -5 0 5
-16 24 -35 38 -39 38 -39 -55 -36 -31 2 -72 13 -106 30 -52 25 -56 28 -43 46
17 23 18 97 2 113 -15 15 -11 18 32 26 33 6 37 3 54 -28 10 -19 30 -45 44 -58
21 -19 20 -15 -9 25 -32 47 -34 53 -35 143 l-1 94 29 0 c16 0 44 6 62 14 l34
14 4 -41 c3 -23 1 -48 -5 -54 -7 -9 -4 -13 8 -13 15 0 16 8 11 71 -7 70 -7 71
16 63 34 -11 72 -6 83 11 10 15 25 20 25 9z m100 -70 c0 -5 -7 -19 -15 -30
-14 -17 -14 -17 -3 10 10 24 10 30 -5 41 -9 6 -14 15 -10 18 7 8 32 -22 33
-39z m-390 -28 c0 -13 3 -31 6 -40 4 -10 1 -16 -9 -16 -8 0 -21 -7 -28 -17
-13 -15 -12 -15 8 -2 27 17 36 9 27 -25 -4 -18 -15 -28 -33 -32 -14 -3 -43
-12 -64 -20 -52 -20 -60 -18 -47 9 l11 22 -18 -22 c-18 -22 -73 -42 -73 -27 0
24 58 99 111 143 68 57 109 67 109 27z m539 0 c20 -24 24 -79 7 -101 -12 -16
-15 -17 -16 -4 0 21 -31 48 -65 57 l-27 8 39 27 c44 31 47 32 62 13z m61 -57
c18 -35 20 -51 15 -107 -10 -94 -60 -200 -96 -202 -15 0 21 125 46 164 10 14
13 26 7 26 -18 0 -21 40 -5 71 9 18 13 42 9 60 -8 40 0 36 24 -12z m-1670 -24
c0 -23 3 -27 10 -15 11 17 5 -74 -11 -180 -6 -36 -10 -108 -9 -160 3 -123 2
-131 -14 -95 -7 17 -21 37 -31 45 -18 14 -18 14 -1 -12 20 -30 19 -31 -39 -29
-26 1 -27 -1 -10 -8 11 -5 34 -10 50 -11 l30 -2 -30 -9 c-56 -18 -112 -3 -175
47 -64 50 -90 93 -90 148 0 42 19 50 21 9 1 -24 2 -22 8 9 8 37 54 108 71 108
5 0 11 -8 13 -17 3 -10 5 -4 6 13 1 22 8 34 26 44 13 7 28 23 31 34 9 28 43
76 54 76 5 0 11 -17 13 -37 3 -34 4 -34 3 6 0 31 5 47 16 55 10 6 19 8 22 6 2
-3 -2 -39 -9 -80 -8 -41 -14 -84 -14 -95 1 -33 38 137 39 175 0 26 3 31 10 20
5 -8 10 -28 10 -45z m910 36 c0 -4 -8 -19 -19 -32 -10 -13 -27 -42 -39 -64
-11 -22 -30 -46 -42 -53 -20 -12 -20 -11 -11 7 6 11 15 23 21 26 5 3 24 32 42
65 30 55 48 74 48 51z m633 -30 c39 -15 45 -50 13 -78 -56 -48 -100 -15 -75
56 12 33 23 37 62 22z m-537 -138 c5 -26 2 -46 -11 -70 -16 -29 -23 -33 -59
-33 l-41 0 0 65 c0 63 1 65 25 66 14 0 34 4 45 8 27 11 33 6 41 -36z m-737
-13 c7 0 9 -4 6 -10 -11 -17 -23 -11 -46 23 l-23 32 25 -22 c14 -13 31 -23 38
-23z m611 -36 c0 -11 -6 -28 -12 -37 -12 -14 -17 -14 -45 -2 -36 15 -45 52
-20 74 10 8 14 7 14 -4 0 -8 -4 -12 -9 -9 -4 3 -8 -6 -8 -19 0 -19 7 -27 27
-31 17 -5 29 -3 34 6 17 27 5 68 -20 68 -14 0 -14 2 -1 10 17 10 39 -20 40
-56z m808 -53 c2 -42 -39 -110 -78 -131 -11 -6 -17 -16 -14 -22 4 -7 2 -8 -5
-4 -8 5 0 20 26 47 21 22 37 44 35 50 -1 6 2 8 7 4 12 -7 26 38 18 57 -4 8 -6
7 -6 -4 -1 -10 -6 -18 -11 -18 -6 0 -4 13 5 30 9 17 17 30 19 30 1 0 3 -17 4
-39z m-736 -58 l1 -38 4 38 c5 46 21 48 104 10 41 -20 57 -32 54 -43 -3 -9 1
-7 10 4 8 11 16 18 18 15 6 -10 46 -147 51 -175 3 -18 8 -43 12 -58 16 -64
-81 -5 -138 83 -15 25 -28 41 -28 35 0 -14 39 -76 67 -106 l26 -27 -29 4 c-16
2 -32 4 -36 4 -3 1 -30 20 -60 43 -47 36 -50 37 -23 9 17 -18 44 -40 60 -49
25 -14 27 -17 11 -20 -10 -2 -23 3 -28 12 -5 9 -19 21 -31 27 -21 11 -21 10 3
-16 20 -22 21 -27 7 -22 -10 4 -23 7 -28 7 -17 0 -91 74 -108 109 -21 42 -34
129 -25 166 6 22 11 25 55 25 l49 0 2 -37z m1158 33 c0 -3 -4 -8 -10 -11 -5
-3 -10 -1 -10 4 0 6 5 11 10 11 6 0 10 -2 10 -4z m-549 -37 c-9 -22 -10 -22
-10 -3 -1 11 2 24 6 27 12 12 14 0 4 -24z m50 -17 c-22 -32 -50 -57 -55 -51
-2 2 5 18 15 34 11 17 19 24 20 15 0 -9 4 -5 9 8 5 12 14 22 20 22 6 0 2 -13
-9 -28z m-2067 -23 c-33 -74 -42 -84 -66 -81 -23 4 -23 3 -3 -12 16 -12 18
-17 8 -27 -20 -20 -36 3 -28 39 6 30 90 130 100 120 3 -2 -2 -20 -11 -39z
m1976 16 c-13 -14 -33 -25 -44 -25 -16 1 -14 4 10 14 18 8 35 19 38 25 4 6 10
11 13 11 4 0 -4 -11 -17 -25z m-254 -6 c10 -12 32 -28 47 -36 16 -8 27 -17 24
-20 -7 -6 -67 29 -67 39 0 4 -6 8 -14 8 -7 0 -19 7 -26 15 -20 25 13 19 36 -6z
m431 -11 c-3 -7 -5 -2 -5 12 0 14 2 19 5 13 2 -7 2 -19 0 -25z m-459 -9 c20
-18 54 -40 76 -50 23 -10 35 -19 28 -19 -7 0 -26 7 -41 15 -16 8 -32 11 -36 7
-5 -4 -5 -1 -1 6 4 7 2 12 -6 13 -27 3 -34 4 -54 16 -12 7 -24 19 -28 28 -10
26 24 17 62 -16z m167 11 c39 -9 39 -9 -10 -4 -27 3 -57 10 -65 15 -16 10 -2
8 75 -11z m275 -3 c0 -2 -15 -16 -32 -33 l-33 -29 29 33 c28 30 36 37 36 29z
m-1593 -39 c-3 -8 -6 -5 -6 6 -1 11 2 17 5 13 3 -3 4 -12 1 -19z m1587 -3 c-9
-14 -18 -25 -21 -25 -5 0 5 18 20 38 17 22 18 13 1 -13z m-242 -8 c-40 -6 -68
-5 -74 1 -6 6 -1 8 14 5 13 -2 41 0 63 5 22 5 45 6 50 3 6 -3 -19 -10 -53 -14z
m95 17 c-3 -3 -12 -4 -19 -1 -8 3 -5 6 6 6 11 1 17 -2 13 -5z m-292 -25 c20
-12 34 -24 31 -26 -5 -5 -76 35 -76 43 0 7 9 4 45 -17z m472 -31 c-2 -13 -4
-5 -4 17 -1 22 1 32 4 23 2 -10 2 -28 0 -40z m109 38 c18 -18 18 -26 0 -26 -7
0 -16 9 -19 20 -6 24 -1 25 19 6z m-266 -6 c-8 -5 -26 -9 -40 -9 -23 1 -23 2
5 9 43 11 52 11 35 0z m197 -12 c-3 -8 -6 -5 -6 6 -1 11 2 17 5 13 3 -3 4 -12
1 -19z m-1607 4 c0 -5 -7 -17 -15 -28 -14 -18 -14 -17 -4 9 12 27 19 34 19 19z
m-597 -29 c5 -27 2 -41 -7 -32 -11 10 -17 59 -8 59 5 0 12 -12 15 -27z m1936
23 c-2 -2 -22 -6 -44 -9 -27 -4 -35 -3 -25 3 14 9 79 15 69 6z m-1905 -22 c3
-8 2 -12 -4 -9 -6 3 -10 10 -10 16 0 14 7 11 14 -7z m1667 -11 l24 -26 -27 19
c-15 10 -28 22 -28 27 0 12 5 8 31 -20z m-1090 -6 c-10 -9 -11 -8 -5 6 3 10 9
15 12 12 3 -3 0 -11 -7 -18z m174 13 c27 -7 27 -8 5 -8 -14 0 -36 4 -50 8 -20
6 -21 8 -5 8 11 0 34 -4 50 -8z m1336 -3 c-6 -8 -8 -17 -4 -21 4 -4 0 -4 -10
0 -17 6 -17 7 0 20 23 17 28 18 14 1z m-2230 -45 c-6 -2 -9 -8 -5 -13 3 -5 0
-9 -6 -9 -6 0 -8 10 -4 28 10 41 19 50 22 22 2 -13 -1 -26 -7 -28z m1052 31
c-52 -3 -63 -7 -68 -24 -4 -11 -9 -18 -12 -16 -2 3 0 15 7 26 9 18 19 21 73
19 l62 -2 -62 -3z m74 -15 c-3 -8 -6 -5 -6 6 -1 11 2 17 5 13 3 -3 4 -12 1
-19z m1223 12 c0 -5 -4 -10 -10 -10 -5 0 -10 5 -10 10 0 6 5 10 10 10 6 0 10
-4 10 -10z m-1130 -22 c0 -13 3 -34 6 -48 4 -21 3 -21 -9 5 -8 17 -12 36 -9
43 2 7 -5 12 -22 12 -22 0 -27 -6 -37 -44 -6 -25 -17 -47 -24 -50 -11 -4 -11
0 0 22 7 15 18 39 24 55 8 21 17 27 41 27 24 0 30 -4 30 -22z m751 -108 c28
-7 69 -9 95 -5 48 7 146 54 182 87 17 17 22 18 22 7 0 -27 -71 -99 -124 -127
-44 -23 -63 -27 -136 -27 -141 0 -205 45 -226 159 l-7 38 72 -60 c53 -44 85
-63 122 -72z m272 102 c-17 -15 -46 -35 -65 -45 l-33 -19 25 21 c14 12 37 29
53 38 15 10 27 21 27 25 0 4 6 8 13 8 6 -1 -2 -13 -20 -28z m-2182 -15 c-16
-16 -26 0 -10 19 9 11 15 12 17 4 2 -6 -1 -17 -7 -23z m2246 11 c-3 -8 -6 -5
-6 6 -1 11 2 17 5 13 3 -3 4 -12 1 -19z m-2177 2 c0 -5 -4 -10 -10 -10 -5 0
-10 5 -10 10 0 6 5 10 10 10 6 0 10 -4 10 -10z m515 -40 c-14 -27 -28 -50 -30
-50 -3 0 6 23 20 50 14 28 28 50 30 50 3 0 -6 -22 -20 -50z m287 10 c-9 -21
-18 -35 -20 -30 -3 9 25 70 33 70 2 0 -4 -18 -13 -40z m928 25 c7 -9 19 -14
27 -11 8 3 11 2 8 -3 -3 -5 5 -17 17 -25 12 -9 17 -16 11 -16 -6 0 -30 16 -53
35 -23 19 -38 35 -32 35 5 0 15 -7 22 -15z m-1134 -13 c-10 -2 -22 0 -28 6 -6
6 0 7 19 4 21 -5 23 -7 9 -10z m389 -11 c-3 -12 -10 -21 -15 -21 -4 0 -3 11 3
24 14 29 22 27 12 -3z m-55 -5 c8 -2 -13 -4 -48 -5 -35 0 -61 3 -58 7 4 7 70
6 106 -2z m1232 -8 c-7 -7 -12 -8 -12 -2 0 6 3 14 7 17 3 4 9 5 12 2 2 -3 -1
-11 -7 -17z m-2222 8 c0 -3 -4 -8 -10 -11 -5 -3 -10 -1 -10 4 0 6 5 11 10 11
6 0 10 -2 10 -4z m610 -11 c0 -8 -4 -15 -10 -15 -5 0 -7 7 -4 15 4 8 8 15 10
15 2 0 4 -7 4 -15z m137 9 c-3 -3 -12 -4 -19 -1 -8 3 -5 6 6 6 11 1 17 -2 13
-5z m46 -11 c-7 -2 -19 -2 -25 0 -7 3 -2 5 12 5 14 0 19 -2 13 -5z m-142 -21
c-7 -2 -18 1 -23 6 -8 8 -4 9 13 5 13 -4 18 -8 10 -11z m46 12 c-3 -3 -12 -4
-19 -1 -8 3 -5 6 6 6 11 1 17 -2 13 -5z m246 -11 c-13 -2 -35 -2 -50 0 -16 2
-5 4 22 4 28 0 40 -2 28 -4z m1022 -8 c33 0 71 3 85 7 14 4 9 1 -10 -8 -41
-19 -143 -15 -163 6 -10 11 -8 11 8 4 11 -5 47 -9 80 -9z m231 -24 c-15 -28
-15 -31 2 -40 9 -6 12 -11 5 -11 -6 0 -9 -8 -6 -19 4 -16 -1 -18 -29 -17 -19
0 -42 8 -50 17 -15 15 -12 19 33 53 27 20 49 42 49 48 0 6 3 9 6 6 3 -4 -2
-20 -10 -37z m164 13 c0 -8 -4 -12 -10 -9 -5 3 -10 13 -10 21 0 8 5 12 10 9 6
-3 10 -13 10 -21z m-1663 10 c-3 -3 -12 -4 -19 -1 -8 3 -5 6 6 6 11 1 17 -2
13 -5z m68 -4 c-11 -5 -27 -9 -35 -9 -9 0 -8 4 5 9 11 5 27 9 35 9 9 0 8 -4
-5 -9z m262 4 c-3 -3 -12 -4 -19 -1 -8 3 -5 6 6 6 11 1 17 -2 13 -5z m120 -26
c-3 -7 -5 -2 -5 12 0 14 2 19 5 13 2 -7 2 -19 0 -25z m30 10 c-3 -8 -6 -5 -6
6 -1 11 2 17 5 13 3 -3 4 -12 1 -19z m-347 -3 c0 -8 -5 -15 -11 -15 -5 0 -7 4
-4 10 4 6 -7 8 -27 5 -29 -4 -30 -4 -8 4 38 14 50 13 50 -4z m1427 -7 c-3 -8
-6 -5 -6 6 -1 11 2 17 5 13 3 -3 4 -12 1 -19z m38 2 c3 -5 1 -10 -4 -10 -6 0
-11 5 -11 10 0 6 2 10 4 10 3 0 8 -4 11 -10z m-1435 -15 c0 -8 -4 -15 -10 -15
-5 0 -7 7 -4 15 4 8 8 15 10 15 2 0 4 -7 4 -15z m307 -27 c-3 -7 -5 -2 -5 12
0 14 2 19 5 13 2 -7 2 -19 0 -25z m-254 15 c-7 -2 -21 -2 -30 0 -10 3 -4 5 12
5 17 0 24 -2 18 -5z m182 -3 c4 -6 -24 -9 -77 -8 l-83 2 75 6 c41 4 76 7 77 8
1 1 5 -2 8 -8z m40 -20 c-6 -20 -12 -20 -147 -18 -94 2 -143 7 -145 14 -3 8 9
9 39 3 24 -4 87 -8 141 -9 91 0 99 2 104 20 3 12 8 19 10 16 3 -2 2 -14 -2
-26z m55 -41 c-17 -69 -25 -54 -9 18 6 32 14 52 16 45 3 -7 -1 -35 -7 -63z
m1070 51 c0 -5 -2 -10 -4 -10 -3 0 -8 5 -11 10 -3 6 -1 10 4 10 6 0 11 -4 11
-10z m-1467 -7 c-7 -2 -19 -2 -25 0 -7 3 -2 5 12 5 14 0 19 -2 13 -5z m567
-42 c0 -43 5 -40 -112 -57 -53 -7 -53 -7 -37 47 13 40 20 43 112 47 37 2 37 2
37 -37z m-803 7 c-3 -8 -6 -5 -6 6 -1 11 2 17 5 13 3 -3 4 -12 1 -19z m603 3
c0 -10 -6 -21 -14 -24 -11 -4 -11 -1 -2 19 13 29 16 30 16 5z m450 9 c0 -5 -4
-10 -10 -10 -5 0 -10 5 -10 10 0 6 5 10 10 10 6 0 10 -4 10 -10z m470 -4 c-16
-16 -81 -35 -67 -20 7 7 60 31 77 33 2 1 -2 -5 -10 -13z m215 -5 c-3 -6 -11
-11 -17 -11 -6 0 -6 6 2 15 14 17 26 13 15 -4z m-1757 -66 l1 -20 -9 20 c-5
11 -8 34 -8 50 l0 30 8 -30 c4 -16 8 -39 8 -50z m313 47 c-7 -2 -18 1 -23 6
-8 8 -4 9 13 5 13 -4 18 -8 10 -11z m1259 8 c0 -5 -4 -10 -10 -10 -5 0 -10 5
-10 10 0 6 5 10 10 10 6 0 10 -4 10 -10z m-1047 -7 c-34 -2 -93 -2 -130 0 -37
2 -9 3 62 3 72 0 102 -1 68 -3z m904 0 c-20 -2 -52 -2 -70 0 -17 2 0 4 38 4
39 0 53 -2 32 -4z m193 -13 c0 -5 -7 -10 -16 -10 -14 0 -14 -1 0 -16 9 -8 15
-25 15 -37 -1 -17 -2 -18 -6 -4 -7 27 -21 20 -28 -15 -6 -24 -3 -35 11 -45 18
-13 8 -19 -12 -5 -16 10 -26 45 -16 51 5 3 12 16 16 29 6 17 4 22 -11 20 -33
-2 -54 2 -49 11 3 4 17 6 31 3 14 -2 25 0 25 6 0 6 8 13 18 15 9 3 18 5 20 6
1 0 2 -3 2 -9z m45 -10 c3 -5 -1 -10 -9 -10 -9 0 -16 5 -16 10 0 6 4 10 9 10
6 0 13 -4 16 -10z m105 -10 c0 -5 -4 -10 -10 -10 -5 0 -10 5 -10 10 0 6 5 10
10 10 6 0 10 -4 10 -10z m-215 -42 c6 -4 2 -8 -7 -8 -10 0 -18 7 -18 17 0 9 3
12 8 7 4 -5 12 -12 17 -16z m505 2 c0 -5 -5 -10 -11 -10 -5 0 -7 5 -4 10 3 6
8 10 11 10 2 0 4 -4 4 -10z m-1352 -34 c124 12 117 14 118 -34 l1 -42 -4 39
-4 39 -57 -6 c-104 -12 -127 -9 -128 13 -1 16 0 17 3 2 4 -16 12 -17 71 -11z
m792 9 c7 -9 10 -18 7 -22 -8 -7 -37 15 -37 28 0 14 16 11 30 -6z m46 -20 c-3
-8 -1 -15 4 -15 14 0 12 -32 -4 -53 -12 -16 -14 -16 -20 -1 -8 20 2 36 16 28
6 -4 4 3 -5 17 -21 29 -21 39 -1 39 10 0 14 -6 10 -15z m78 -1 c5 -12 2 -15
-10 -10 -8 3 -18 6 -20 6 -3 0 -2 5 1 10 9 15 22 12 29 -6z m46 -4 c0 -5 -2
-10 -4 -10 -3 0 -8 5 -11 10 -3 6 -1 10 4 10 6 0 11 -4 11 -10z m50 -4 c0 -2
-7 -9 -15 -16 -12 -10 -15 -10 -15 4 0 9 7 16 15 16 8 0 15 -2 15 -4z m-701
-47 c2 30 11 2 16 -51 4 -54 3 -58 -36 -100 l-40 -43 35 54 c20 29 36 58 36
63 0 5 -19 -19 -43 -54 -95 -139 -314 -268 -456 -268 -26 0 -71 7 -101 15 -30
9 -98 23 -150 31 -118 20 -155 35 -215 88 -43 37 -48 47 -52 92 -3 29 -1 54 5
58 5 3 50 -34 100 -83 116 -114 170 -142 290 -149 141 -8 241 23 377 117 33
22 65 41 70 41 26 0 91 80 111 136 39 108 36 103 44 69 4 -16 8 -24 9 -16z
m501 31 c0 -5 -4 -10 -10 -10 -5 0 -10 5 -10 10 0 6 5 10 10 10 6 0 10 -4 10
-10z m-150 -20 c0 -5 -5 -10 -11 -10 -5 0 -7 5 -4 10 3 6 8 10 11 10 2 0 4 -4
4 -10z m497 -32 c-3 -8 -6 -5 -6 6 -1 11 2 17 5 13 3 -3 4 -12 1 -19z m-1734
-138 c54 -46 125 -91 144 -90 4 1 -10 10 -32 22 -48 25 -107 69 -101 75 2 3
15 -2 28 -11 13 -8 64 -25 113 -37 126 -30 239 -23 412 27 23 6 26 -7 8 -35
-8 -14 54 25 65 40 11 15 80 38 80 27 0 -18 -76 -85 -140 -122 -91 -53 -159
-71 -275 -70 -135 1 -185 24 -312 148 -90 89 -93 93 -93 136 l1 45 22 -52 c15
-37 39 -68 80 -103z m1437 140 c0 -5 -5 -10 -11 -10 -5 0 -7 5 -4 10 3 6 8 10
11 10 2 0 4 -4 4 -10z m-730 -70 c0 -23 -18 -32 -110 -53 -55 -12 -66 -12 -73
0 -5 8 -6 19 -3 26 2 7 5 4 5 -5 1 -12 9 -18 27 -18 14 0 23 3 21 8 -3 4 18 8
46 10 54 2 81 17 73 39 -3 7 -1 13 4 13 6 0 10 -9 10 -20z m-844 -17 c-10 -10
-19 5 -10 18 6 11 8 11 12 0 2 -7 1 -15 -2 -18z m1669 17 c3 -5 1 -10 -4 -10
-6 0 -11 5 -11 10 0 6 2 10 4 10 3 0 8 -4 11 -10z m-1524 -17 c13 -16 12 -17
-3 -4 -17 13 -22 21 -14 21 2 0 10 -8 17 -17z m107 10 c-10 -2 -26 -2 -35 0
-10 3 -2 5 17 5 19 0 27 -2 18 -5z m127 -3 c-3 -5 -25 -9 -48 -8 l-42 1 45 7
c25 4 46 8 48 8 2 1 0 -2 -3 -8z m193 3 c-32 -2 -86 -2 -120 0 -35 2 -9 3 57
3 66 0 94 -1 63 -3z m-384 -29 c3 -8 2 -12 -4 -9 -6 3 -10 10 -10 16 0 14 7
11 14 -7z m33 -16 c-3 -8 -6 -5 -6 6 -1 11 2 17 5 13 3 -3 4 -12 1 -19z m826
-86 c-3 -19 -2 -23 5 -14 14 20 23 -9 29 -93 4 -56 1 -80 -16 -123 -28 -70
-26 -80 3 -17 23 49 24 49 31 23 16 -61 -52 -216 -89 -202 -8 3 -17 1 -21 -5
-4 -7 1 -8 12 -4 16 6 17 5 4 -13 -8 -10 7 1 34 26 l48 45 -20 -35 c-48 -80
-140 -120 -234 -102 -46 9 -129 83 -159 142 -13 25 -36 64 -51 87 -27 39 -31
41 -67 36 -20 -3 -48 -16 -62 -28 -14 -13 -52 -37 -85 -53 -33 -17 -56 -31
-51 -32 4 0 31 11 58 25 27 14 54 23 59 19 5 -3 9 -1 9 5 0 12 28 41 40 41 10
0 2 -29 -33 -123 -28 -71 -55 -113 -121 -187 l-41 -45 43 40 c23 21 42 33 42
26 0 -14 -49 -65 -90 -94 -23 -16 -23 -17 -2 -6 40 18 102 80 102 100 0 20 50
103 57 96 5 -6 -11 -67 -37 -144 -39 -113 -139 -191 -256 -201 -77 -6 -122 9
-172 56 -53 49 -65 107 -59 262 7 163 5 152 27 140 31 -17 34 -11 6 11 -31 24
-33 57 -10 125 10 31 14 62 9 90 -5 37 8 86 30 112 2 2 20 -13 41 -33 37 -34
222 -136 209 -115 -4 6 -21 17 -38 24 -18 8 -25 15 -17 15 20 0 130 -22 210
-44 96 -26 185 -17 282 27 87 41 154 84 216 141 23 22 42 35 42 30 0 -5 -34
-39 -75 -74 -41 -35 -75 -64 -75 -66 0 -1 6 -5 13 -9 6 -4 9 -4 5 0 -3 4 28
38 71 75 42 38 90 85 106 105 l30 38 6 -37 c3 -20 4 -48 2 -63z m617 88 c0 -5
-4 -10 -10 -10 -5 0 -10 5 -10 10 0 6 5 10 10 10 6 0 10 -4 10 -10z m-120 -4
c0 -3 -4 -8 -10 -11 -5 -3 -10 -1 -10 4 0 6 5 11 10 11 6 0 10 -2 10 -4z
m-1563 -28 c-3 -8 -6 -5 -6 6 -1 11 2 17 5 13 3 -3 4 -12 1 -19z m355 2 c-19
-4 -46 -4 -60 0 -21 6 -13 8 33 8 51 0 55 -1 27 -8z m288 -2 c-14 -5 -65 -11
-115 -12 -49 0 -92 -4 -95 -8 -3 -4 -26 -4 -50 2 l-45 9 40 -1 c22 0 47 2 55
5 8 4 51 8 95 10 44 2 94 4 110 4 30 2 30 2 5 -9z m125 -7 c-3 -6 -11 -11 -17
-11 -6 0 -6 6 2 15 14 17 26 13 15 -4z m885 9 c0 -5 -2 -10 -4 -10 -3 0 -8 5
-11 10 -3 6 -1 10 4 10 6 0 11 -4 11 -10z m60 -44 c0 -3 -4 -8 -10 -11 -5 -3
-10 -1 -10 4 0 6 5 11 10 11 6 0 10 -2 10 -4z m45 -16 c3 -5 1 -10 -4 -10 -6
0 -11 5 -11 10 0 6 2 10 4 10 3 0 8 -4 11 -10z m-575 -50 c0 -5 -2 -10 -4 -10
-3 0 -8 5 -11 10 -3 6 -1 10 4 10 6 0 11 -4 11 -10z m-1192 -87 c-3 -16 -9
-37 -13 -47 -6 -15 -5 -17 5 -11 9 6 11 4 5 -4 -4 -7 -13 -72 -20 -145 l-13
-131 3 115 c1 63 6 126 10 140 5 20 4 22 -5 10 -9 -12 -10 -10 -5 10 11 42 29
90 33 90 2 0 2 -12 0 -27z m1442 7 c0 -5 -4 -10 -10 -10 -5 0 -10 5 -10 10 0
6 5 10 10 10 6 0 10 -4 10 -10z m-292 -260 l-1 -45 -7 45 c-6 38 -7 40 -8 13
-1 -19 -13 -43 -28 -60 l-25 -28 19 30 c11 17 23 53 27 80 6 39 9 46 16 30 4
-11 7 -40 7 -65z m467 50 c-3 -5 -10 -10 -16 -10 -5 0 -9 5 -9 10 0 6 7 10 16
10 8 0 12 -4 9 -10z m-514 -147 c-12 -20 -14 -14 -5 12 4 9 9 14 11 11 3 -2 0
-13 -6 -23z m-41 -3 c-13 -11 -25 -20 -28 -20 -3 0 3 9 13 20 10 11 23 20 28
20 6 0 0 -9 -13 -20z m-1095 -44 c5 -34 4 -46 -4 -42 -6 4 -11 28 -11 53 0 58
7 53 15 -11z m1050 14 c-3 -5 -12 -10 -18 -10 -7 0 -6 4 3 10 19 12 23 12 15
0z m79 -21 c-16 -17 -42 -37 -59 -45 l-30 -15 30 23 c16 13 41 33 55 45 36 32
39 28 4 -8z m-24 16 c0 -2 -13 -11 -30 -20 -38 -19 -40 -11 -2 9 31 17 32 18
32 11z m-145 -15 c-33 -4 -64 -3 -69 2 -6 4 21 7 60 7 l69 -2 -60 -7z m219
-22 c9 -36 7 -107 -4 -129 -6 -10 -20 -19 -32 -19 -37 0 -97 22 -117 44 l-21
22 60 27 c33 16 67 39 76 53 20 30 30 30 38 2z m-689 -173 c-3 -63 -57 -217
-89 -254 -34 -39 -118 -71 -186 -71 -81 0 -104 11 -123 57 -12 30 -37 165 -37
199 0 2 19 -7 41 -22 86 -54 225 -41 311 29 28 23 58 53 67 67 9 14 -12 -1
-47 -32 -74 -68 -112 -81 -218 -77 -69 4 -84 8 -121 34 -23 17 -44 38 -46 48
-7 23 -3 22 30 -9 42 -39 85 -54 158 -54 83 0 152 30 215 95 24 25 45 45 46
45 1 0 1 -25 -1 -55z m48 -12 c-7 -2 -19 -2 -25 0 -7 3 -2 5 12 5 14 0 19 -2
13 -5z m52 -13 c3 -6 -1 -7 -9 -4 -18 7 -21 14 -7 14 6 0 13 -4 16 -10z m-60
-21 c11 -16 1 -19 -13 -3 -7 8 -8 14 -3 14 5 0 13 -5 16 -11z m33 -14 c-3 -3
-9 2 -12 12 -6 14 -5 15 5 6 7 -7 10 -15 7 -18z m112 -20 c0 -5 -5 -3 -10 5
-5 8 -10 20 -10 25 0 6 5 3 10 -5 5 -8 10 -19 10 -25z m90 10 c7 -4 9 -17 5
-34 -3 -14 -9 -78 -13 -141 -8 -125 -26 -176 -83 -236 -16 -17 -27 -32 -25
-35 2 -2 -11 -4 -29 -4 -42 0 -56 13 -62 60 -5 35 -4 36 16 25 12 -6 21 -7 21
-2 0 6 -9 12 -20 15 -11 3 -20 9 -20 14 0 11 61 74 95 97 46 32 65 74 65 147
0 42 -5 72 -15 85 -8 10 -15 22 -15 25 0 8 62 -5 80 -16z m-263 -17 c-3 -8 -6
-5 -6 6 -1 11 2 17 5 13 3 -3 4 -12 1 -19z m43 -23 c0 -8 -2 -15 -4 -15 -2 0
-6 7 -10 15 -3 8 -1 15 4 15 6 0 10 -7 10 -15z m235 -105 l-15 -45 6 63 c6 79
18 111 22 62 1 -19 -4 -55 -13 -80z m-75 79 c0 -6 -4 -7 -10 -4 -5 3 -10 11
-10 16 0 6 5 7 10 4 6 -3 10 -11 10 -16z m-220 -12 c0 -13 -6 -24 -13 -24 -11
0 -11 6 -3 24 14 29 16 29 16 0z m27 1 c-3 -8 -6 -5 -6 6 -1 11 2 17 5 13 3
-3 4 -12 1 -19z m123 -43 c0 -5 -5 -3 -10 5 -5 8 -10 20 -10 25 0 6 5 3 10 -5
5 -8 10 -19 10 -25z m-109 2 c-10 -9 -11 -8 -5 6 3 10 9 15 12 12 3 -3 0 -11
-7 -18z m-59 -15 c-7 -2 -12 -10 -12 -17 0 -8 -4 -16 -10 -20 -5 -3 -5 7 1 25
7 18 15 27 22 23 8 -5 8 -8 -1 -11z m225 -24 c-3 -8 -6 -5 -6 6 -1 11 2 17 5
13 3 -3 4 -12 1 -19z m-7 -32 c0 -2 -8 -10 -17 -17 -16 -13 -17 -12 -4 4 13
16 21 21 21 13z m-97 -56 c-3 -12 -8 -19 -11 -16 -5 6 5 36 12 36 2 0 2 -9 -1
-20z m-435 -55 c-3 -3 -9 2 -12 12 -6 14 -5 15 5 6 7 -7 10 -15 7 -18z m422
21 c0 -2 -17 -14 -37 -26 -28 -16 -33 -17 -23 -5 8 10 23 21 35 25 25 11 25
11 25 6z m-347 -13 c-13 -2 -33 -2 -45 0 -13 2 -3 4 22 4 25 0 35 -2 23 -4z
m527 -30 c-11 -17 -11 -17 -6 0 3 10 6 24 7 30 0 9 2 9 5 0 3 -7 0 -20 -6 -30z
m-20 -43 c-6 -11 -13 -20 -16 -20 -2 0 0 9 6 20 6 11 13 20 16 20 2 0 0 -9 -6
-20z m-300 6 c0 -2 -7 -7 -16 -10 -8 -3 -12 -2 -9 4 6 10 25 14 25 6z m-90
-22 c0 -8 -19 -13 -24 -6 -3 5 1 9 9 9 8 0 15 -2 15 -3z m370 -17 c0 -2 -12
-14 -27 -28 l-28 -24 24 28 c23 25 31 32 31 24z m-383 -23 c-3 -3 -12 -4 -19
-1 -8 3 -5 6 6 6 11 1 17 -2 13 -5z m-344 -1551 c17 -19 25 -37 23 -53 -5 -33
-16 -60 -26 -60 -10 0 -80 77 -80 88 0 4 7 -1 14 -11 8 -11 20 -15 32 -11 13
4 15 3 7 -3 -10 -7 -7 -13 8 -27 20 -17 21 -17 17 1 -2 10 3 23 10 29 12 9 9
16 -16 42 -17 18 -28 32 -24 32 5 0 20 -12 35 -27z m-65 -106 l72 -72 -108
-108 c-100 -100 -108 -106 -120 -87 -7 11 -19 20 -26 20 -8 0 -16 4 -18 9 -1
5 -23 30 -46 56 l-44 46 103 104 c57 58 105 105 109 105 3 0 38 -33 78 -73z"/>
<path d="M1468 5893 c7 -3 16 -2 19 1 4 3 -2 6 -13 5 -11 0 -14 -3 -6 -6z"/>
<path d="M1428 5883 c7 -3 16 -2 19 1 4 3 -2 6 -13 5 -11 0 -14 -3 -6 -6z"/>
<path d="M1521 5849 c-80 -14 -77 -21 4 -12 39 4 111 8 160 7 56 0 79 2 60 6
-41 10 -159 9 -224 -1z"/>
<path d="M1535 5769 c-66 -11 -161 -46 -207 -77 -50 -32 -63 -77 -62 -212 0
-90 3 -112 24 -154 28 -57 120 -155 170 -181 94 -49 261 -61 335 -25 67 32
189 151 213 208 44 101 46 247 4 332 -40 81 -296 140 -477 109z m250 -139 c-1
-27 2 -47 6 -44 5 3 9 3 9 0 0 -13 -111 -305 -129 -340 l-20 -38 4 65 c3 38
19 108 39 169 20 56 33 87 31 68 -4 -36 23 41 45 128 6 23 12 42 14 42 2 0 2
-22 1 -50z m26 -117 c-6 -21 -18 -47 -27 -58 -16 -20 -16 -20 -9 0 4 11 14 44
23 74 19 59 29 46 13 -16z m-136 0 c-4 -21 -13 -49 -21 -63 -16 -27 -15 -19 7
58 15 52 24 55 14 5z m-359 -158 c3 -14 10 -25 16 -25 5 0 15 -15 23 -33 8
-19 21 -40 30 -47 9 -7 21 -23 26 -34 6 -12 -8 -1 -31 23 -43 46 -97 141 -80
141 5 0 12 -11 16 -25z m450 -39 c-9 -30 -21 -58 -27 -62 -7 -4 -9 -1 -6 7 3
8 13 38 23 66 23 69 30 60 10 -11z"/>
<path d="M2077 5410 c-3 -11 -1 -20 4 -20 5 0 9 9 9 20 0 11 -2 20 -4 20 -2 0
-6 -9 -9 -20z"/>
<path d="M1257 5255 c7 -49 13 -58 13 -19 0 16 -5 36 -10 44 -6 10 -7 2 -3
-25z"/>
<path d="M1500 4975 c14 -8 32 -14 40 -14 8 0 0 6 -19 14 -42 19 -54 19 -21 0z"/>
<path d="M1785 4919 c-33 -10 -71 -19 -85 -20 -22 -2 -22 -2 -4 -6 12 -2 50 3
84 12 72 19 71 20 90 -61 11 -43 21 -61 49 -83 59 -45 69 -47 21 -4 -39 35
-48 51 -64 112 -10 39 -21 71 -25 70 -3 0 -33 -9 -66 -20z"/>
<path d="M1911 4904 c0 -11 3 -14 6 -6 3 7 2 16 -1 19 -3 4 -6 -2 -5 -13z"/>
<path d="M1573 4873 c15 -2 39 -2 55 0 15 2 2 4 -28 4 -30 0 -43 -2 -27 -4z"/>
<path d="M2056 4415 c-3 -9 -6 -24 -5 -33 0 -9 5 -4 10 12 9 32 6 48 -5 21z"/>
<path d="M2440 5980 c0 -5 5 -10 10 -10 6 0 10 5 10 10 0 6 -4 10 -10 10 -5 0
-10 -4 -10 -10z"/>
<path d="M2240 5976 c0 -2 9 -6 20 -9 11 -3 20 -1 20 4 0 5 -9 9 -20 9 -11 0
-20 -2 -20 -4z"/>
<path d="M2401 5916 c-6 -7 -8 -16 -4 -19 3 -4 1 -7 -5 -7 -7 0 -12 -5 -12
-10 0 -7 7 -7 21 1 18 9 19 13 8 21 -12 8 -11 9 1 5 9 -2 15 -15 15 -35 -1
-18 3 -32 7 -32 14 0 9 61 -6 75 -12 12 -16 12 -25 1z"/>
<path d="M2382 5844 c10 -10 20 -16 22 -13 3 3 -5 11 -17 18 -21 13 -21 12 -5
-5z"/>
<path d="M2335 5820 c-3 -6 1 -7 9 -4 18 7 21 14 7 14 -6 0 -13 -4 -16 -10z"/>
<path d="M2376 5811 c-3 -5 3 -7 14 -4 15 4 20 0 20 -16 0 -11 4 -21 10 -21 6
0 6 9 1 23 -9 23 -35 35 -45 18z"/>
<path d="M2428 5733 c7 -3 16 -2 19 1 4 3 -2 6 -13 5 -11 0 -14 -3 -6 -6z"/>
<path d="M2474 5718 c3 -12 0 -18 -9 -18 -8 0 -15 -9 -15 -20 0 -21 0 -21 21
-1 17 16 19 23 9 38 -10 16 -11 16 -6 1z"/>
<path d="M2415 5710 c3 -5 10 -10 16 -10 5 0 9 5 9 10 0 6 -7 10 -16 10 -8 0
-12 -4 -9 -10z"/>
<path d="M2150 5479 c0 -17 4 -28 10 -24 6 3 10 17 10 31 0 13 -4 24 -10 24
-5 0 -10 -14 -10 -31z"/>
<path d="M2183 5465 c0 -27 2 -38 4 -22 2 15 2 37 0 50 -2 12 -4 0 -4 -28z"/>
<path d="M2157 5433 c-4 -3 -7 -11 -7 -17 0 -6 5 -5 12 2 6 6 9 14 7 17 -3 3
-9 2 -12 -2z"/>
<path d="M2538 5293 c7 -3 16 -2 19 1 4 3 -2 6 -13 5 -11 0 -14 -3 -6 -6z"/>
<path d="M2170 5320 c0 -5 7 -7 15 -4 8 4 15 8 15 10 0 2 -7 4 -15 4 -8 0 -15
-4 -15 -10z"/>
<path d="M1132 5210 c0 -14 2 -19 5 -12 2 6 2 18 0 25 -3 6 -5 1 -5 -13z"/>
<path d="M1121 5164 c0 -11 3 -14 6 -6 3 7 2 16 -1 19 -3 4 -6 -2 -5 -13z"/>
<path d="M1072 5060 c0 -19 2 -27 5 -17 2 9 2 25 0 35 -3 9 -5 1 -5 -18z"/>
<path d="M962 5030 c0 -8 4 -26 8 -40 6 -20 8 -21 8 -5 0 11 -3 29 -8 40 -5
12 -8 14 -8 5z"/>
<path d="M890 4987 c0 -7 7 -22 15 -33 13 -17 14 -16 4 14 -11 33 -19 41 -19
19z"/>
<path d="M941 4984 c0 -11 3 -14 6 -6 3 7 2 16 -1 19 -3 4 -6 -2 -5 -13z"/>
<path d="M2635 5265 c-3 -8 -7 -22 -10 -30 -13 -44 26 -59 66 -24 18 16 21 23
12 37 -6 9 -20 17 -31 16 -12 0 -19 3 -16 8 3 4 0 8 -6 8 -6 0 -13 -7 -15 -15z"/>
<path d="M2171 4954 c0 -11 3 -14 6 -6 3 7 2 16 -1 19 -3 4 -6 -2 -5 -13z"/>
<path d="M2200 4756 c0 -2 8 -10 18 -17 15 -13 16 -12 3 4 -13 16 -21 21 -21
13z"/>
<path d="M2345 4930 c10 -11 20 -18 23 -16 5 6 -23 36 -34 36 -4 0 1 -9 11
-20z"/>
<path d="M2778 4649 c-17 -10 -14 -39 4 -39 6 0 8 6 5 14 -3 7 0 19 6 25 13
13 8 14 -15 0z"/>
<path d="M2795 4630 c3 -5 11 -10 16 -10 6 0 7 5 4 10 -3 6 -11 10 -16 10 -6
0 -7 -4 -4 -10z"/>
<path d="M1899 4623 c-15 -2 -29 -12 -32 -21 -3 -9 -8 -25 -12 -36 -7 -17 -4
-18 36 -12 99 15 99 15 99 47 0 26 -3 29 -32 28 -18 -1 -45 -4 -59 -6z"/>
<path d="M1214 4260 c5 -41 15 -56 59 -88 40 -28 117 -66 117 -57 0 3 -22 16
-49 30 -29 14 -61 41 -78 65 -15 22 -33 48 -40 58 -10 15 -11 14 -9 -8z"/>
<path d="M1854 4214 c-18 -14 -18 -15 4 -4 12 6 22 13 22 15 0 8 -5 6 -26 -11z"/>
<path d="M1844 4178 l-19 -23 23 19 c21 18 27 26 19 26 -2 0 -12 -10 -23 -22z"/>
<path d="M2195 4029 c-10 -22 -37 -59 -59 -81 -23 -23 -31 -36 -20 -30 30 16
74 70 91 111 20 48 10 49 -12 0z"/>
<path d="M1291 4046 c19 -19 154 -85 193 -95 75 -19 65 -7 -21 24 -43 15 -98
38 -122 51 -40 22 -61 30 -50 20z"/>
<path d="M1741 3984 c-53 -22 -67 -24 -90 -15 -24 11 -25 10 -7 -4 11 -8 25
-15 31 -15 12 0 136 49 144 56 10 10 -19 1 -78 -22z"/>
<path d="M1550 3970 c8 -5 20 -10 25 -10 6 0 3 5 -5 10 -8 5 -19 10 -25 10 -5
0 -3 -5 5 -10z"/>
<path d="M1790 3966 c0 -9 30 -14 35 -6 4 6 -3 10 -14 10 -12 0 -21 -2 -21 -4z"/>
<path d="M1530 3915 c-47 -18 -27 -18 30 -1 25 8 36 15 25 15 -11 0 -36 -7
-55 -14z"/>
<path d="M1811 3918 c-1 -4 17 -34 39 -66 41 -63 77 -94 120 -106 17 -5 12 1
-15 16 -21 13 -53 41 -70 64 -66 89 -74 99 -74 92z"/>
<path d="M1385 3897 c29 -14 164 -33 153 -22 -3 3 -36 9 -74 14 -38 5 -78 12
-89 15 -11 4 -6 0 10 -7z"/>
<path d="M1605 3824 c-22 -18 -35 -34 -30 -33 13 0 80 57 74 63 -2 2 -22 -11
-44 -30z"/>
<path d="M2154 3838 l-19 -23 23 19 c21 18 27 26 19 26 -2 0 -12 -10 -23 -22z"/>
<path d="M1155 3810 c3 -5 1 -10 -5 -10 -6 0 -8 -5 -4 -11 5 -8 8 -8 14 0 3 7
15 9 26 5 18 -6 18 -6 -1 9 -23 18 -39 22 -30 7z"/>
<path d="M1600 3750 c-6 -11 -31 -35 -57 -55 -25 -19 -41 -35 -36 -35 17 0 90
63 102 88 13 27 6 30 -9 2z"/>
<path d="M1556 3543 c-37 -43 -139 -103 -175 -103 -8 0 -12 -3 -8 -6 3 -3 28
1 56 11 50 16 141 88 162 126 15 28 8 23 -35 -28z"/>
<path d="M1151 3550 c6 -14 23 -37 37 -52 24 -27 19 -41 -6 -16 -6 6 -14 9
-17 6 -10 -9 46 -40 62 -34 11 5 7 13 -19 38 -18 18 -41 44 -51 58 l-18 25 12
-25z"/>
<path d="M1539 3493 c-22 -24 -26 -31 -11 -20 21 14 59 57 50 57 -2 0 -20 -16
-39 -37z"/>
<path d="M1562 3365 c-6 -14 -15 -24 -19 -23 -11 3 -95 -54 -88 -60 3 -3 23 9
45 27 51 40 53 24 3 -19 -35 -29 -35 -30 -5 -10 33 22 89 96 80 105 -3 3 -10
-6 -16 -20z"/>
<path d="M1493 3353 c-13 -8 -40 -21 -60 -29 -21 -7 -30 -13 -20 -14 21 0 93
35 102 50 8 13 5 12 -22 -7z"/>
<path d="M1308 3303 c18 -2 45 -2 60 0 15 2 0 4 -33 4 -33 0 -45 -2 -27 -4z"/>
<path d="M922 1319 c-23 -22 -42 -45 -42 -50 0 -6 -4 -8 -9 -4 -5 3 -12 2 -15
-3 -3 -5 1 -9 9 -9 15 0 112 94 104 101 -2 3 -24 -13 -47 -35z"/>
<path d="M1063 1248 c6 -18 -15 -42 -28 -30 -5 4 -5 1 -1 -5 9 -16 9 -16 33 5
18 15 19 19 5 32 -14 13 -15 12 -9 -2z"/>
<path d="M800 1205 c-7 -9 -10 -18 -6 -22 3 -3 6 -1 6 6 0 7 5 9 12 5 6 -4 8
-3 4 4 -3 5 0 13 6 15 8 4 9 6 2 6 -6 1 -17 -6 -24 -14z"/>
<path d="M934 1126 c-48 -48 -59 -64 -49 -73 18 -16 131 98 119 119 -7 12 -22
2 -70 -46z m66 39 c0 -11 -93 -105 -104 -105 -6 0 11 20 37 45 26 25 47 50 47
55 0 6 5 10 10 10 6 0 10 -2 10 -5z"/>
<path d="M1025 1180 c-3 -6 1 -7 9 -4 18 7 21 14 7 14 -6 0 -13 -4 -16 -10z"/>
</g>
</svg>
