<?xml version="1.0" standalone="no"?>
<!DOCTYPE svg PUBLIC "-//W3C//DTD SVG 20010904//EN"
 "http://www.w3.org/TR/2001/REC-SVG-20010904/DTD/svg10.dtd">
<svg version="1.0" xmlns="http://www.w3.org/2000/svg"
 width="416.000000pt" height="416.000000pt" viewBox="0 0 416.000000 416.000000"
 preserveAspectRatio="xMidYMid meet">

<g transform="translate(0.000000,416.000000) scale(0.100000,-0.100000)"
fill="#000000" stroke="none">
<path d="M0 2080 l0 -2080 2080 0 2080 0 0 2080 0 2080 -815 0 -815 0 0 -68
c0 -56 -3 -69 -20 -80 -24 -14 -26 -45 -5 -62 13 -11 15 -8 15 18 0 26 3 30
18 25 9 -4 22 -12 27 -19 6 -7 42 -15 80 -19 63 -6 72 -4 89 14 14 15 15 21 6
21 -9 0 -7 5 6 15 16 12 17 16 5 24 -12 8 -9 11 14 17 17 4 30 3 32 -3 2 -6
11 -19 19 -29 15 -18 15 -18 10 -1 -4 12 -2 17 6 14 7 -2 12 -11 10 -20 -2
-12 2 -15 13 -10 10 3 15 13 12 23 -3 11 6 23 24 34 27 16 41 56 19 56 -5 0
-7 7 -4 15 8 21 32 2 36 -28 3 -19 10 -22 46 -23 23 0 47 -5 53 -11 17 -17 0
-35 -27 -30 -13 2 -24 0 -24 -4 0 -5 -7 -9 -15 -9 -14 0 -29 -35 -24 -56 1 -5
-1 -17 -6 -28 -5 -11 -3 -26 4 -37 9 -16 8 -19 -9 -19 -12 0 -31 -11 -43 -23
-23 -25 -47 -25 -47 -1 0 8 -7 14 -16 14 -8 0 -12 -5 -9 -10 3 -6 -2 -13 -12
-17 -10 -4 -20 -10 -23 -13 -3 -4 -18 -10 -33 -14 l-29 -7 19 25 c10 14 21 26
26 26 4 0 7 5 7 10 0 6 -26 10 -59 10 -49 0 -61 -3 -74 -22 -13 -19 -16 -20
-16 -6 -1 9 4 20 9 23 6 3 10 11 10 16 0 6 -5 7 -10 4 -5 -3 -10 -1 -10 4 0 6
10 11 22 11 17 0 19 3 10 12 -9 9 -18 9 -38 -1 -21 -9 -25 -17 -22 -41 2 -16
1 -27 -4 -24 -4 3 -8 0 -8 -5 0 -6 5 -11 10 -11 7 0 8 -6 2 -16 -11 -19 -4
-54 9 -54 5 0 9 7 9 15 0 8 7 15 16 15 12 0 14 -3 6 -13 -6 -7 -9 -31 -7 -53
3 -21 3 -33 -1 -26 -9 19 -24 4 -26 -26 0 -15 -4 -4 -7 23 -5 45 -8 50 -31 50
-16 0 -28 -8 -35 -22 -5 -13 -13 -23 -17 -23 -13 0 -9 43 6 69 11 19 11 31 3
50 -16 37 -15 36 -36 13 -10 -12 -28 -22 -39 -22 -22 0 -23 -22 -3 -74 6 -16
9 -37 6 -46 -3 -10 2 -25 11 -34 15 -15 18 -15 33 -1 24 21 28 20 41 -20 13
-40 6 -59 -21 -52 -11 3 -19 1 -19 -4 0 -5 -6 -9 -14 -9 -18 0 -26 -31 -26
-99 0 -68 -27 -101 -82 -101 -37 0 -45 9 -39 44 1 4 -10 5 -25 2 -21 -6 -25
-4 -21 8 9 22 -5 20 -33 -4 -13 -11 -32 -19 -44 -19 -17 1 -17 2 4 6 22 5 21
6 -15 19 -22 8 -46 12 -52 9 -13 -4 -17 7 -14 33 1 6 -3 12 -9 12 -5 0 -10 7
-10 15 0 8 7 15 16 15 12 0 14 5 9 18 -4 9 -9 28 -10 42 -1 14 -3 29 -4 33 0
4 -17 7 -36 5 -29 -2 -35 -6 -35 -24 0 -15 -7 -24 -22 -27 -16 -3 -14 -4 7 -4
53 1 58 -8 51 -84 -7 -74 3 -91 48 -82 20 3 20 3 1 -6 -11 -5 -27 -12 -37 -14
-9 -3 -23 -28 -31 -58 -18 -58 -11 -84 26 -99 21 -9 21 -10 -3 -7 -14 1 -29
12 -36 25 -8 15 -14 20 -19 12 -4 -6 -2 -17 5 -25 8 -10 8 -15 -2 -22 -7 -4
-13 -20 -14 -34 -1 -23 3 -26 45 -28 51 -2 100 -23 127 -52 13 -14 30 -19 70
-19 29 0 56 -4 59 -10 3 -5 12 -10 18 -9 9 0 8 2 -1 6 -6 2 -10 9 -6 14 3 5
-11 9 -30 9 -19 0 -38 5 -42 12 -5 8 5 9 37 4 59 -9 69 -21 78 -86 1 -3 13 -6
28 -5 19 0 29 -6 31 -19 4 -17 0 -18 -42 -13 -30 4 -46 3 -46 -4 0 -6 7 -9 15
-5 9 3 15 0 15 -9 0 -8 -9 -15 -21 -15 -11 0 -18 4 -15 8 2 4 1 14 -5 22 -7
12 -9 10 -9 -7 0 -27 12 -35 64 -41 55 -6 59 -12 9 -12 -43 0 -54 -11 -59 -59
-2 -13 -5 -26 -8 -29 -3 -3 -1 -11 5 -19 15 -17 -2 -17 -26 1 -10 7 -27 11
-38 8 -16 -4 -18 -1 -13 16 4 11 2 23 -4 27 -5 3 -10 -1 -10 -9 0 -20 -17 -21
-22 -1 -2 10 -7 12 -18 5 -10 -7 -12 -12 -4 -17 6 -5 10 -16 8 -25 -1 -10 4
-18 11 -18 8 0 16 8 18 18 4 16 5 16 6 0 1 -14 10 -18 39 -18 41 0 82 -23 82
-46 0 -29 32 -64 57 -64 22 0 24 -2 13 -15 -11 -14 -7 -19 13 -16 4 0 7 -8 7
-19 0 -12 6 -33 14 -48 20 -40 25 -91 15 -147 -5 -27 -10 -56 -11 -64 -1 -10
-5 -9 -15 4 -12 18 -14 18 -35 -1 l-22 -19 22 30 c41 54 50 70 57 95 6 25 6
25 -23 -5 -37 -39 -80 -74 -66 -55 6 8 26 35 45 60 32 42 32 43 7 25 -15 -11
-28 -25 -28 -31 0 -6 -9 -19 -20 -29 -21 -19 -21 -18 -15 41 6 55 5 58 -9 40
-21 -26 -21 -1 -1 34 8 14 14 41 15 60 0 34 0 34 -16 12 -8 -12 -13 -26 -10
-31 4 -5 -5 -23 -19 -39 -14 -16 -25 -34 -25 -39 0 -23 -42 -53 -75 -53 -31 0
-34 2 -33 30 1 17 -2 33 -5 36 -3 4 5 30 19 58 25 50 25 51 2 24 -13 -15 -34
-42 -47 -59 -24 -31 -24 -31 -3 -25 18 6 22 3 22 -14 0 -11 -7 -23 -15 -26 -8
-4 -15 -13 -15 -21 0 -8 4 -11 10 -8 13 8 13 -5 0 -25 -8 -13 -10 -12 -10 3 0
10 -5 15 -10 12 -13 -8 -13 1 0 26 10 17 7 19 -22 20 -31 1 -32 1 -8 9 l25 8
-25 2 -25 2 25 7 c23 7 21 8 -17 15 -24 4 -43 12 -43 17 0 5 -16 9 -35 9 -21
0 -34 -5 -33 -12 2 -6 -8 -15 -22 -19 -22 -6 -22 -7 -4 -8 11 -1 21 -8 21 -16
0 -17 -62 -22 -72 -5 -3 5 -12 7 -20 3 -15 -5 -90 65 -80 75 2 2 -5 13 -15 25
-32 34 -34 12 -4 -43 31 -57 70 -100 90 -100 9 0 14 -11 14 -27 0 -19 -3 -24
-9 -15 -4 7 -12 12 -17 11 -20 -3 -35 1 -30 10 3 5 -5 12 -19 15 -14 4 -25 13
-25 21 0 8 -4 15 -10 15 -5 0 -10 6 -10 14 0 7 -7 19 -15 26 -12 10 -15 9 -15
-4 0 -10 -4 -14 -10 -11 -5 3 -10 1 -10 -5 0 -7 -12 -4 -30 7 -29 16 -44 41
-17 28 6 -4 3 1 -8 9 -19 16 -19 17 0 53 11 20 34 45 52 57 18 12 33 28 33 38
0 18 73 63 120 73 26 6 30 4 30 -14 0 -17 -7 -21 -32 -22 -24 -1 -27 -3 -10
-6 12 -2 20 -9 17 -14 -4 -5 0 -9 8 -9 8 0 19 10 25 23 7 14 11 16 11 7 1 -20
63 -48 69 -32 4 14 32 16 32 3 0 -14 167 -11 203 4 29 12 29 13 9 19 -12 4
-22 15 -22 23 0 9 -3 14 -6 10 -3 -3 -14 2 -25 11 -11 10 -15 19 -8 22 5 4
-16 5 -48 2 -32 -3 -61 -10 -65 -16 -6 -8 -8 -7 -8 2 0 7 -13 12 -31 12 -17 0
-28 4 -24 10 4 6 -6 10 -24 10 -16 0 -32 -4 -35 -9 -4 -5 3 -7 14 -4 11 3 20
0 20 -6 0 -6 -9 -11 -20 -11 -11 0 -20 -4 -20 -10 0 -5 -4 -10 -8 -10 -10 0
-9 36 1 46 4 4 7 16 7 28 0 20 0 20 15 0 15 -19 16 -19 14 1 -4 50 2 75 16 75
18 0 19 -12 3 -28 -9 -9 -8 -17 2 -37 12 -23 19 -25 86 -25 40 0 79 -3 88 -6
12 -5 18 2 22 26 4 19 10 27 14 20 6 -9 11 -7 19 6 9 17 12 17 21 4 9 -11 10
0 7 43 -8 88 -61 144 -154 163 -46 9 -112 -14 -155 -55 -34 -31 -41 -44 -43
-81 -2 -30 2 -48 12 -55 10 -8 12 -19 7 -39 -5 -20 -9 -24 -15 -14 -7 10 -9 8
-10 -7 l0 -20 -9 20 c-8 18 -9 18 -9 2 -1 -10 6 -20 14 -23 23 -9 18 -21 -7
-19 -13 2 -22 8 -20 14 1 6 -2 11 -8 11 -14 0 -12 38 5 83 11 32 11 44 0 70
l-13 32 -7 -48 c-4 -26 -5 -56 -2 -67 4 -15 -3 -24 -29 -36 -31 -15 -35 -15
-49 0 -15 15 -14 16 8 16 20 0 26 6 29 29 4 28 3 29 -29 25 -28 -4 -33 -1 -39
21 -3 14 -11 22 -17 18 -6 -4 -7 -1 -1 8 4 8 9 20 11 28 2 18 19 28 61 36 24
4 37 2 43 -6 4 -8 11 -10 16 -6 4 5 1 12 -6 16 -9 6 -10 11 -2 15 6 4 9 12 5
17 -3 5 4 27 15 49 11 22 18 46 15 55 -4 8 -1 15 5 15 6 0 11 9 11 20 0 11 3
20 8 20 4 0 7 13 7 30 0 25 -3 28 -22 24 -12 -3 -29 -1 -39 4 -12 7 -28 5 -52
-5 -18 -8 -31 -10 -28 -5 2 4 -14 7 -37 6 -31 -1 -47 3 -61 18 -18 20 -18 20
7 43 13 13 28 21 33 17 4 -4 4 -2 1 4 -7 13 -57 25 -57 15 0 -10 -69 0 -76 10
-3 5 15 9 40 9 55 0 59 15 11 36 -19 8 -34 19 -32 25 1 6 -4 14 -12 17 -9 3
-11 0 -6 -8 10 -17 -11 -5 -42 23 -26 23 -31 52 -8 44 8 -4 26 0 40 7 l26 14
-33 4 c-23 4 -36 0 -45 -11 -13 -19 -28 -8 -28 21 0 13 -13 27 -35 39 -23 13
-28 19 -16 19 14 0 16 3 7 13 -8 10 -7 14 4 14 8 0 15 -6 15 -14 0 -16 25 -27
40 -18 10 6 -51 55 -70 55 -14 0 -12 17 3 23 11 5 -18 2 -98 -8 l-30 -4 33 15
c18 8 32 20 29 27 -4 13 -49 10 -57 -3 -3 -5 -18 -12 -33 -15 -27 -7 -28 -6
-31 35 -1 8 -16 22 -33 30 -18 8 -33 21 -33 28 0 6 -7 12 -15 12 -17 0 -20 16
-6 25 6 3 15 -4 21 -15 7 -13 21 -20 41 -20 17 0 28 -4 25 -8 -3 -5 1 -9 9 -9
7 0 13 8 12 18 -1 11 -8 16 -19 14 -14 -3 -18 3 -18 25 0 19 -7 33 -20 40 -16
9 -20 8 -20 -5 0 -8 -6 -15 -12 -15 -7 0 -29 -14 -48 -30 -19 -17 -41 -28 -47
-25 -7 2 -13 0 -13 -5 0 -15 -20 -12 -26 5 -7 16 17 45 38 45 10 0 9 3 -2 10
-14 9 -10 11 15 10 3 -1 13 6 21 15 10 9 24 13 35 10 31 -10 22 12 -11 27 -35
15 -38 24 -10 33 27 9 25 24 -2 19 -13 -3 -9 1 11 10 18 9 50 16 70 16 20 0
41 4 47 8 22 13 20 57 -4 82 l-22 24 27 12 c22 10 -104 12 -619 13 l-648 1 0
-2080z m2804 1995 c-7 -16 -24 -21 -24 -6 0 8 7 13 27 20 1 1 0 -6 -3 -14z
m176 -229 c0 -26 -5 -36 -20 -41 -31 -10 -40 2 -23 35 8 17 19 28 24 25 5 -4
9 -1 9 4 0 6 2 11 5 11 3 0 5 -15 5 -34z m-260 10 c0 -16 -24 -39 -32 -30 -3
3 -4 14 -1 25 6 22 33 26 33 5z m-239 -123 c-12 -20 -14 -14 -5 12 4 9 9 14
11 11 3 -2 0 -13 -6 -23z m529 -8 c10 -12 10 -15 -3 -15 -8 0 -17 7 -21 15 -3
8 -2 15 3 15 5 0 14 -7 21 -15z m-1650 -115 c0 -5 -2 -10 -4 -10 -3 0 -8 5
-11 10 -3 6 -1 10 4 10 6 0 11 -4 11 -10z m760 -20 c0 -5 -10 -10 -22 -10 -19
0 -20 2 -8 10 19 13 30 13 30 0z m250 -240 c0 -11 -2 -20 -4 -20 -2 0 -6 9 -9
20 -3 11 -1 20 4 20 5 0 9 -9 9 -20z m42 -40 c-3 -31 1 -57 9 -66 9 -11 9 -18
1 -26 -9 -9 -12 -8 -12 5 0 9 -4 17 -10 17 -5 0 -10 6 -10 14 0 8 -6 17 -12
19 -8 3 -6 6 5 6 13 1 17 10 17 41 0 22 3 40 8 40 4 0 5 -23 4 -50z m-822 0
c0 -5 7 -10 15 -10 8 0 15 -8 15 -18 0 -9 12 -25 28 -35 l27 -18 -28 6 c-29 6
-81 -15 -91 -37 -3 -7 -3 -1 1 15 3 15 0 34 -7 42 -9 10 -9 15 -1 15 6 0 11
-4 11 -10 0 -5 7 -7 15 -4 18 7 20 35 3 52 -9 9 -9 12 0 12 7 0 12 -4 12 -10z
m-26 -15 c4 -10 -1 -15 -16 -15 -17 0 -18 2 -8 15 7 8 14 15 15 15 2 0 5 -7 9
-15z m166 -59 c0 -35 -4 -45 -20 -49 -10 -3 -24 1 -31 9 -8 10 -5 15 14 20 17
4 24 11 20 20 -5 14 2 44 12 44 3 0 5 -20 5 -44z m110 34 c0 -13 -11 -13 -30
0 -12 8 -11 10 8 10 12 0 22 -4 22 -10z m-295 -120 c3 -5 1 -10 -4 -10 -6 0
-11 5 -11 10 0 6 2 10 4 10 3 0 8 -4 11 -10z m866 -51 c-14 -14 -17 -14 -24
-2 -5 8 -6 22 -2 31 5 14 7 14 15 2 8 -12 10 -9 11 10 l1 25 7 -25 c5 -17 3
-30 -8 -41z m-566 -29 c-3 -5 -11 -10 -16 -10 -6 0 -7 5 -4 10 3 6 11 10 16
10 6 0 7 -4 4 -10z m242 -10 c6 -21 23 -28 23 -9 0 8 4 8 14 0 16 -14 10 -51
-9 -51 -8 0 -22 -3 -32 -6 -13 -4 -14 -3 -5 3 10 8 10 12 -3 23 -13 11 -19 10
-35 -5 -19 -17 -20 -17 -20 0 0 14 -3 15 -15 5 -9 -7 -19 -10 -23 -6 -4 4 1
12 11 17 9 6 17 16 17 24 0 28 70 33 77 5z m117 -52 c9 -12 16 -32 15 -43 0
-17 -2 -17 -10 5 -6 13 -17 33 -26 42 -9 10 -11 18 -5 18 6 0 18 -10 26 -22z
m-134 8 c0 -3 -4 -8 -10 -11 -5 -3 -10 -1 -10 4 0 6 5 11 10 11 6 0 10 -2 10
-4z m351 -63 c-11 -5 -11 -7 0 -14 11 -7 10 -9 -3 -9 -10 0 -18 7 -18 15 0 8
8 15 18 14 12 0 13 -2 3 -6z m-361 -24 c0 -5 -7 -9 -15 -9 -15 0 -20 12 -9 23
8 8 24 -1 24 -14z m-263 -19 c-1 -22 -22 -27 -33 -8 -4 7 -3 8 4 4 7 -4 12 -1
12 8 0 9 4 16 9 16 6 0 9 -9 8 -20z m433 -170 c0 -5 -2 -10 -4 -10 -3 0 -8 5
-11 10 -3 6 -1 10 4 10 6 0 11 -4 11 -10z m-163 -186 c-3 -3 -12 -4 -19 -1 -8
3 -5 6 6 6 11 1 17 -2 13 -5z m-293 -59 c4 -11 -2 -15 -24 -15 -17 0 -30 -5
-30 -11 0 -8 -5 -7 -16 2 -13 11 -11 14 18 25 45 16 45 16 52 -1z m240 -32
c-5 -5 -12 -12 -16 -18 -4 -6 -8 -2 -8 8 0 9 7 17 17 17 9 0 12 -3 7 -7z m131
-13 c3 -6 -1 -7 -9 -4 -18 7 -21 14 -7 14 6 0 13 -4 16 -10z m179 -15 c-4 -8
-9 -15 -13 -15 -4 0 -8 7 -8 15 0 8 6 15 13 15 8 0 11 -6 8 -15z m-570 -14
c16 -17 16 -19 -1 -25 -9 -4 -14 -4 -10 0 4 4 0 16 -10 26 -9 10 -12 18 -6 18
5 0 18 -8 27 -19z m410 -28 c-3 -27 -10 -55 -15 -63 -8 -14 -4 34 7 88 8 42
15 22 8 -25z m376 27 c0 -5 -2 -10 -4 -10 -3 0 -8 5 -11 10 -3 6 -1 10 4 10 6
0 11 -4 11 -10z m-865 -10 c3 -5 1 -10 -4 -10 -6 0 -11 5 -11 10 0 6 2 10 4
10 3 0 8 -4 11 -10z m337 -4 c7 4 8 2 4 -5 -9 -13 -26 -5 -25 12 0 9 2 8 6 -1
2 -6 10 -9 15 -6z m345 8 c-3 -3 -12 -4 -19 -1 -8 3 -5 6 6 6 11 1 17 -2 13
-5z m-637 -24 c8 -5 12 -11 9 -14 -3 -3 -14 1 -25 9 -21 16 -8 20 16 5z m190
6 c0 -3 -4 -8 -10 -11 -5 -3 -10 -1 -10 4 0 6 5 11 10 11 6 0 10 -2 10 -4z
m67 -33 c-3 -10 -5 -4 -5 12 0 17 2 24 5 18 2 -7 2 -21 0 -30z m365 19 c-2 -7
-10 -11 -17 -8 -7 2 -21 -2 -32 -9 -28 -22 -35 -17 -12 9 22 25 70 31 61 8z
m-385 -49 c-3 -10 -5 -4 -5 12 0 17 2 24 5 18 2 -7 2 -21 0 -30z m-236 -2 c29
-30 39 -61 18 -61 -8 0 -8 -4 -2 -12 21 -27 22 -46 3 -41 -10 3 -20 1 -23 -4
-6 -10 40 -53 48 -45 3 4 10 0 15 -8 8 -13 10 -12 10 2 0 9 -5 18 -11 20 -7 2
0 12 15 21 23 15 26 16 26 2 0 -9 -9 -34 -21 -56 -20 -41 -44 -48 -44 -13 0
12 -8 20 -24 22 -19 3 -22 0 -17 -13 5 -15 2 -16 -21 -10 -27 6 -27 6 -9 -14
19 -21 19 -21 0 -21 -10 0 -30 9 -44 20 -14 11 -29 20 -34 20 -6 0 -1 -7 10
-15 23 -18 14 -19 -21 -3 -19 8 -22 14 -13 21 9 6 4 7 -14 4 -40 -6 -56 7 -35
31 9 10 17 24 17 30 0 6 6 15 13 19 6 4 21 24 31 43 24 44 67 89 84 90 8 0 27
-13 43 -29z m55 8 c9 -15 -23 -10 -35 5 -10 12 -8 13 9 9 11 -3 23 -9 26 -14z
m765 -3 c-9 -10 -9 -20 -2 -33 6 -10 24 -47 41 -82 28 -60 29 -65 12 -77 -14
-11 -14 -13 -2 -14 8 0 -3 -12 -25 -25 -45 -28 -40 -33 8 -8 18 9 43 17 55 19
19 2 23 -1 19 -17 -3 -10 -1 -17 4 -13 5 3 9 0 9 -6 0 -6 10 -8 25 -4 19 5 25
2 25 -11 0 -9 -5 -13 -10 -10 -6 3 -13 -1 -16 -9 -3 -9 -12 -16 -20 -16 -8 0
-14 -8 -15 -17 0 -11 -3 -13 -6 -5 -7 17 -33 15 -33 -3 0 -8 7 -15 15 -15 9 0
15 -10 15 -26 0 -14 4 -23 9 -20 5 4 8 14 7 24 -3 16 10 31 26 32 4 0 9 -10
11 -22 4 -19 5 -18 6 5 1 21 5 28 19 25 10 -2 22 6 29 22 12 24 12 24 10 -10
-1 -23 -7 -34 -15 -32 -8 1 -11 -2 -8 -7 4 -5 -6 -19 -20 -30 -22 -17 -37 -20
-95 -17 -66 3 -80 9 -121 49 -25 24 -23 42 9 72 15 14 24 25 19 25 -5 0 -1 8
8 19 15 17 15 19 1 25 -9 3 -14 2 -11 -3 3 -5 -4 -11 -15 -14 -12 -3 -18 -10
-14 -16 6 -10 -16 -15 -55 -13 -11 0 -10 -3 4 -14 11 -8 16 -14 12 -14 -5 0
-2 -7 5 -17 13 -14 11 -16 -13 -11 -24 4 -25 3 -15 -14 13 -21 100 -78 119
-78 6 0 26 -12 45 -26 19 -14 40 -27 46 -28 35 -5 48 -32 21 -43 -11 -4 -24 3
-36 18 -17 20 -19 21 -13 4 18 -51 18 -54 -4 -50 -27 5 -53 -4 -45 -16 3 -5
-2 -9 -10 -9 -8 0 -18 5 -21 10 -10 16 -30 12 -69 -15 -43 -29 -55 -31 -70 -9
-10 13 -18 12 -66 -10 -30 -14 -60 -26 -67 -26 -6 0 -15 -5 -19 -11 -5 -8 6
-9 35 -4 26 4 41 3 41 -4 0 -14 -16 -22 -53 -28 -42 -6 -99 -32 -114 -52 -10
-14 -18 -9 -62 36 -28 29 -51 49 -51 44 0 -4 9 -16 19 -25 19 -17 39 -92 27
-103 -3 -3 -10 5 -16 18 -10 22 -10 22 -6 2 2 -13 -2 -24 -11 -27 -31 -12 -43
-6 -43 22 0 32 -34 92 -52 92 -8 -1 -6 -6 5 -14 19 -14 43 -73 34 -83 -4 -3
-18 -2 -33 1 -14 4 -24 10 -20 13 3 3 1 12 -5 20 -13 15 -73 18 -64 3 3 -5 1
-10 -4 -10 -6 0 -11 14 -11 30 0 28 8 35 38 31 6 -1 12 3 12 9 0 5 21 10 47
10 l48 0 -35 19 c-22 12 -41 16 -51 11 -10 -6 -37 4 -83 31 -65 38 -68 38 -52
14 10 -15 14 -30 10 -33 -4 -4 -9 -2 -11 4 -2 6 -10 20 -18 30 -14 18 -17 17
-55 -26 -47 -54 -51 -48 -10 13 17 25 30 50 30 55 0 6 8 13 18 15 13 4 13 5
-4 6 -12 0 -34 -9 -49 -21 l-27 -21 7 23 c7 22 7 22 -16 6 -25 -17 -79 -22
-79 -7 0 5 10 16 23 25 22 17 22 17 -10 12 -40 -7 -42 4 -5 50 17 21 39 36 60
40 25 5 32 11 32 30 0 12 5 26 11 29 6 4 8 12 6 19 -3 7 11 12 37 14 46 3 62
-11 105 -95 25 -51 25 -51 4 -56 -11 -2 19 -22 80 -52 53 -26 97 -54 97 -62 0
-8 11 -13 28 -13 31 0 160 51 200 78 15 10 35 22 45 25 12 5 16 15 15 39 -2
26 1 33 14 32 10 -1 15 3 12 8 -8 12 16 68 28 68 6 0 8 6 5 14 -3 8 1 20 9 26
8 7 14 29 14 48 0 36 0 36 16 14 12 -18 54 -32 54 -18 0 16 -14 36 -26 36 -22
0 -16 26 9 39 20 10 20 11 -10 8 -18 -2 -33 -1 -33 2 1 13 37 50 65 66 17 9
21 13 10 9 -11 -3 -31 -8 -45 -10 -18 -3 -14 1 15 16 22 11 49 20 60 20 13 0
16 3 9 10 -8 8 -19 7 -38 -1 -16 -8 -30 -9 -34 -3 -4 5 -5 8 -3 7 2 -2 10 5
17 15 14 19 35 23 46 7 5 -6 8 -5 8 4 0 14 32 43 39 35 2 -2 -2 -10 -8 -18z
m-414 8 c-3 -3 -12 -4 -19 -1 -8 3 -5 6 6 6 11 1 17 -2 13 -5z m-249 -41 c6
-19 -25 -16 -32 3 -4 11 -1 14 11 12 9 -2 18 -9 21 -15z m-93 -3 c3 -5 -1 -10
-9 -10 -9 0 -16 5 -16 10 0 6 4 10 9 10 6 0 13 -4 16 -10z m362 -10 c-3 -13 0
-20 9 -20 27 0 -4 -38 -33 -42 -20 -2 -27 -8 -25 -20 2 -14 -4 -18 -28 -18
-27 0 -31 3 -28 23 2 17 8 21 27 19 27 -4 46 18 28 31 -8 6 -6 7 6 3 12 -4 20
2 27 19 11 30 25 34 17 5z m-277 -30 c0 -13 5 -18 15 -14 8 4 15 2 15 -3 0 -5
-19 -10 -42 -10 -24 -1 -35 1 -25 4 9 2 17 13 17 24 0 10 5 19 10 19 6 0 10
-9 10 -20z m68 -15 c6 -14 8 -25 4 -25 -12 0 -32 23 -32 37 0 22 16 15 28 -12z
m105 5 c-4 -14 -14 -20 -34 -20 -18 0 -32 7 -39 20 -10 19 -8 20 34 20 39 0
44 -2 39 -20z m210 -18 c12 2 21 8 20 13 -1 6 10 11 23 11 13 1 25 -2 26 -7 5
-32 1 -34 -58 -34 l-62 -1 12 25 c9 20 12 22 14 7 3 -11 11 -16 25 -14z m99
-172 c-15 -14 -28 -16 -75 -10 -66 9 -86 19 -66 31 7 4 18 4 24 0 5 -5 31 -11
58 -13 51 -6 58 3 36 43 -7 13 -7 30 -1 52 6 18 14 46 18 62 6 24 9 12 16 -59
8 -80 7 -90 -10 -106z m-32 129 c0 -5 -4 -8 -9 -5 -4 3 -25 -11 -45 -31 -41
-42 -50 -24 -9 19 26 28 63 38 63 17z m-220 -41 c0 -28 -3 -33 -25 -33 -22 0
-25 5 -25 33 0 28 3 32 25 32 22 0 25 -4 25 -32z m203 7 c-3 -9 -8 -14 -10
-11 -3 3 -2 9 2 15 9 16 15 13 8 -4z m-772 -34 c-9 -6 0 -9 25 -10 63 -2 83
-5 78 -12 -2 -4 0 -10 6 -14 5 -3 15 -16 20 -28 11 -21 11 -21 -4 -3 -9 11
-16 15 -16 9 0 -7 7 -19 16 -28 16 -15 15 -18 -9 -43 -23 -22 -37 -27 -97 -30
-61 -4 -75 -1 -115 22 -45 27 -58 46 -30 46 8 0 15 -4 15 -9 0 -5 8 -7 18 -4
12 3 23 -4 30 -19 7 -13 11 -16 8 -6 -3 10 3 18 16 22 18 4 19 8 9 20 -7 8
-26 18 -42 21 -16 4 -34 15 -39 25 -13 25 -13 33 2 24 7 -4 27 -9 45 -11 24
-3 35 2 43 17 6 11 16 20 23 20 8 0 8 -3 -2 -9z m293 -16 c-7 -28 0 -30 36
-10 27 15 60 20 60 8 0 -5 -24 -17 -53 -29 -44 -18 -66 -20 -120 -15 -4 1 -2
7 5 15 7 8 18 11 23 7 6 -5 19 -11 30 -15 17 -5 16 -3 -4 13 l-24 19 21 6 c12
4 22 12 22 17 0 5 2 9 5 9 3 0 3 -11 -1 -25z m869 -2 c-3 -7 -6 -13 -8 -13 -2
0 -5 6 -8 13 -3 8 1 14 8 14 7 0 11 -6 8 -14z m-1313 -13 c0 -5 -2 -10 -4 -10
-3 0 -8 5 -11 10 -3 6 -1 10 4 10 6 0 11 -4 11 -10z m582 -105 c-10 -21 -23
-35 -34 -35 -10 0 -18 -4 -18 -10 0 -21 41 -9 52 15 6 14 14 25 18 25 13 0 50
-94 40 -104 -15 -15 -99 -24 -114 -12 -7 6 -20 39 -29 73 l-15 63 37 6 c20 3
41 7 46 9 29 10 32 4 17 -30z m338 8 c0 -35 -34 -135 -47 -140 -25 -10 -31 11
-21 67 5 30 10 63 11 73 2 24 57 24 57 0z m-82 -8 c1 -1 -1 -33 -5 -71 -8 -68
-8 -69 -38 -69 -33 0 -32 -3 -24 107 4 46 4 46 34 41 16 -3 31 -7 33 -8z
m-102 -80 c-8 -8 -29 -15 -47 -15 -29 0 -31 2 -16 13 10 6 31 13 48 14 26 2
28 0 15 -12z m614 -2 c0 -2 -7 -11 -15 -19 -8 -9 -15 -27 -15 -41 0 -15 -7
-35 -17 -45 -9 -10 -21 -28 -27 -40 -6 -13 -20 -24 -31 -27 -11 -2 -24 -9 -28
-17 -4 -8 -21 -14 -36 -14 -15 0 -36 -9 -46 -20 -10 -11 -27 -20 -38 -20 -21
0 -21 0 -1 15 19 14 18 14 -3 15 -20 0 -26 -8 -25 -30 0 -3 -13 -5 -29 -6 -15
-1 -26 3 -23 7 3 5 12 9 20 9 13 0 18 12 15 32 -2 14 37 29 44 18 7 -12 76 -5
85 9 3 4 14 11 25 15 16 6 17 9 5 16 -8 5 -11 12 -6 17 4 4 12 0 17 -10 15
-25 38 -21 50 9 5 15 7 29 5 32 -3 2 4 12 15 21 10 9 20 30 21 46 1 17 3 33 5
37 4 7 33 -1 33 -9z m-1247 -45 c-2 -5 -10 -8 -18 -8 -8 0 -16 3 -18 8 -3 4 5
7 18 7 13 0 21 -3 18 -7z m602 -7 c3 -5 1 -12 -5 -16 -5 -3 -10 1 -10 9 0 18
6 21 15 7z m-527 -72 c5 14 42 -15 42 -32 0 -6 8 -20 17 -31 l18 -21 -25 21
c-14 11 -40 27 -58 34 -29 11 -72 56 -72 75 0 4 17 -8 37 -25 23 -21 39 -28
41 -21z m1176 11 c10 -13 9 -13 -6 -1 -10 7 -18 21 -17 30 0 13 1 14 6 1 3 -8
11 -22 17 -30z m-103 -93 c8 -7 32 -31 54 -55 31 -34 36 -45 25 -55 -10 -9
-14 -9 -17 1 -3 6 -17 13 -31 13 -17 1 -21 3 -9 6 18 5 24 23 7 23 -5 0 -10 9
-10 20 0 13 -5 18 -15 14 -11 -5 -13 -2 -8 12 5 13 3 16 -9 12 -9 -4 -15 0
-15 8 0 17 7 17 28 1z m-924 -3 c-3 -3 -12 -4 -19 -1 -8 3 -5 6 6 6 11 1 17
-2 13 -5z m2003 -14 c0 -5 -2 -10 -4 -10 -3 0 -8 5 -11 10 -3 6 -1 10 4 10 6
0 11 -4 11 -10z m-2206 -29 c3 -5 -1 -11 -9 -14 -9 -4 -12 -1 -8 9 6 16 10 17
17 5z m740 -16 c-10 -8 -26 -14 -34 -14 -9 0 -4 6 10 14 33 19 49 19 24 0z
m502 -69 c17 -18 18 -30 2 -20 -7 4 -1 -4 14 -18 45 -44 74 -115 36 -92 -7 5
-20 7 -30 6 -22 -4 -34 18 -17 29 20 13 31 11 23 -3 -5 -10 -4 -10 5 -2 10 9
10 16 -1 33 -7 11 -19 21 -26 21 -21 0 -45 27 -29 33 6 3 1 6 -13 7 -23 1 -23
2 -5 10 11 5 21 9 23 9 2 1 10 -5 18 -13z m-762 -21 c-4 -8 -10 -15 -15 -15
-5 0 -9 7 -9 15 0 8 7 15 15 15 9 0 12 -6 9 -15z m-34 -17 c0 -5 -18 -8 -40
-8 -22 0 -40 4 -40 9 0 5 18 8 40 8 22 -1 40 -5 40 -9z m810 -28 c0 -5 -5 -10
-11 -10 -5 0 -7 5 -4 10 3 6 8 10 11 10 2 0 4 -4 4 -10z m-879 -18 c-7 -2 -18
1 -23 6 -8 8 -4 9 13 5 13 -4 18 -8 10 -11z m-39 -19 c-6 -2 -9 -10 -6 -15 4
-7 2 -8 -5 -4 -13 9 -5 26 12 25 9 0 8 -2 -1 -6z m-42 -27 c0 -2 -7 -7 -16
-10 -8 -3 -12 -2 -9 4 6 10 25 14 25 6z m1767 -28 c-3 -8 -6 -5 -6 6 -1 11 2
17 5 13 3 -3 4 -12 1 -19z m-743 -4 c9 -23 7 -34 -5 -34 -5 0 -8 4 -4 9 3 5
-2 17 -11 25 -13 14 -13 16 -1 16 8 0 18 -7 21 -16z m-470 -20 c-19 -15 -19
-16 1 -9 42 14 49 15 28 4 -13 -7 -23 -15 -23 -20 0 -4 -9 -5 -20 -2 -11 3
-18 9 -15 13 6 9 -25 23 -33 15 -3 -3 0 -5 6 -5 7 0 12 -4 12 -9 0 -4 -12 -6
-26 -3 -36 7 -15 24 38 32 52 7 57 5 32 -16z m-240 -4 c-22 -9 -29 -6 -20 9 4
6 14 7 23 4 15 -6 14 -7 -3 -13z m355 -37 c2 -2 -5 -3 -16 -3 -11 0 -20 7 -20
15 0 12 3 12 16 3 9 -7 18 -14 20 -15z m363 3 c5 -7 8 -3 8 9 0 17 2 17 10 5
13 -21 12 -27 -5 -34 -22 -8 -65 11 -65 29 0 12 6 15 23 9 12 -4 25 -12 29
-18z m-1019 7 c3 -5 -12 -8 -34 -8 -21 0 -39 3 -39 8 0 4 15 7 34 7 19 0 37
-3 39 -7z m328 -15 c40 -20 42 -23 20 -26 -15 -2 -30 3 -37 12 -15 21 -48 22
-40 1 6 -18 7 -18 -33 -4 -17 6 -31 16 -31 22 0 6 3 8 6 5 3 -3 17 -2 32 2 15
5 30 9 33 9 3 1 25 -9 50 -21z m154 13 c3 -6 -10 -17 -29 -26 -32 -15 -36 -15
-72 3 l-38 19 68 -3 c44 -3 65 -1 61 6 -3 5 -4 10 -1 10 3 0 7 -4 11 -9z m275
5 c0 -2 -7 -9 -15 -16 -13 -11 -14 -10 -9 4 5 14 24 23 24 12z m-210 -20 c0
-3 -4 -8 -10 -11 -5 -3 -10 -1 -10 4 0 6 5 11 10 11 6 0 10 -2 10 -4z m-33
-12 c-3 -3 -12 -4 -19 -1 -8 3 -5 6 6 6 11 1 17 -2 13 -5z m78 -16 c40 5 48
-14 13 -27 -25 -9 -71 16 -60 34 3 5 7 5 9 -1 2 -5 19 -8 38 -6z m465 -22 c0
-6 -6 -4 -13 5 -7 9 -19 14 -27 12 -13 -4 -13 -3 0 6 16 11 40 -3 40 -23z
m-1230 14 c0 -5 -10 -10 -22 -9 -22 0 -22 1 -3 9 11 5 21 9 23 9 1 1 2 -3 2
-9z m445 -20 c3 -6 -1 -7 -9 -4 -18 7 -21 14 -7 14 6 0 13 -4 16 -10z m42 4
c-3 -3 -12 -4 -19 -1 -8 3 -5 6 6 6 11 1 17 -2 13 -5z m180 -7 c2 -3 -14 -9
-37 -15 -22 -5 -37 -6 -34 -1 3 5 -4 9 -15 9 -11 0 -22 4 -25 9 -6 8 102 6
111 -2z m213 -30 c0 -5 6 -2 14 6 12 12 22 12 50 3 20 -6 36 -14 36 -18 0 -3
10 -4 23 -2 20 4 20 4 2 -5 -11 -5 -33 -6 -49 -3 -21 4 -27 2 -22 -6 4 -7 14
-12 23 -12 9 0 14 -3 11 -6 -3 -3 -30 2 -59 10 -29 9 -66 16 -82 16 -36 0 -31
9 6 12 15 1 27 6 27 10 0 4 -14 5 -31 3 -30 -4 -30 -3 -14 15 16 18 19 18 41
2 13 -9 24 -21 24 -25z m-700 24 c0 -15 -16 -22 -35 -15 -13 5 -14 8 -3 15 18
12 38 11 38 0z m590 -14 c-8 -7 -16 -19 -18 -27 -2 -8 -8 -17 -13 -18 -5 -2
-7 -7 -4 -12 6 -10 -36 0 -52 13 -25 19 -13 29 30 23 23 -3 36 -3 28 0 -10 5
-8 10 10 20 30 17 39 17 19 1z m1113 -17 c-3 -11 -9 -17 -14 -15 -10 7 -1 35
11 35 5 0 6 -9 3 -20z m-1858 0 c3 -5 1 -10 -4 -10 -6 0 -11 5 -11 10 0 6 2
10 4 10 3 0 8 -4 11 -10z m55 1 c0 -5 -9 -7 -20 -4 -11 3 -20 7 -20 9 0 2 9 4
20 4 11 0 20 -4 20 -9z m330 5 c0 -2 -7 -6 -15 -10 -8 -3 -15 -1 -15 4 0 6 7
10 15 10 8 0 15 -2 15 -4z m135 -16 c-3 -5 -12 -10 -20 -10 -8 0 -17 5 -20 10
-4 6 5 10 20 10 15 0 24 -4 20 -10z m111 -9 c-3 -5 -16 -11 -28 -14 -22 -6
-22 -5 -4 8 22 17 40 20 32 6z m-651 -19 c-3 -3 -11 0 -18 7 -9 10 -8 11 6 5
10 -3 15 -9 12 -12z m482 3 c0 -8 -4 -12 -9 -9 -5 3 -6 10 -3 15 9 13 12 11
12 -6z m404 -11 c10 -13 10 -17 -2 -25 -22 -14 -36 -10 -16 5 18 14 18 15 0
25 -10 6 -13 11 -7 11 6 0 17 -7 25 -16z m-773 -22 c-8 -9 -14 -9 -24 -1 -18
15 -18 14 10 14 18 0 22 -3 14 -13z m322 -2 c-8 -5 -18 -6 -24 -3 -5 4 -1 10
10 13 24 9 34 2 14 -10z m105 10 c3 -5 1 -10 -4 -10 -6 0 -11 5 -11 10 0 6 2
10 4 10 3 0 8 -4 11 -10z m-150 -10 c3 -5 1 -10 -4 -10 -6 0 -11 5 -11 10 0 6
2 10 4 10 3 0 8 -4 11 -10z m372 -1 c-11 -7 -23 -7 -28 -2 -5 5 3 9 19 11 24
1 25 0 9 -9z m-103 -14 c5 -15 -63 -13 -89 3 -17 9 -12 11 32 9 29 -1 54 -6
57 -12z m61 -4 c17 -11 17 -12 2 -7 -10 3 -25 6 -33 6 -8 0 -14 4 -14 9 0 12
20 9 45 -8z m245 9 c-8 -5 -19 -10 -25 -10 -5 0 -3 5 5 10 8 5 20 10 25 10 6
0 3 -5 -5 -10z m40 0 c0 -5 -2 -10 -4 -10 -3 0 -8 5 -11 10 -3 6 -1 10 4 10 6
0 11 -4 11 -10z m-151 -17 c3 -2 -3 -11 -13 -21 -16 -16 -18 -16 -30 1 -7 9
-21 17 -30 17 -10 0 -14 5 -11 10 6 10 72 4 84 -7z m-279 -33 c13 -8 13 -10
-2 -10 -9 0 -20 5 -23 10 -8 13 5 13 25 0z m214 -11 c-8 -13 -21 -11 -27 5 -4
10 0 12 14 9 10 -3 16 -9 13 -14z m96 6 c-7 -8 -20 -15 -29 -15 -11 0 -8 5 9
14 33 19 35 19 20 1z m-140 -5 c8 -5 12 -11 10 -14 -3 -2 -14 2 -24 10 -22 15
-10 19 14 4z m-215 -10 c-3 -5 -14 -10 -23 -11 -14 0 -13 -2 3 -9 17 -6 14 -9
-18 -15 -33 -6 -42 -4 -60 15 l-22 22 37 -5 c21 -3 40 -1 43 4 4 5 15 9 26 9
11 0 17 -4 14 -10z m175 -16 c0 -3 -14 -10 -31 -16 -32 -11 -32 -11 -9 -23 22
-12 22 -12 -8 -11 -16 0 -28 4 -25 9 2 4 -5 7 -16 7 -12 0 -21 6 -21 13 0 9 9
12 29 9 16 -2 32 1 35 7 7 11 46 16 46 5z m35 -32 c-3 -3 -11 0 -18 7 -9 10
-8 11 6 5 10 -3 15 -9 12 -12z m235 3 c0 -2 -10 -10 -22 -16 -21 -11 -22 -11
-9 4 13 16 31 23 31 12z m-597 -17 c-6 -11 -53 -10 -53 1 0 4 13 8 29 7 16 -1
27 -4 24 -8z m397 8 c0 -2 -7 -7 -16 -10 -8 -3 -12 -2 -9 4 6 10 25 14 25 6z
m-1532 -50 c3 -21 8 -27 21 -23 10 2 23 -4 30 -14 6 -11 22 -19 36 -19 18 0
23 -4 19 -15 -4 -8 -12 -15 -20 -15 -8 0 -14 -4 -14 -9 0 -13 -37 -2 -51 15
-9 11 -9 17 0 28 9 11 6 15 -13 18 -21 4 -26 1 -29 -21 -4 -23 -4 -22 -6 6 0
17 5 34 12 37 8 3 7 8 -6 16 -9 6 -15 16 -11 21 11 18 29 3 32 -25z m1998 22
c4 -6 3 -8 -3 -5 -6 4 -13 0 -17 -8 -3 -8 -1 -15 4 -15 6 0 10 -6 10 -14 0
-15 -24 -16 -37 -1 -4 4 -2 5 5 1 6 -4 12 -3 12 1 0 5 -6 15 -12 22 -8 9 -8
11 -2 8 7 -4 14 0 18 8 7 18 12 19 22 3z m-371 -18 c3 -5 -1 -10 -9 -10 -9 0
-16 5 -16 10 0 6 4 10 9 10 6 0 13 -4 16 -10z m-42 -7 c-7 -2 -19 -2 -25 0 -7
3 -2 5 12 5 14 0 19 -2 13 -5z m397 -63 c0 -14 -6 -19 -20 -17 -22 4 -39 17
-21 17 7 0 9 5 6 10 -3 6 3 10 14 10 14 0 21 -6 21 -20z m-97 -4 c4 -10 1 -13
-8 -9 -8 3 -12 9 -9 14 7 12 11 11 17 -5z m-53 -47 c-7 -11 -14 -18 -17 -15
-3 3 0 12 7 21 18 21 23 19 10 -6z m133 -12 c-4 -18 -10 -26 -19 -23 -7 3 -15
0 -18 -7 -2 -7 -5 3 -5 21 -1 18 3 31 7 28 4 -2 14 -1 22 4 19 11 19 10 13
-23z m-523 -23 c0 -2 -9 -4 -21 -4 -11 0 -18 4 -14 10 5 8 35 3 35 -6z m-1332
-22 c2 -12 -1 -22 -7 -22 -6 0 -11 4 -11 9 0 5 -3 17 -7 27 -4 12 -2 15 8 12
8 -2 15 -14 17 -26z m1786 20 c3 -5 -1 -9 -9 -9 -8 0 -12 4 -9 9 3 4 7 8 9 8
2 0 6 -4 9 -8z m-391 -9 c-7 -2 -19 -2 -25 0 -7 3 -2 5 12 5 14 0 19 -2 13 -5z
m411 -93 c-20 -40 -43 -74 -50 -77 -8 -3 -12 -8 -10 -12 3 -4 -9 -23 -25 -42
-17 -19 -37 -44 -46 -56 -22 -33 -140 -125 -206 -161 -31 -18 -91 -43 -133
-57 -96 -31 -96 -32 -83 -57 9 -17 13 -18 20 -7 5 8 9 9 9 3 0 -19 -24 -33
-68 -40 -23 -4 -45 -11 -48 -15 -3 -5 -14 -9 -24 -9 -10 0 -20 -4 -22 -9 -1
-5 -29 -11 -60 -13 -47 -2 -58 -6 -58 -20 0 -17 -18 -21 -30 -7 -3 3 -20 9
-37 12 -30 6 -33 4 -33 -18 0 -26 -15 -34 -23 -12 -3 9 -10 7 -25 -7 -12 -10
-28 -16 -37 -13 -10 5 -15 0 -16 -16 -1 -21 -1 -21 -9 3 -4 14 -9 21 -9 15 -1
-5 -4 -27 -7 -49 l-6 -39 34 7 c18 3 40 1 48 -4 10 -7 -20 -10 -93 -10 -118 0
-137 7 -137 54 0 14 -5 37 -12 51 -9 19 -9 28 0 37 23 23 8 126 -29 203 -10
22 -20 54 -21 70 -1 17 -13 41 -25 55 -13 14 -23 29 -23 35 0 13 54 -45 63
-68 3 -9 10 -16 15 -15 10 3 83 -32 97 -47 14 -15 83 -37 94 -30 5 3 12 1 16
-5 3 -5 15 -10 26 -10 11 0 18 4 15 9 -3 4 6 7 19 5 14 -1 27 2 31 7 3 5 -7 9
-22 9 -45 0 -22 9 34 12 28 2 52 0 52 -4 0 -4 -11 -8 -25 -8 -26 0 -34 -14
-12 -24 6 -3 3 -5 -8 -4 -25 2 -78 -13 -71 -19 3 -3 31 -7 63 -10 31 -2 60 -7
63 -11 8 -12 70 -15 70 -4 0 6 -8 9 -17 7 -22 -3 -73 22 -73 35 0 15 20 12 26
-4 3 -8 12 -17 21 -20 11 -4 13 -2 9 9 -5 14 4 19 32 16 6 -1 12 3 12 9 0 5 4
10 10 10 5 0 7 -7 4 -15 -4 -10 0 -15 12 -15 16 0 17 -2 4 -11 -11 -8 -1 -9
37 -6 29 2 50 0 47 -5 -5 -7 39 -13 61 -8 6 1 16 3 23 3 9 0 8 5 -3 17 -10 11
-27 15 -52 13 -35 -2 -63 10 -63 28 0 5 11 4 25 -1 19 -7 33 -5 59 11 22 13
37 16 41 9 3 -5 15 -10 26 -10 11 0 17 5 14 10 -3 6 4 10 16 10 21 0 21 -1 5
-19 -17 -18 -17 -20 1 -30 12 -6 25 -6 34 0 10 6 6 9 -16 10 l-30 1 35 10 c19
5 42 16 50 24 12 12 9 14 -25 15 -22 1 -44 1 -50 0 -5 -1 -2 5 7 12 10 8 14
18 10 23 -4 5 2 1 14 -9 28 -23 35 -21 30 8 -3 18 0 25 11 25 13 0 13 -2 2
-16 -12 -15 -10 -16 21 -10 l35 6 -30 -14 -30 -15 40 6 c22 3 43 11 47 16 4 7
12 6 23 -3 12 -10 15 -10 13 -1 -2 7 14 27 35 44 29 24 46 31 75 29 30 -2 34
0 19 9 -9 5 -22 7 -27 4 -9 -6 -14 8 -11 29 1 4 -10 5 -24 2 -14 -4 -25 -2
-25 4 0 5 3 9 8 8 4 -1 17 2 30 6 14 5 28 3 37 -4 11 -9 15 -9 15 -1 0 6 -4
11 -10 11 -5 0 -10 12 -10 26 0 20 -4 25 -16 20 -9 -4 -13 -2 -8 5 3 6 17 9
30 6 12 -2 29 0 36 4 9 6 8 9 -7 9 -16 0 -17 2 -5 9 8 6 17 8 21 5 4 -2 10 0
14 6 3 5 11 10 17 10 6 0 5 -7 -3 -17 -11 -15 -11 -16 1 -6 9 9 17 9 26 2 8
-7 14 -7 19 1 3 5 -1 10 -11 10 -13 0 -14 3 -4 15 10 12 10 15 -3 15 -19 0
-28 22 -16 41 8 14 10 12 13 -12 0 -7 9 -15 19 -18 10 -4 18 -11 17 -16 -1 -5
3 -11 8 -13 12 -4 35 51 36 87 1 18 5 27 13 24 7 -3 16 3 20 13 4 10 8 13 10
7 3 -7 -12 -44 -33 -83z m-46 25 c-3 -3 -9 2 -12 12 -6 14 -5 15 5 6 7 -7 10
-15 7 -18z m22 -10 c-6 -15 -13 -25 -16 -23 -2 3 1 17 7 32 16 34 23 27 9 -9z
m-240 21 c0 -2 -7 -7 -16 -10 -8 -3 -12 -2 -9 4 6 10 25 14 25 6z m41 -40 c-9
-11 -9 -15 1 -19 8 -4 7 -6 -4 -6 -10 -1 -18 4 -18 10 0 5 -6 7 -12 4 -7 -4
-2 2 12 13 27 22 40 21 21 -2z m-684 8 c-3 -3 -12 -4 -19 -1 -8 3 -5 6 6 6 11
1 17 -2 13 -5z m346 -25 l22 -21 -23 11 c-12 7 -27 9 -32 6 -5 -3 -12 0 -16 6
-4 8 -3 9 4 5 7 -4 12 -2 12 3 0 16 8 13 33 -10z m-63 -3 c0 -2 -13 -9 -30
-15 -35 -12 -41 -5 -7 9 25 10 37 12 37 6z m-150 -50 c0 -2 -9 -6 -20 -9 -11
-3 -18 -1 -14 4 5 9 34 13 34 5z m454 -15 c3 -5 -6 -11 -21 -14 -26 -5 -26 -4
-8 9 22 17 22 17 29 5z m-521 -8 c-7 -2 -19 -2 -25 0 -7 3 -2 5 12 5 14 0 19
-2 13 -5z m-65 -30 c-10 -2 -26 -2 -35 0 -10 3 -2 5 17 5 19 0 27 -2 18 -5z
m641 -2 c11 -1 11 -4 -2 -19 -18 -19 -12 -35 17 -46 29 -10 6 -25 -31 -19 -22
4 -30 9 -26 19 4 10 -3 14 -21 14 -16 0 -26 6 -26 15 0 8 5 15 11 15 5 0 8 -4
5 -9 -10 -15 43 -9 56 7 11 13 10 14 -8 8 -14 -4 -21 -2 -21 8 0 7 7 12 16 11
9 -2 22 -4 30 -4z m41 0 c0 -6 -4 -13 -10 -16 -5 -3 -10 1 -10 9 0 9 5 16 10
16 6 0 10 -4 10 -9z m-173 -17 c-3 -3 -12 -4 -19 -1 -8 3 -5 6 6 6 11 1 17 -2
13 -5z m-294 -21 c-7 -2 -19 -2 -25 0 -7 3 -2 5 12 5 14 0 19 -2 13 -5z
m-1005 -23 c15 0 40 -11 56 -25 16 -14 26 -25 21 -25 -4 0 -2 -7 6 -16 8 -9 9
-18 3 -22 -5 -4 -15 -18 -21 -32 -8 -17 -12 -20 -12 -8 -1 10 -13 19 -31 23
-16 4 -30 11 -30 16 0 5 -17 9 -38 9 -21 0 -43 5 -49 11 -12 12 -37 3 -28 -10
6 -11 -121 -44 -145 -38 -11 3 -20 1 -20 -5 0 -5 -5 -6 -12 -2 -8 5 -5 11 10
17 12 6 22 14 22 18 0 15 -22 21 -33 10 -6 -6 -16 -11 -21 -11 -6 0 0 7 13 16
17 12 26 13 34 5 18 -18 38 -13 63 15 13 14 24 19 24 13 0 -10 3 -10 12 -1 9
9 15 9 27 -1 8 -6 12 -7 8 -1 -3 6 2 10 11 10 44 0 75 5 70 10 -4 3 1 13 10
23 10 9 19 13 20 9 2 -4 16 -8 30 -8z m392 0 c0 -5 -2 -10 -4 -10 -3 0 -8 5
-11 10 -3 6 -1 10 4 10 6 0 11 -4 11 -10z m930 2 c0 -5 -18 -20 -40 -35 -40
-26 -40 -26 -51 -5 -10 19 -9 20 14 14 17 -4 32 0 48 14 28 22 29 23 29 12z
m-1030 -6 c0 -2 -9 -6 -20 -9 -11 -3 -18 -1 -14 4 5 9 34 13 34 5z m-200 -16
c0 -5 -5 -10 -11 -10 -5 0 -7 5 -4 10 3 6 8 10 11 10 2 0 4 -4 4 -10z m803 3
c-7 -2 -19 -2 -25 0 -7 3 -2 5 12 5 14 0 19 -2 13 -5z m-326 -9 c-3 -3 -12 -4
-19 -1 -8 3 -5 6 6 6 11 1 17 -2 13 -5z m53 2 c0 -2 -9 -6 -20 -9 -11 -3 -18
-1 -14 4 5 9 34 13 34 5z m-129 -47 c7 -15 6 -17 -6 -13 -8 4 -15 12 -15 20 0
8 -4 14 -10 14 -5 0 -10 5 -10 11 0 15 27 -7 41 -32z m623 32 c3 -5 -14 -11
-38 -13 -35 -2 -42 0 -34 9 12 15 64 17 72 4z m-114 -21 c0 -5 -10 -10 -22 -9
-22 0 -22 1 -3 9 11 5 21 9 23 9 1 1 2 -3 2 -9z m150 1 c0 -5 -7 -11 -15 -15
-15 -5 -20 5 -8 17 9 10 23 9 23 -2z m-253 -37 c-3 -3 -12 -4 -19 -1 -8 3 -5
6 6 6 11 1 17 -2 13 -5z m-297 -8 c0 -11 -19 -15 -25 -6 -3 5 1 10 9 10 9 0
16 -2 16 -4z m246 -21 c-24 -18 -33 -19 -42 -3 -5 7 -2 9 8 6 8 -4 21 -2 29 3
22 14 26 10 5 -6z m114 5 c-8 -5 -22 -9 -30 -9 -10 0 -8 3 5 9 27 12 43 12 25
0z m60 0 c0 -5 -4 -10 -10 -10 -5 0 -10 5 -10 10 0 6 5 10 10 10 6 0 10 -4 10
-10z m69 -12 c-5 -10 -20 -18 -32 -17 l-22 0 23 10 c13 5 21 13 18 17 -3 5 1
9 9 9 10 0 11 -5 4 -19z m-392 6 c-3 -3 -12 -4 -19 -1 -8 3 -5 6 6 6 11 1 17
-2 13 -5z m56 -1 c-7 -2 -19 -2 -25 0 -7 3 -2 5 12 5 14 0 19 -2 13 -5z m414
1 c-3 -3 -12 -4 -19 -1 -8 3 -5 6 6 6 11 1 17 -2 13 -5z m-524 -18 c3 4 14 4
23 0 13 -5 15 -9 6 -18 -9 -9 -18 -8 -37 2 -14 7 -25 18 -25 23 0 5 6 4 13 -2
8 -6 17 -8 20 -5z m247 4 c0 -5 -4 -10 -9 -10 -6 0 -13 5 -16 10 -3 6 1 10 9
10 9 0 16 -4 16 -10z m-932 -25 c-3 -3 -9 2 -12 12 -6 14 -5 15 5 6 7 -7 10
-15 7 -18z m969 19 c-3 -3 -12 -4 -19 -1 -8 3 -5 6 6 6 11 1 17 -2 13 -5z
m-899 -45 c2 -28 0 -30 -25 -27 -32 4 -41 28 -18 51 22 22 40 12 43 -24z m892
22 c0 -5 -9 -7 -20 -4 -11 3 -20 7 -20 9 0 2 9 4 20 4 11 0 20 -4 20 -9z
m-437 -116 c-6 -16 -16 -19 -26 -8 -9 8 13 34 24 28 4 -3 6 -12 2 -20z m-523
11 c0 -11 -19 -15 -25 -6 -3 5 1 10 9 10 9 0 16 -2 16 -4z m1680 -66 c0 -5 -4
-10 -10 -10 -5 0 -10 5 -10 10 0 6 5 10 10 10 6 0 10 -4 10 -10z m-636 -113
c13 -3 8 -5 -12 -6 -24 -1 -31 2 -26 12 6 9 4 9 -8 -1 -11 -9 -18 -10 -23 -2
-3 5 -1 10 6 10 7 0 9 3 6 7 -4 3 -1 13 6 21 10 13 13 12 21 -11 5 -14 19 -28
30 -30z"/>
<path d="M2572 2074 c-18 -8 -30 -19 -26 -25 4 -7 12 -5 23 5 9 8 28 19 41 25
14 5 18 10 10 10 -8 -1 -30 -7 -48 -15z"/>
<path d="M2518 2043 c-2 -5 -1 -24 3 -43 7 -35 7 -35 6 8 -1 42 -3 48 -9 35z"/>
<path d="M2606 1972 c-3 -5 1 -9 9 -9 8 0 12 4 9 9 -3 4 -7 8 -9 8 -2 0 -6 -4
-9 -8z"/>
<path d="M1795 1910 c-3 -5 1 -10 9 -10 8 0 18 5 21 10 3 6 -1 10 -9 10 -8 0
-18 -4 -21 -10z"/>
<path d="M2330 1905 c0 -8 2 -15 4 -15 2 0 6 7 10 15 3 8 1 15 -4 15 -6 0 -10
-7 -10 -15z"/>
<path d="M2505 1844 l-30 -13 27 -1 c15 0 30 5 33 11 11 16 2 17 -30 3z"/>
<path d="M2010 1715 c0 -8 4 -15 10 -15 5 0 7 7 4 15 -4 8 -8 15 -10 15 -2 0
-4 -7 -4 -15z"/>
<path d="M2125 1690 c-8 -13 45 -13 65 0 11 7 6 10 -22 10 -20 0 -40 -4 -43
-10z"/>
<path d="M1912 1665 c-7 -8 -9 -15 -4 -15 5 0 15 7 22 15 16 19 -1 19 -18 0z"/>
<path d="M1514 2008 c1 -17 7 -33 14 -36 11 -3 12 0 3 16 -8 16 -7 21 5 26 17
7 10 26 -10 26 -8 0 -13 -12 -12 -32z"/>
<path d="M1625 2010 c-3 -5 -1 -10 4 -10 6 0 11 5 11 10 0 6 -2 10 -4 10 -3 0
-8 -4 -11 -10z"/>
<path d="M1540 2001 c0 -5 7 -12 16 -15 24 -9 28 -7 14 9 -14 17 -30 20 -30 6z"/>
<path d="M1907 1984 c-9 -10 2 -24 18 -24 9 0 12 6 9 15 -6 16 -17 19 -27 9z"/>
<path d="M2250 1959 c0 -12 5 -16 15 -13 8 4 15 12 15 18 0 7 -7 13 -15 13 -8
0 -15 -8 -15 -18z"/>
<path d="M2180 1953 c0 -15 -2 -16 -10 -3 -5 8 -10 10 -10 4 0 -5 7 -19 16
-30 10 -12 14 -14 11 -4 -2 8 0 23 5 33 5 11 5 17 -2 17 -5 0 -10 -8 -10 -17z"/>
<path d="M2670 625 c-8 -10 -17 -12 -29 -5 -13 6 -18 5 -18 -6 0 -7 6 -14 14
-14 7 0 13 -4 13 -9 0 -5 10 -8 23 -8 17 0 22 6 24 28 2 32 -8 37 -27 14z"/>
<path d="M2635 530 c4 -6 11 -8 16 -5 14 9 11 15 -7 15 -8 0 -12 -5 -9 -10z"/>
<path d="M2551 481 c-13 -10 -19 -21 -14 -24 5 -3 22 5 39 18 34 29 12 34 -25
6z"/>
<path d="M2230 371 c0 -10 39 -59 40 -51 8 37 8 50 1 45 -5 -3 -12 -1 -16 5
-8 12 -25 13 -25 1z"/>
<path d="M2058 303 c7 -3 16 -2 19 1 4 3 -2 6 -13 5 -11 0 -14 -3 -6 -6z"/>
<path d="M1970 278 c0 -5 6 -8 13 -9 6 0 27 -2 45 -5 19 -2 41 0 50 5 11 6 -3
10 -46 13 -34 1 -62 0 -62 -4z"/>
<path d="M2005 240 c-3 -5 -2 -10 4 -10 5 0 13 5 16 10 3 6 2 10 -4 10 -5 0
-13 -4 -16 -10z"/>
<path d="M1096 354 c-9 -23 -8 -24 12 -23 9 0 12 3 5 5 -7 3 -9 12 -6 20 3 8
3 14 0 14 -3 0 -8 -7 -11 -16z"/>
<path d="M1285 4110 c28 -12 55 -12 55 0 0 6 -17 10 -37 9 -31 0 -34 -2 -18
-9z"/>
<path d="M1580 3954 c0 -12 -49 -34 -75 -34 -39 0 -102 -100 -72 -114 7 -4 -5
-4 -26 -2 -27 4 -37 1 -34 -7 5 -17 61 -21 88 -6 20 10 21 9 15 -7 -9 -22 -9
-23 -7 -46 1 -11 9 -18 22 -18 11 0 17 -4 14 -10 -3 -5 -1 -10 4 -10 6 0 11 7
11 15 0 8 -9 15 -20 15 -11 0 -20 5 -20 11 0 7 10 9 25 7 13 -3 26 0 29 6 3 7
11 4 20 -8 12 -15 27 -19 66 -17 39 1 50 -2 50 -14 0 -10 10 -15 30 -15 27 0
30 3 30 30 0 25 4 30 23 30 25 0 64 37 69 67 4 24 -27 67 -42 58 -7 -4 -14 2
-17 15 -5 18 -11 21 -34 16 -18 -3 -31 -1 -36 8 -4 7 -21 16 -38 19 -16 4 -40
9 -52 13 -13 3 -23 2 -23 -2z m-52 -169 c0 -15 -6 -25 -14 -25 -17 0 -18 37
-1 43 6 3 13 6 13 6 1 1 2 -10 2 -24z"/>
<path d="M2466 3923 c-6 -14 -5 -15 5 -6 7 7 10 15 7 18 -3 3 -9 -2 -12 -12z"/>
<path d="M2413 3913 c9 -2 23 -2 30 0 6 3 -1 5 -18 5 -16 0 -22 -2 -12 -5z"/>
<path d="M1375 3830 c-3 -5 1 -10 9 -10 8 0 18 5 21 10 3 6 -1 10 -9 10 -8 0
-18 -4 -21 -10z"/>
<path d="M1345 3791 c-3 -5 -2 -12 3 -15 5 -3 9 1 9 9 0 17 -3 19 -12 6z"/>
<path d="M2326 3774 c-4 -9 -9 -14 -13 -11 -9 10 -32 -25 -33 -50 0 -25 -24
-41 -67 -45 -26 -2 -30 -6 -31 -31 0 -19 7 -36 20 -47 19 -15 18 -47 -1 -35
-8 5 -25 -55 -18 -62 3 -2 12 0 21 3 12 5 16 14 12 28 -4 18 -3 19 7 6 7 -8
17 -16 22 -16 6 -1 24 -5 42 -9 27 -5 34 -2 54 24 13 17 30 31 38 31 10 0 12
-3 5 -8 -6 -4 -19 -22 -28 -40 -16 -30 -16 -36 -2 -50 8 -10 15 -21 15 -27 0
-5 9 -11 19 -13 15 -2 21 5 27 30 4 18 7 37 6 42 -11 51 -11 86 -2 86 6 0 11
-5 11 -12 0 -19 29 25 30 45 0 21 -19 22 -27 1 -4 -11 -10 -3 -20 26 -11 33
-12 45 -3 54 9 8 11 6 5 -11 -4 -14 -2 -23 4 -23 6 0 11 16 11 35 0 19 -4 35
-10 35 -5 0 -10 8 -10 18 0 15 -2 15 -11 2 -8 -12 -9 -9 -5 13 5 20 2 27 -8
27 -8 0 -18 -5 -21 -10 -5 -8 -11 -8 -20 0 -9 8 -14 6 -19 -6z m84 -144 c0 -5
-2 -10 -4 -10 -3 0 -8 5 -11 10 -3 6 -1 10 4 10 6 0 11 -4 11 -10z"/>
<path d="M1890 3683 c-24 -30 -27 -39 -15 -41 8 -2 15 -11 15 -20 1 -17 33
-62 44 -62 3 0 6 11 6 24 0 12 5 38 12 56 9 26 9 35 0 38 -7 2 -12 12 -12 23
0 29 -15 23 -50 -18z"/>
<path d="M2255 3480 c-18 -8 -17 -9 8 -9 16 -1 26 3 22 9 -3 6 -7 10 -8 9 -1
0 -11 -4 -22 -9z"/>
<path d="M1796 2993 c-4 -4 -15 -8 -24 -8 -9 0 -17 -8 -18 -18 -1 -12 -1 -13
3 -2 6 21 23 19 23 -2 0 -14 2 -15 9 -5 4 7 14 12 22 10 8 -2 14 3 14 11 0 17
-18 25 -29 14z m24 -13 c0 -5 -2 -10 -4 -10 -3 0 -8 5 -11 10 -3 6 -1 10 4 10
6 0 11 -4 11 -10z"/>
<path d="M2351 2904 c0 -11 3 -14 6 -6 3 7 2 16 -1 19 -3 4 -6 -2 -5 -13z"/>
<path d="M2138 2823 c7 -3 16 -2 19 1 4 3 -2 6 -13 5 -11 0 -14 -3 -6 -6z"/>
<path d="M1910 2687 c0 -28 19 -57 38 -57 11 0 13 3 5 8 -6 4 -19 21 -27 37
-11 21 -16 24 -16 12z"/>
<path d="M2008 2693 c7 -3 16 -2 19 1 4 3 -2 6 -13 5 -11 0 -14 -3 -6 -6z"/>
<path d="M2040 2688 c0 -4 30 -8 68 -7 77 1 73 6 -10 12 -32 2 -58 0 -58 -5z"/>
<path d="M2130 2655 l-55 -13 50 -1 c28 0 61 6 75 14 22 12 22 14 5 13 -11 0
-45 -6 -75 -13z"/>
<path d="M2018 2653 c7 -3 16 -2 19 1 4 3 -2 6 -13 5 -11 0 -14 -3 -6 -6z"/>
<path d="M1771 2608 c0 -27 4 -48 9 -48 11 0 11 21 0 65 -7 27 -8 25 -9 -17z"/>
<path d="M1876 2630 c15 -54 42 -96 64 -97 21 -2 21 -1 6 16 -9 10 -16 23 -16
29 0 7 -5 12 -10 12 -6 0 -20 15 -31 33 -17 27 -19 28 -13 7z"/>
<path d="M2279 2624 c-21 -24 -42 -64 -37 -70 9 -9 60 55 56 71 -3 16 -4 16
-19 -1z"/>
</g>
</svg>
