<?xml version="1.0" standalone="no"?>
<!DOCTYPE svg PUBLIC "-//W3C//DTD SVG 20010904//EN"
 "http://www.w3.org/TR/2001/REC-SVG-20010904/DTD/svg10.dtd">
<svg version="1.0" xmlns="http://www.w3.org/2000/svg"
 width="369.000000pt" height="366.000000pt" viewBox="0 0 369.000000 366.000000"
 preserveAspectRatio="xMidYMid meet">

<g transform="translate(0.000000,366.000000) scale(0.100000,-0.100000)"
fill="#000000" stroke="none">
<path d="M1 2363 c0 -920 3 -1291 11 -1273 18 43 158 481 184 575 13 50 40
178 59 285 45 259 105 493 146 570 17 33 49 75 69 94 44 39 130 74 215 87 67
10 496 10 650 0 l100 -6 -3 -80 c-2 -44 1 -100 7 -125 8 -36 7 -48 -5 -61 -14
-16 -13 -18 13 -31 25 -12 28 -18 27 -63 -1 -28 -7 -69 -15 -93 -13 -43 -6
-76 16 -73 11 1 12 5 14 46 0 14 12 37 25 50 16 16 26 41 31 74 7 53 30 85 44
62 6 -10 20 -6 58 15 l50 28 118 -21 c98 -18 123 -27 146 -49 31 -29 36 -56
19 -100 -16 -42 -4 -40 24 5 30 46 69 63 93 38 11 -10 19 -53 27 -131 10 -99
15 -119 36 -141 24 -25 45 -32 54 -16 3 4 -8 26 -24 47 -46 61 -41 74 29 74
33 0 63 -4 66 -10 12 -20 85 -10 148 20 35 16 67 30 70 30 20 0 4 -70 -23
-107 -24 -33 -31 -52 -31 -95 -2 -68 -47 -202 -89 -263 -37 -54 -99 -87 -195
-104 -281 -49 -304 -50 -385 -12 -25 11 -62 35 -82 52 -38 32 -63 34 -37 3 19
-23 218 -154 234 -154 8 0 18 -6 22 -13 4 -8 33 -30 63 -49 111 -73 195 -143
198 -166 2 -13 -12 -56 -32 -97 -30 -62 -38 -72 -56 -68 -25 7 -51 -13 -43
-33 7 -18 55 -44 83 -44 11 0 20 -4 20 -9 0 -13 -84 -81 -159 -130 -106 -68
-173 -53 -321 72 l-75 63 -3 79 c-2 43 1 81 6 84 5 3 -6 58 -25 121 -33 109
-34 120 -27 205 12 146 10 283 -8 394 -9 57 -20 107 -25 111 -4 4 -24 13 -44
19 -68 22 -78 42 -81 171 l-3 114 -27 -27 c-30 -30 -34 -47 -17 -79 6 -11 12
-49 13 -84 1 -55 5 -67 30 -93 17 -17 38 -31 49 -31 40 0 57 -19 57 -64 0 -24
5 -68 10 -97 21 -106 21 -213 1 -255 -10 -22 -25 -59 -32 -84 -12 -43 -49
-110 -76 -138 -11 -11 -13 -8 -13 17 0 35 -5 37 -51 16 -47 -20 -69 -39 -69
-59 0 -21 -10 -20 -25 1 -10 14 -17 14 -46 4 -41 -14 -144 -75 -179 -106 -22
-19 -72 -49 -172 -102 -36 -19 -41 -41 -30 -135 4 -43 7 -78 5 -78 -7 0 -31
59 -37 93 -8 43 -17 46 -43 14 -10 -12 -39 -36 -65 -52 -26 -16 -52 -40 -58
-52 -5 -13 -15 -34 -21 -47 -12 -27 7 -80 54 -150 15 -21 27 -42 27 -46 0 -4
-23 1 -52 11 -51 17 -80 43 -98 87 -5 12 -14 22 -20 22 -30 0 2 -189 50 -296
12 -26 37 -70 56 -97 19 -27 34 -59 34 -72 0 -47 -71 -5 -92 56 -4 9 -22 24
-42 33 -20 9 -36 20 -36 24 0 5 -20 18 -45 30 -41 20 -46 20 -52 5 -8 -22 31
-53 67 -53 33 0 39 -12 47 -99 5 -47 3 -62 -5 -57 -7 4 -12 3 -12 -2 0 -5 -17
-9 -37 -8 -35 1 -39 4 -47 38 -11 45 -30 49 -44 9 -8 -22 -6 -37 8 -69 10 -22
15 -42 12 -44 -18 -8 -42 -80 -50 -145 l-8 -73 655 0 c427 0 651 4 641 10 -8
5 -22 10 -31 10 -22 0 -69 48 -69 71 0 9 15 26 32 37 43 27 70 74 62 106 -11
47 50 111 158 165 36 17 36 39 1 47 -57 14 -132 53 -143 74 -11 21 -8 109 6
167 3 11 33 43 67 69 54 42 69 49 118 52 l55 4 -3 -338 c-4 -412 -4 -418 -34
-450 l-23 -24 520 0 519 1 1 75 c0 67 3 77 26 99 21 19 27 21 32 10 8 -23 20
-18 62 25 21 21 40 38 42 36 4 -5 -39 -78 -61 -101 -10 -11 -25 -33 -33 -48
-8 -15 -20 -25 -26 -21 -6 4 -9 1 -6 -7 2 -7 -1 -25 -9 -39 l-13 -25 272 -3
c149 -1 272 -1 274 0 5 6 -18 234 -26 253 -5 11 -11 40 -14 65 -2 25 -7 56
-10 70 -3 14 -7 39 -10 55 -23 139 -36 188 -59 228 -15 25 -32 49 -37 52 -6 3
-10 14 -10 24 0 11 -9 21 -21 24 -16 4 -20 11 -16 26 3 12 1 21 -4 21 -5 0 -9
17 -9 39 0 21 -9 67 -20 101 -11 34 -20 79 -20 99 0 20 -7 92 -16 161 -9 69
-18 163 -21 210 -17 313 -23 473 -18 530 6 75 -16 254 -40 320 -30 85 -60 123
-126 163 -45 26 -76 37 -104 37 -59 1 -72 16 -95 116 -28 120 -73 230 -134
328 l-49 81 -4 120 c-2 66 -10 209 -18 317 -8 109 -15 202 -15 208 0 7 -398
10 -1250 10 l-1250 0 1 -1297z m1952 447 c71 -47 78 -50 168 -58 63 -6 114
-17 154 -34 33 -14 78 -31 100 -37 47 -13 127 -70 152 -108 26 -40 25 -146 -3
-173 -19 -20 -22 -20 -60 -4 -34 14 -65 16 -234 10 l-195 -7 -80 38 c-78 37
-83 38 -213 41 -104 3 -134 7 -139 18 -9 24 18 140 47 202 33 70 84 130 125
148 59 26 98 18 178 -36z m713 -625 c9 -8 11 -15 5 -15 -6 0 -10 -3 -9 -7 1
-5 -6 -22 -15 -40 -9 -18 -31 -74 -48 -125 -31 -97 -55 -128 -95 -128 -40 0
-37 19 9 69 40 42 46 55 52 107 11 96 24 134 48 144 31 12 37 12 53 -5z m383
-342 c-1 -232 -2 -244 -14 -188 -8 33 -17 106 -21 162 -6 83 -4 109 10 143 9
23 14 46 10 51 -6 11 4 79 11 79 3 0 5 -111 4 -247z m-1629 -500 c-1 -24 -2
-26 -11 -10 -5 9 -7 22 -4 27 10 17 15 11 15 -17z m-68 -8 c-4 -26 -22 -45
-22 -25 0 12 18 50 24 50 2 0 1 -11 -2 -25z m-102 -15 c0 -5 -5 -10 -11 -10
-5 0 -7 5 -4 10 3 6 8 10 11 10 2 0 4 -4 4 -10z m-40 -10 c0 -5 -5 -10 -11
-10 -5 0 -7 5 -4 10 3 6 8 10 11 10 2 0 4 -4 4 -10z m174 -30 c6 20 9 22 13 8
2 -10 -2 -24 -9 -31 -11 -12 -14 -12 -24 1 -6 9 -9 25 -6 36 5 18 7 17 12 -9
l6 -30 8 25z m-74 -22 c0 -16 -3 -19 -11 -11 -6 6 -8 16 -5 22 11 17 16 13 16
-11z m-31 -69 c-19 -12 -24 -2 -8 17 9 11 14 13 17 4 3 -7 -2 -16 -9 -21z m86
12 c3 -5 1 -12 -5 -16 -5 -3 -10 1 -10 9 0 18 6 21 15 7z m1131 -5 c8 -8 14
-19 14 -24 0 -5 9 -20 19 -34 11 -13 23 -38 27 -54 6 -28 5 -27 -24 11 -29 39
-66 115 -56 115 3 0 12 -6 20 -14z m-1166 -31 c0 -5 -5 -3 -10 5 -5 8 -10 20
-10 25 0 6 5 3 10 -5 5 -8 10 -19 10 -25z m-59 -17 c-11 -10 -23 -18 -26 -18
-3 0 -1 8 4 18 6 10 17 19 26 19 12 0 12 -4 -4 -19z m39 -17 c0 -5 -7 -12 -16
-15 -14 -5 -15 -4 -4 9 14 17 20 19 20 6z m-43 -33 c-3 -8 -6 -5 -6 6 -1 11 2
17 5 13 3 -3 4 -12 1 -19z m110 -50 c-3 -8 -6 -5 -6 6 -1 11 2 17 5 13 3 -3 4
-12 1 -19z m1001 -429 c-5 -139 -9 -174 -22 -187 -15 -15 -16 -13 -16 18 0 56
20 303 26 323 14 43 17 5 12 -154z m112 113 c0 -9 9 -34 20 -55 22 -40 14 -52
-9 -15 -18 29 -32 88 -20 88 5 0 9 -8 9 -18z m51 -270 c-15 -88 -42 -182 -48
-165 -2 7 -10 10 -17 7 -17 -7 -5 101 17 147 17 35 20 99 5 99 -4 0 -8 10 -7
23 0 12 3 16 6 10 8 -22 33 -14 34 10 1 14 5 8 12 -18 7 -29 7 -60 -2 -113z
m-1167 90 c-7 -46 -26 -92 -37 -92 -4 0 -3 8 2 18 5 10 13 42 17 70 3 28 11
49 16 46 5 -3 6 -22 2 -42z m-368 -134 c-3 -13 -6 -40 -6 -61 0 -27 -4 -37
-12 -34 -22 7 -9 117 13 117 7 0 9 -9 5 -22z m326 -10 c-7 -7 -12 -20 -12 -29
0 -9 -9 -27 -20 -40 l-20 -24 12 35 c12 37 40 81 47 74 3 -2 -1 -10 -7 -16z
m-411 -15 c-8 -15 -10 -15 -11 -2 0 17 10 32 18 25 2 -3 -1 -13 -7 -23z m1773
-76 c10 -7 16 -22 14 -33 -3 -15 -12 -19 -40 -18 -50 2 -94 30 -77 50 14 18
79 18 103 1z"/>
<path d="M2594 3535 c-3 -8 -3 -19 1 -25 11 -18 25 -11 25 15 0 27 -17 34 -26
10z"/>
<path d="M2607 3443 c-10 -10 -8 -81 2 -87 12 -8 21 18 21 60 0 32 -8 42 -23
27z"/>
<path d="M2606 3313 c-10 -11 -7 -103 4 -103 16 0 29 42 23 73 -6 29 -16 41
-27 30z"/>
<path d="M1800 2371 c-12 -8 -13 -17 -2 -56 7 -25 12 -57 12 -71 0 -25 2 -26
38 -21 43 7 92 55 92 91 0 12 -9 31 -20 41 -22 20 -98 30 -120 16z"/>
<path d="M2080 2161 c0 -11 5 -23 10 -26 6 -3 10 3 10 14 0 11 -4 23 -10 26
-5 3 -10 -3 -10 -14z"/>
<path d="M1786 2045 c-25 -38 -18 -53 9 -22 14 15 25 32 25 38 0 17 -18 9 -34
-16z"/>
<path d="M2044 1993 c-14 -15 -40 -32 -57 -38 -42 -13 -41 -35 2 -50 37 -12
50 -29 28 -38 -15 -6 -148 17 -223 39 -50 14 -84 11 -84 -7 0 -19 49 -37 115
-43 39 -3 103 -17 143 -30 39 -14 93 -28 119 -31 27 -4 74 -13 106 -20 68 -16
87 -11 87 19 0 32 -20 54 -81 93 -100 62 -109 68 -109 77 0 4 11 5 24 2 34 -8
41 9 14 33 -30 28 -54 26 -84 -6z"/>
<path d="M1910 1749 c0 -5 4 -9 9 -9 5 0 17 -3 27 -7 11 -4 15 -3 11 4 -9 14
-47 24 -47 12z"/>
<path d="M1980 1732 c0 -32 57 -45 79 -18 14 17 8 22 -42 31 -33 6 -37 5 -37
-13z"/>
<path d="M1376 1511 c-10 -11 -29 -22 -42 -25 -34 -9 -24 -32 12 -29 30 2 64
34 64 59 0 20 -14 17 -34 -5z"/>
<path d="M232 1445 c-6 -22 -25 -92 -41 -155 -17 -63 -67 -221 -111 -350 -63
-183 -80 -245 -78 -280 l3 -45 18 60 c9 33 51 164 92 290 74 226 124 399 133
462 7 50 -4 62 -16 18z"/>
<path d="M1913 1333 c-29 -6 -30 -39 -3 -46 34 -9 92 12 88 31 -3 17 -41 24
-85 15z"/>
<path d="M1856 1135 c-9 -9 -16 -25 -16 -36 0 -16 3 -18 19 -10 23 13 35 41
23 53 -6 6 -16 3 -26 -7z"/>
<path d="M545 1009 c-4 -6 -4 -13 -1 -16 8 -8 36 5 36 17 0 13 -27 13 -35 -1z"/>
<path d="M482 948 c-7 -7 -12 -20 -12 -29 0 -10 -8 -31 -17 -48 -10 -16 -14
-33 -10 -37 9 -9 57 35 57 51 0 7 9 24 20 38 11 14 20 28 20 31 0 11 -46 6
-58 -6z"/>
<path d="M400 798 c-11 -12 -20 -33 -20 -46 0 -34 -215 -251 -232 -234 -20 20
-31 13 -25 -17 5 -22 1 -35 -17 -53 -12 -12 -41 -60 -64 -105 l-42 -81 0 -131
0 -131 119 0 c106 0 120 2 124 18 3 9 12 55 21 102 57 313 80 420 97 459 23
49 79 213 79 230 0 18 -18 13 -40 -11z"/>
<path d="M3434 723 c-9 -36 3 -401 14 -438 5 -16 17 -66 27 -110 9 -44 24
-101 33 -128 l16 -47 83 0 83 0 0 218 0 219 -30 41 c-16 23 -30 46 -30 52 0 5
-7 10 -15 10 -8 0 -15 4 -15 9 0 20 -116 180 -137 190 -20 9 -24 7 -29 -16z"/>
<path d="M155 677 c-10 -8 -14 -17 -8 -20 15 -10 53 4 53 19 0 18 -21 18 -45
1z"/>
<path d="M1741 630 c-66 -37 -81 -49 -81 -66 0 -29 52 -14 99 28 82 75 75 89
-18 38z"/>
<path d="M1695 140 l-38 -39 28 -11 c35 -13 59 -6 85 27 25 32 25 43 0 43 -11
0 -20 5 -20 10 0 19 -16 10 -55 -30z"/>
<path d="M2905 150 c-3 -5 -1 -10 4 -10 6 0 11 5 11 10 0 6 -2 10 -4 10 -3 0
-8 -4 -11 -10z"/>
</g>
</svg>
